SplineFontDB: 3.0
FontName: Kinnari-BoldItalic
FullName: Kinnari Bold Italic
FamilyName: Kinnari
Weight: Bold
Copyright: KinnariBoldItalic by TLWG, based on Kinnari Bold and Norasi Bold Italic.\nCopyright (C) 1999 Db Type. All Rights Reserved.\nCopyright (C) 2007 National Electronics and Computer Technology Center. All Rights Reserved.
Version: 002.008
ItalicAngle: -15.3
UnderlinePosition: -70
UnderlineWidth: 25
Ascent: 800
Descent: 200
InvalidEm: 0
LayerCount: 2
Layer: 0 0 "Back" 1
Layer: 1 0 "Fore" 0
FSType: 0
OS2Version: 4
OS2_WeightWidthSlopeOnly: 0
OS2_UseTypoMetrics: 0
CreationTime: 1136287438
ModificationTime: 1532420254
PfmFamily: 17
TTFWeight: 700
TTFWidth: 5
LineGap: 0
VLineGap: 0
Panose: 0 0 0 0 0 0 0 0 0 0
OS2TypoAscent: 0
OS2TypoAOffset: 1
OS2TypoDescent: 0
OS2TypoDOffset: 1
OS2TypoLinegap: 0
OS2WinAscent: 1286
OS2WinAOffset: 0
OS2WinDescent: 496
OS2WinDOffset: 0
HheadAscent: 1286
HheadAOffset: 0
HheadDescent: -496
HheadDOffset: 0
OS2Vendor: 'PfEd'
Lookup: 4 0 1 "'liga' Standard Ligatures in Latin lookup 0" { "'liga' Standard Ligatures in Latin lookup 0 subtable"  } ['liga' ('latn' <'dflt' > ) ]
Lookup: 6 0 0 "'ccmp' Thai Tone Tilde Reordering" { "'ccmp' Thai Tone Tilde Reordering"  } ['ccmp' ('DFLT' <'dflt' > 'latn' <'dflt' > 'thai' <'KUY ' 'MLY ' 'PAL ' 'SAN ' 'THA ' 'dflt' > ) ]
Lookup: 6 0 0 "'ccmp' Thai Tone Macron Reordering" { "'ccmp' Thai Tone Macron Reordering"  } ['ccmp' ('DFLT' <'dflt' > 'latn' <'dflt' > 'thai' <'KUY ' 'MLY ' 'PAL ' 'SAN ' 'THA ' 'dflt' > ) ]
Lookup: 6 0 0 "'ccmp' Thai Below Vowel Macron Reordering" { "'ccmp' Thai Below Vowel Macron Reordering"  } ['ccmp' ('DFLT' <'dflt' > 'latn' <'dflt' > 'thai' <'KUY ' 'MLY ' 'PAL ' 'SAN ' 'THA ' 'dflt' > ) ]
Lookup: 4 0 0 "'ccmp' Patani Malay Ligatures" { "'ccmp' Patani Malay Ligatures"  } ['ccmp' ('DFLT' <'dflt' > 'thai' <'KUY ' 'MLY ' 'PAL ' 'SAN ' 'THA ' 'dflt' > ) ]

StartChar: .notdef
Encoding: 0 0 0
Width: 384
Flags: W
HStem: 0 23<28 366> 568 23<144 482>
DStem2: 0 0 28 23 0.208512 0.97802<28.3328 585.541> 366 23 384 0 0.208512 0.97802<0 557.208>
LayerCount: 2
Fore
SplineSet
144 568 m 1
 28 23 l 1
 366 23 l 1
 482 568 l 1
 144 568 l 1
384 0 m 1
 0 0 l 1
 126 591 l 1
 510 591 l 1
 384 0 l 1
EndSplineSet
Validated: 1
EndChar

StartChar: exclam
Encoding: 33 33 2
Width: 388
Flags: W
HStem: -13 146<88.847 189.517> 664 20G<285 320.5>
VStem: 67 145<8 110.106> 167 29<210.069 239.173> 231 140<541.754 665.104>
LayerCount: 2
Fore
SplineSet
196 204 m 1xd8
 167 212 l 1
 196 368 215 486 220 565 c 0
 223 609 224 620 231 639 c 1
 246 666 270 684 300 684 c 0
 341 684 371 655 371 611 c 0
 371 584 365 568 338 521 c 1
 283 412 237 312 196 204 c 1xd8
141 133 m 0
 179 133 212 97 212 59 c 0
 212 19 180 -13 139 -13 c 0
 98 -13 67 18 67 59 c 0xe8
 67 100 100 133 141 133 c 0
EndSplineSet
Validated: 1
EndChar

StartChar: numbersign
Encoding: 35 35 4
Width: 499
Flags: W
HStem: 0 21G<-22 64.134 168 256.134> 209 74<-13 63 171 253 362 429> 417 74<70 146 253 338 445 513> 680 20G<255.579 340 445.77 532>
DStem2: -22 0 56 0 0.378221 0.925715<29.5012 225.623 334.974 449.564 558.537 756.172> 168 0 248 0 0.378221 0.925715<30.2577 225.623 335.352 450.321 559.293 756.172>
LayerCount: 2
Fore
SplineSet
450 283 m 1
 429 209 l 1
 333 209 l 1
 248 0 l 1
 168 0 l 1
 253 209 l 1
 141 209 l 1
 56 0 l 1
 -22 0 l 1
 63 209 l 1
 -34 209 l 1
 -13 283 l 1
 92 283 l 1
 146 417 l 1
 51 417 l 1
 70 491 l 1
 176 491 l 1
 264 700 l 1
 340 700 l 1
 253 491 l 1
 368 491 l 1
 454 700 l 1
 532 700 l 1
 445 491 l 1
 533 491 l 1
 513 417 l 1
 416 417 l 1
 362 283 l 1
 450 283 l 1
338 417 m 1
 226 417 l 1
 171 283 l 1
 284 283 l 1
 338 417 l 1
EndSplineSet
Validated: 1
EndChar

StartChar: dollar
Encoding: 36 36 5
Width: 499
Flags: W
HStem: 0 32<186 264.473> 637 32<225.191 303>
VStem: 22 22<205.721 223> 79 100<480.811 571.615> 324 108<114.749 225.934> 434 22<468.091 486.878>
DStem2: 98 -100 149 -100 0.263873 0.964557<13.4575 110.86 150.542 401.645 557.548 764.008 803.163 863.994>
LayerCount: 2
Fore
SplineSet
291 410 m 1
 366 346 432 290 432 201 c 0
 432 86 331 0 201 0 c 2
 179 0 l 1
 149 -100 l 1
 98 -100 l 1
 127 7 l 1
 64 22 34 40 -21 86 c 1
 22 229 l 1
 44 223 l 1
 47 114 67 75 138 42 c 1
 211 303 l 1
 105 384 79 420 79 488 c 0
 79 590 164 669 275 669 c 0
 283 669 291 669 313 668 c 1
 331 732 l 1
 381 732 l 1
 360 661 l 1
 394 655 441 636 479 612 c 1
 497 598 l 1
 456 464 l 1
 434 470 l 1
 435 480 435 494 435 499 c 0
 435 568 412 605 352 625 c 1
 291 410 l 1
248 437 m 1
 303 636 l 1
 297 637 294 637 289 637 c 0
 223 637 179 599 179 542 c 0
 179 502 195 476 248 437 c 1
253 274 m 1
 186 32 l 1
 221 32 230 34 248 40 c 0
 294 57 324 101 324 157 c 0
 324 204 308 230 253 274 c 1
EndSplineSet
Validated: 1
EndChar

StartChar: percent
Encoding: 37 37 6
Width: 832
Flags: W
HStem: -10 47<577.531 661.159> 294 46<163.13 250.375> 325 51<663.907 744.67> 584 39<381.38 518.487> 631 49<248.529 323.485>
VStem: 40 114<351.953 478.277> 347 34<481.613 589.066> 450 117<46.6855 174.79> 759 33<173.378 306.031>
DStem2: 193 -7 250 -7 0.492509 0.870307<28.073 711.098>
LayerCount: 2
Fore
SplineSet
450 127 m 0xbf80
 450 234 550 376 677 376 c 0
 746 376 792 330 792 261 c 0
 792 145 714 -10 583 -10 c 0
 502 -10 450 45 450 127 c 0xbf80
759 256 m 0
 759 296 737 325 704 325 c 0
 635 325 567 140 567 88 c 0
 567 60 588 37 617 37 c 0
 692 37 759 169 759 256 c 0
264 680 m 0
 338 680 329 623 437 623 c 0
 499 623 549 643 605 691 c 1
 645 691 l 1
 250 -7 l 1
 193 -7 l 1
 543 612 l 1
 499 595 461 584 423 584 c 0
 415 584 401 587 381 590 c 1
 379 501 363 444 319 382 c 1
 281 325 229 294 168 294 c 0xdf80
 92 294 40 352 40 431 c 0
 40 555 151 680 264 680 c 0
302 623 m 1
 289 631 288 631 285 631 c 0
 228 631 154 454 154 390 c 0
 154 361 174 340 202 340 c 0
 272 340 347 463 347 577 c 0
 347 616 333 596 302 623 c 1
EndSplineSet
Validated: 1
EndChar

StartChar: ampersand
Encoding: 38 38 7
Width: 777
Flags: W
HStem: -19 72<139.363 313.693> -18 80<502.5 616.447> 335 25<479 521.914 647.551 691> 649 34<383.972 462.225>
VStem: 4 134<112.024 228.109> 234 120<435.301 579.363> 478 79<510.881 631.699>
LayerCount: 2
Fore
SplineSet
672 101 m 1x7e
 699 81 l 1
 639 7 595 -18 529 -18 c 0x7e
 476 -18 435 0 390 44 c 1
 324 -1 268 -19 198 -19 c 0xbe
 83 -19 4 48 4 148 c 0
 4 193 26 242 63 280 c 0
 97 316 129 334 245 384 c 1
 237 429 234 453 234 476 c 0
 234 598 309 683 419 683 c 0
 499 683 557 634 557 568 c 0
 557 501 499 445 375 395 c 1
 387 322 420 234 461 168 c 1
 519 242 535 270 535 297 c 0
 535 319 521 330 479 335 c 1
 479 360 l 1
 691 360 l 1
 691 335 l 1
 628 324 624 319 486 133 c 1
 524 82 557 62 596 62 c 0
 623 62 645 72 672 101 c 1x7e
253 343 m 1
 168 302 138 261 138 190 c 0
 138 111 193 53 265 53 c 0xbe
 296 53 322 60 362 81 c 1
 306 167 278 231 253 343 c 1
366 434 m 1
 403 456 403 456 415 464 c 1
 453 495 478 538 478 582 c 0
 478 624 458 649 425 649 c 0
 379 649 354 606 354 530 c 0
 354 505 357 488 366 434 c 1
EndSplineSet
Validated: 1
EndChar

StartChar: quotesingle
Encoding: 39 39 8
Width: 276
Flags: W
HStem: 398 288
VStem: 144 124<575.281 658.696>
LayerCount: 2
Fore
SplineSet
168 398 m 1
 127 398 l 1
 144 612 l 1
 146 650 185 686 223 686 c 0
 252 686 268 658 268 637 c 0
 268 620 259 602 250 584 c 2
 168 398 l 1
EndSplineSet
Validated: 1
EndChar

StartChar: parenleft
Encoding: 40 40 9
Width: 332
Flags: W
HStem: 666 20G<250 343.19>
VStem: 28 94<49.6509 313.37>
LayerCount: 2
Fore
SplineSet
327 686 m 1
 344 665 l 1
 264 590 226 543 190 461 c 1
 146 366 122 237 122 110 c 0
 122 -6 138 -67 193 -164 c 1
 170 -179 l 1
 69 -41 28 70 28 207 c 0
 28 450 173 572 327 686 c 1
EndSplineSet
Validated: 1
EndChar

StartChar: parenright
Encoding: 41 41 10
Width: 332
Flags: W
HStem: 666 20G<105 153.5>
VStem: 177 94<199.328 449.42>
LayerCount: 2
Fore
SplineSet
-26 -179 m 1
 -44 -160 l 1
 32 -89 63 -51 95 15 c 1
 145 114 177 267 177 398 c 0
 177 513 160 580 105 669 c 1
 127 686 l 1
 180 614 201 580 224 524 c 0
 255 450 271 372 271 299 c 0
 271 202 245 114 192 34 c 1
 141 -47 89 -95 -26 -179 c 1
EndSplineSet
Validated: 1
EndChar

StartChar: asterisk
Encoding: 42 42 11
Width: 499
Flags: W
HStem: 334 105<91.5633 159.721 362.349 430.346> 497 106<77.9046 157.131 362.882 430.3> 666 20G<245.5 276>
VStem: 209 102<260.619 359.251 578.078 677.404> 253 15<394.304 454 482 543.416>
DStem2: 268 482 242 448 0.857493 0.514496<0 62.3737> 275 469 268 454 0.852323 -0.523016<1.87898 63.0679>
LayerCount: 2
Fore
SplineSet
253 482 m 1xe8
 253 494 l 2xe8
 253 527 246 552 227 584 c 0
 214 606 209 618 209 633 c 0
 209 664 230 686 261 686 c 0
 291 686 311 664 311 633 c 0xf0
 311 618 308 606 294 584 c 0
 275 552 268 527 268 494 c 2
 268 482 l 1
 278 488 l 2
 308 505 319 517 344 555 c 1
 365 590 382 603 407 603 c 0
 432 603 456 577 456 548 c 0
 456 533 447 519 431 508 c 1
 416 499 406 497 376 497 c 0
 333 497 319 494 287 475 c 1
 275 469 l 1
 287 461 l 1
 319 442 331 441 376 439 c 1
 406 439 417 437 431 429 c 0
 445 420 456 403 456 388 c 0
 456 359 434 334 406 334 c 0
 381 334 365 346 344 382 c 1
 322 417 312 428 278 448 c 2
 268 454 l 1
 268 442 l 2xe8
 268 410 275 387 294 353 c 0
 306 331 311 318 311 303 c 0
 311 272 291 252 261 252 c 0
 230 252 209 272 209 305 c 0xf0
 209 318 215 331 227 353 c 0
 246 387 253 410 253 442 c 2
 253 454 l 1
 242 448 l 1
 209 428 199 417 177 382 c 1
 157 346 141 334 116 334 c 0
 88 334 64 359 64 388 c 0
 64 403 75 420 91 429 c 1
 103 437 116 439 144 439 c 1
 190 441 201 442 234 461 c 1
 245 469 l 1
 234 475 l 2
 201 494 187 497 144 497 c 0
 116 497 105 499 91 508 c 0
 75 519 64 532 64 549 c 0
 64 577 89 603 114 603 c 0
 138 603 155 590 177 555 c 0
 201 517 212 505 242 488 c 2
 253 482 l 1xe8
EndSplineSet
Validated: 1
EndChar

StartChar: plus
Encoding: 43 43 12
Width: 569
Flags: W
HStem: 0 21G<242 330> 209 88<34 242 330 538>
VStem: 242 88<0 209 297 505>
LayerCount: 2
Fore
SplineSet
242 297 m 1
 242 505 l 1
 330 505 l 1
 330 297 l 1
 538 297 l 1
 538 209 l 1
 330 209 l 1
 330 0 l 1
 242 0 l 1
 242 209 l 1
 34 209 l 1
 34 297 l 1
 242 297 l 1
EndSplineSet
Validated: 1
EndChar

StartChar: comma
Encoding: 44 44 13
Width: 249
Flags: W
HStem: -182 315
VStem: 59 85<-59.5 66>
LayerCount: 2
Fore
SplineSet
59 -41 m 0
 59 0 -12 -3 -12 62 c 0
 -12 103 18 133 59 133 c 0
 110 133 144 95 144 37 c 0
 144 -45 67 -130 -47 -182 c 1
 -60 -158 l 1
 18 -116 59 -78 59 -41 c 0
EndSplineSet
Validated: 1
EndChar

StartChar: hyphen
Encoding: 45 45 14
Width: 332
Flags: W
HStem: 166 117<26 248>
VStem: 1 270
LayerCount: 2
Fore
SplineSet
271 283 m 1
 248 166 l 1
 1 166 l 1
 26 283 l 1
 271 283 l 1
EndSplineSet
Validated: 1
EndChar

StartChar: period
Encoding: 46 46 15
Width: 249
Flags: W
HStem: -13 148<12.375 116.875>
VStem: -9 148<9.64457 112.355>
LayerCount: 2
Fore
SplineSet
66 135 m 0
 105 135 139 101 139 62 c 0
 139 19 105 -13 64 -13 c 0
 23 -13 -9 19 -9 60 c 0
 -9 103 23 135 66 135 c 0
EndSplineSet
Validated: 1
EndChar

StartChar: slash
Encoding: 47 47 16
Width: 276
Flags: W
HStem: -18 21G<-64 32.0341> 666 20G<245.938 341>
DStem2: -64 -18 23 -18 0.41273 0.910853<35.9075 772.902>
LayerCount: 2
Fore
SplineSet
255 686 m 1
 341 686 l 1
 23 -18 l 1
 -64 -18 l 1
 255 686 l 1
EndSplineSet
Validated: 1
EndChar

StartChar: zero
Encoding: 48 48 17
Width: 499
Flags: W
HStem: -15 30<137.628 209.01> 653 30<292.006 356.626>
VStem: 18 102<61 217.261> 374 104<347 604.5>
LayerCount: 2
Fore
SplineSet
18 207 m 0
 18 419 148 683 327 683 c 0
 417 683 478 587 478 442 c 0
 478 252 353 -15 177 -15 c 0
 81 -15 18 73 18 207 c 0
325 653 m 0
 289 653 261 614 223 510 c 0
 176 379 120 145 120 81 c 0
 120 41 141 15 170 15 c 0
 211 15 240 53 272 149 c 1
 297 218 374 505 374 582 c 0
 374 627 356 653 325 653 c 0
EndSplineSet
Validated: 1
EndChar

StartChar: one
Encoding: 49 49 18
Width: 499
Flags: W
HStem: 0 23<4 76.182 268.088 350> 608 23<149 208.112> 663 20G<373.5 413.5>
DStem2: 98.4638 0 231.351 0 0.263873 0.964557<107.737 600.74>
LayerCount: 2
Fore
SplineSet
4 0 m 1
 4 23 l 1
 78 23 107 42 125 97 c 1
 252 557 l 2
 254 566 256 574 256 580 c 0
 256 602 242 612 209 612 c 0
 190 612 174 612 146 608 c 1
 149 631 l 1
 265 647 328 661 419 683 c 1
 265 123 l 2
 253 83 253 78 253 69 c 0
 253 32 271 23 350 23 c 1
 350 0 l 1
 4 0 l 1
EndSplineSet
Validated: 1
EndChar

StartChar: two
Encoding: 50 50 19
Width: 499
Flags: W
HStem: 0 111<105 340> 593 90<191.218 327.5>
VStem: 312 133<427.359 559.114>
LayerCount: 2
Fore
SplineSet
419 190 m 1
 340 0 l 1
 -26 0 l 1
 -26 23 l 1
 63 114 l 1
 250 300 312 393 312 483 c 0
 312 552 277 593 220 593 c 0
 167 593 126 565 86 507 c 1
 64 519 l 1
 92 573 108 598 138 623 c 1
 182 664 229 683 281 683 c 0
 374 683 445 609 445 516 c 0
 445 439 395 357 302 278 c 2
 105 111 l 1
 255 111 l 2
 333 111 356 125 394 190 c 1
 419 190 l 1
EndSplineSet
Validated: 1
EndChar

StartChar: three
Encoding: 51 51 20
Width: 499
Flags: W
HStem: -13 39<78 224.954> 347 22<132 176.052> 612 71<210.154 343.5>
VStem: 286 123<152.881 279.301> 321 129<471.872 584.575>
LayerCount: 2
Fore
SplineSet
286 189 m 0xf0
 286 262 257 344 127 347 c 1
 132 369 l 1
 261 395 321 445 321 521 c 0
 321 577 287 612 234 612 c 0
 187 612 160 595 119 538 c 1
 97 549 l 1
 160 643 220 683 300 683 c 0
 387 683 450 625 450 546 c 0xe8
 450 486 415 438 343 403 c 2
 331 397 l 1
 388 354 409 316 409 250 c 0
 409 104 278 -13 119 -13 c 0
 37 -13 -15 18 -15 67 c 0
 -15 101 9 123 45 123 c 0
 98 123 125 46 135 41 c 1
 144 34 160 26 174 26 c 0
 236 26 286 100 286 189 c 0xf0
EndSplineSet
Validated: 1
EndChar

StartChar: four
Encoding: 52 52 21
Width: 499
Flags: W
HStem: 0 21G<187 321.503> 149 99<53 229 384 426> 663 20G<419.093 502>
DStem2: 13 255 53 248 0.705449 0.708761<23.2566 419.938> 187 0 316 0 0.263873 0.964557<34.0396 154.802 291.193 547.375>
LayerCount: 2
Fore
SplineSet
453 248 m 1
 426 149 l 1
 357 149 l 1
 316 0 l 1
 187 0 l 1
 229 149 l 1
 -15 149 l 1
 13 255 l 1
 439 683 l 1
 502 683 l 1
 384 248 l 1
 453 248 l 1
53 248 m 1
 256 248 l 1
 335 527 l 1
 53 248 l 1
EndSplineSet
Validated: 1
EndChar

StartChar: five
Encoding: 53 53 22
Width: 499
Flags: W
HStem: -13 39<80.5 228.868> 560 109<204 451>
VStem: 308 104<151.392 269.148>
DStem2: 73 372 163 483 0.403564 0.914951<137.88 221.649>
LayerCount: 2
Fore
SplineSet
48 123 m 0
 120 123 117 26 173 26 c 0
 243 26 308 104 308 189 c 0
 308 253 271 311 209 341 c 1
 171 362 139 369 73 372 c 1
 204 669 l 1
 486 669 l 1
 451 560 l 1
 196 560 l 1
 163 483 l 1
 255 464 283 456 316 434 c 0
 378 393 412 328 412 250 c 0
 412 103 284 -13 120 -13 c 0
 41 -13 -12 19 -12 66 c 0
 -12 100 15 123 48 123 c 0
EndSplineSet
Validated: 1
EndChar

StartChar: six
Encoding: 54 54 23
Width: 499
Flags: W
HStem: -15 33<151.521 230.267> 382 40<232.035 303.434> 655 25<483.466 503.68>
VStem: 23 112<82.3255 221.752> 319 123<187.914 349.249>
LayerCount: 2
Fore
SplineSet
502 680 m 1
 508 655 l 1
 374 603 291 530 231 409 c 1
 261 419 272 422 293 422 c 0
 387 422 442 357 442 250 c 0
 442 103 334 -15 196 -15 c 0
 88 -15 23 64 23 195 c 0
 23 335 98 475 224 568 c 0
 305 628 369 653 502 680 c 1
250 382 m 0
 220 382 209 374 189 319 c 1
 157 237 135 148 135 95 c 0
 135 42 152 18 190 18 c 0
 215 18 237 32 250 56 c 0
 284 119 319 253 319 315 c 0
 319 360 297 382 250 382 c 0
EndSplineSet
Validated: 1
EndChar

StartChar: seven
Encoding: 55 55 24
Width: 499
Flags: W
HStem: 0 21G<53 155.36> 557 112<144 384>
DStem2: 53 0 144 0 0.493898 0.86952<44.9447 647.803>
LayerCount: 2
Fore
SplineSet
83 479 m 1
 57 479 l 1
 144 669 l 1
 524 669 l 1
 144 0 l 1
 53 0 l 1
 384 557 l 1
 250 557 l 2
 146 557 120 543 83 479 c 1
EndSplineSet
Validated: 1
EndChar

StartChar: eight
Encoding: 56 56 25
Width: 499
Flags: W
HStem: -13 31<146.103 249.736> 650 33<254.963 346.635>
VStem: 3 97<70.4986 231.304> 108 112<482.76 586.248> 306 113<101.256 222.225> 382 94<465.077 611.109>
LayerCount: 2
Fore
SplineSet
300 683 m 0xf8
 379 683 476 638 476 541 c 0xf4
 476 469 437 425 333 381 c 1
 333 376 l 1
 394 309 419 256 419 193 c 0
 419 75 325 -13 196 -13 c 0
 82 -13 3 54 3 152 c 0
 3 237 59 296 183 340 c 1
 183 346 l 1
 127 404 108 441 108 499 c 0
 108 605 190 683 300 683 c 0xf8
209 321 m 1
 113 261 100 187 100 141 c 0
 100 64 138 18 199 18 c 0
 261 18 306 72 306 146 c 0xf8
 306 199 294 220 209 321 c 1
311 403 m 1
 368 463 382 494 382 543 c 0xf4
 382 608 352 650 302 650 c 0
 253 650 220 609 220 554 c 0
 220 504 242 469 311 403 c 1
EndSplineSet
Validated: 1
EndChar

StartChar: nine
Encoding: 57 57 26
Width: 499
Flags: W
HStem: -10 25<-7.68 18.5015> 245 44<190.451 263.84> 650 33<272.612 348.505>
VStem: 53 124<320.587 489.253> 363 112<441.542 583.069>
LayerCount: 2
Fore
SplineSet
299 683 m 0
 440 683 475 558 475 476 c 0
 475 334 398 190 272 100 c 1
 193 40 129 15 -6 -10 c 1
 -12 15 l 1
 110 53 204 135 265 259 c 1
 242 248 226 245 204 245 c 0
 114 245 53 312 53 412 c 0
 53 564 161 683 299 683 c 0
313 650 m 0
 204 650 177 380 177 352 c 0
 177 311 201 289 243 289 c 0
 286 289 293 297 319 376 c 0
 320 378 363 477 363 582 c 0
 363 628 347 650 313 650 c 0
EndSplineSet
Validated: 1
EndChar

StartChar: colon
Encoding: 58 58 27
Width: 332
Flags: W
HStem: -13 148<44.75 149.375> 311 147<137.625 242.25>
VStem: 23 148<8.375 112.63> 116 148<332.25 436.402>
LayerCount: 2
Fore
SplineSet
98 135 m 0xe0
 138 135 171 101 171 62 c 0
 171 19 138 -13 97 -13 c 0
 56 -13 23 19 23 62 c 0
 23 103 56 135 98 135 c 0xe0
190 458 m 0
 231 458 264 425 264 385 c 0
 264 343 231 311 189 311 c 0
 148 311 116 343 116 385 c 0xd0
 116 428 149 458 190 458 c 0
EndSplineSet
Validated: 1
EndChar

StartChar: semicolon
Encoding: 59 59 28
Width: 332
Flags: W
HStem: 311 147<137.625 242.25>
VStem: 92 87<-60 64.5> 116 148<332.25 436.402>
LayerCount: 2
Fore
SplineSet
92 -42 m 0xc0
 92 -1 23 -1 23 60 c 0
 23 103 53 133 94 133 c 0
 145 133 179 94 179 35 c 0
 179 -45 104 -132 -12 -183 c 1
 -25 -160 l 1
 53 -117 92 -78 92 -42 c 0xc0
190 458 m 0
 231 458 264 425 264 385 c 0
 264 343 231 311 189 311 c 0
 148 311 116 343 116 385 c 0xa0
 116 428 149 458 190 458 c 0
EndSplineSet
Validated: 1
EndChar

StartChar: less
Encoding: 60 60 29
Width: 569
Flags: W
HStem: -12 21G<493.439 539>
DStem2: 31 294 154 253 0.91433 0.404969<95.8589 516.316> 154 253 31 211 0.91566 -0.401953<0 420.861>
LayerCount: 2
Fore
SplineSet
539 -12 m 1
 31 211 l 1
 31 294 l 1
 539 519 l 1
 539 422 l 1
 154 253 l 1
 539 83 l 1
 539 -12 l 1
EndSplineSet
Validated: 1
EndChar

StartChar: equal
Encoding: 61 61 30
Width: 569
Flags: W
HStem: 107 88<34 538> 311 87<34 538>
LayerCount: 2
Fore
SplineSet
538 398 m 1
 538 311 l 1
 34 311 l 1
 34 398 l 1
 538 398 l 1
538 195 m 1
 538 107 l 1
 34 107 l 1
 34 195 l 1
 538 195 l 1
EndSplineSet
Validated: 1
EndChar

StartChar: greater
Encoding: 62 62 31
Width: 569
Flags: W
HStem: -12 21G<31 76.5605>
DStem2: 31 519 31 422 0.91433 -0.404969<39.282 459.739> 31 83 31 -12 0.91566 0.401953<0 420.861>
LayerCount: 2
Fore
SplineSet
31 -12 m 1
 31 83 l 1
 416 253 l 1
 31 422 l 1
 31 519 l 1
 539 294 l 1
 539 211 l 1
 31 -12 l 1
EndSplineSet
Validated: 1
EndChar

StartChar: question
Encoding: 63 63 32
Width: 499
Flags: W
HStem: -13 148<100.375 204.875> 653 31<226.977 318.008>
VStem: 79 148<9.64457 112.63> 119 93<529.501 619.241> 167 29<213.31 240.109> 343 127<488.971 613.758>
LayerCount: 2
Fore
SplineSet
212 615 m 0xd4
 212 596 242 583 242 546 c 0
 242 516 214 488 180 488 c 0
 146 488 119 517 119 555 c 0xd4
 119 630 193 684 294 684 c 0
 398 684 470 625 470 539 c 0
 470 478 434 428 344 369 c 1
 278 327 l 1
 240 300 224 278 196 208 c 1
 167 215 l 1xcc
 171 270 192 316 237 374 c 1
 278 425 l 1
 324 480 343 526 343 573 c 0
 343 623 316 653 274 653 c 0
 242 653 212 634 212 615 c 0xd4
154 135 m 0
 193 135 227 101 227 62 c 0
 227 19 193 -13 152 -13 c 0
 111 -13 79 19 79 62 c 0xe4
 79 103 111 135 154 135 c 0
EndSplineSet
Validated: 1
EndChar

StartChar: at
Encoding: 64 64 33
Width: 832
Flags: W
HStem: -18 46<333.002 568.903> 142 37<566.587 646.414> 144 46<339 434.553> 467 49<430.72 519.697> 646 40<335.155 543.513>
VStem: 63 91<213.078 444.133> 272 77<206.172 362.06> 724 46<276.916 476.433>
LayerCount: 2
Fore
SplineSet
272 256 m 0xbf
 272 360 345 516 473 516 c 0
 508 516 523 505 545 463 c 1
 557 501 l 1
 627 501 l 1
 562 245 l 2
 560 237 560 233 560 224 c 0
 560 195 574 179 598 179 c 0
 674 179 724 300 724 379 c 0
 724 524 595 646 437 646 c 0
 272 646 154 511 154 322 c 0
 154 151 277 28 450 28 c 0
 519 28 568 40 647 76 c 1
 661 41 l 1
 562 -4 511 -18 439 -18 c 0
 229 -18 63 133 63 328 c 0
 63 527 229 686 437 686 c 0
 624 686 770 555 770 387 c 0
 770 255 683 142 583 142 c 0xdf
 535 142 492 176 491 217 c 1
 456 171 409 144 365 144 c 0
 313 144 272 193 272 256 c 0xbf
527 411 m 0
 527 458 500 467 482 467 c 0
 437 467 349 399 349 275 c 0
 349 223 371 190 407 190 c 0xbf
 482 190 527 336 527 411 c 0
EndSplineSet
Validated: 1
EndChar

StartChar: A
Encoding: 65 65 34
Width: 666
Flags: W
HStem: 0 25<-67 -34.5603 73.9436 129 289 346.39 535.218 593> 208 40<161 346> 663 20G<375.347 416.322>
DStem2: 16 95 79 105 0.534642 0.845079<-3.39618 160.72 206.82 206.82> 413 683 309 491 0.16384 -0.986487<172.366 418.145 458.751 583.354>
LayerCount: 2
Fore
SplineSet
368 83 m 0
 368 108 361 145 353 208 c 1
 138 208 l 1
 79 105 l 2
 69 89 64 73 64 60 c 0
 64 37 83 25 129 25 c 1
 129 0 l 1
 -67 0 l 1
 -67 25 l 1
 -31 34 -16 45 16 95 c 2
 388 683 l 1
 413 683 l 1
 508 111 l 2
 521 35 527 29 593 25 c 1
 593 0 l 1
 289 0 l 1
 289 25 l 1
 353 31 368 42 368 83 c 0
161 248 m 1
 346 248 l 1
 309 491 l 1
 161 248 l 1
EndSplineSet
Validated: 1
EndChar

StartChar: B
Encoding: 66 66 35
Width: 666
Flags: W
HStem: 0 32<203.024 318.588> 0 25<-23 19.3> 338 30<277 366.566> 637 32<349.997 442.643> 645 24<116 171.759>
VStem: 419 154<128.771 285.895> 478 146<447.248 597.037>
DStem2: 29.4638 0 178.285 0 0.263873 0.964557<106.567 394.309 420.275 623.264>
LayerCount: 2
Fore
SplineSet
189 603 m 0x64
 189 641 147 642 116 645 c 1
 116 669 l 1x6c
 388 669 l 2
 543 669 624 620 624 523 c 0x32
 624 409 514 375 435 354 c 1
 536 322 573 284 573 207 c 0
 573 78 460 0 277 0 c 2xb4
 -23 0 l 1
 -23 25 l 1
 23 31 40 45 56 97 c 1
 179 546 l 2
 185 571 189 593 189 603 c 0x64
255 32 m 0xa4
 388 32 419 168 419 229 c 0
 419 267 407 294 385 313 c 0
 365 330 335 335 270 338 c 1
 204 94 l 2
 201 81 198 72 198 64 c 0
 198 42 217 32 255 32 c 0xa4
277 368 m 1
 355 371 478 375 478 536 c 0
 478 603 448 637 390 637 c 0x32
 357 637 349 628 338 593 c 1
 277 368 l 1
EndSplineSet
Validated: 1
EndChar

StartChar: C
Encoding: 67 67 36
Width: 666
Flags: W
HStem: -18 53<258.222 421.029> 451 21G<595 629.426> 650 36<396.04 532.886>
VStem: 32 154<133.705 353.966> 595 30<455.6 482.635> 647 30<666.27 686>
LayerCount: 2
Fore
SplineSet
439 686 m 0
 520 686 584 656 609 656 c 0
 624 656 633 664 647 686 c 1
 677 686 l 1
 625 451 l 1
 595 457 l 1
 596 470 598 479 598 492 c 0
 598 590 546 650 466 650 c 0
 306 650 186 395 186 209 c 0
 186 100 242 35 335 35 c 0
 446 35 503 101 546 152 c 1
 576 130 l 1
 543 86 527 69 498 47 c 0
 441 4 375 -18 305 -18 c 0
 141 -18 32 86 32 242 c 0
 32 483 217 686 439 686 c 0
EndSplineSet
Validated: 1
EndChar

StartChar: D
Encoding: 68 68 37
Width: 720
Flags: W
HStem: 0 34<181.387 321.209> 0 25<-45 -1.55069> 639 30<94 160.814 330.094 451.24>
VStem: 538 148<291.67 510.015>
DStem2: 7.4638 0 155.625 0 0.263873 0.964557<109.996 622.304>
LayerCount: 2
Fore
SplineSet
167 602 m 0x70
 167 637 144 634 94 645 c 1
 94 669 l 1
 384 669 l 2
 573 669 686 567 686 395 c 0
 686 168 495 0 240 0 c 2xb0
 -45 0 l 1
 -45 25 l 1
 3 31 19 45 34 97 c 2
 155 543 l 2
 163 576 167 592 167 602 c 0x70
318 601 m 2
 189 122 l 2
 182 96 177 81 177 67 c 0
 177 45 193 34 231 34 c 0
 451 34 538 261 538 457 c 0
 538 579 483 639 374 639 c 0
 341 639 325 627 318 601 c 2
EndSplineSet
Validated: 1
EndChar

StartChar: E
Encoding: 69 69 38
Width: 666
Flags: W
HStem: 0 32<200.286 372.899> 0 25<-26 15.8696> 338 33<275 370.755> 637 32<348.252 507.581> 645 24<113 169.727>
VStem: 406 28<202.75 224.824> 480 28<449.602 473> 561 25<179.129 194.68> 583 26<483 509.227>
DStem2: 26.4638 0 173.71 0 0.263873 0.964557<108.722 394.054 423.433 625.891>
LayerCount: 2
Fore
SplineSet
256 32 m 0xb680
 464 32 527 144 561 199 c 1
 586 193 l 1
 527 0 l 1
 -26 0 l 1
 -26 25 l 1
 25 34 37 44 53 97 c 1
 176 546 l 2
 182 568 186 590 186 606 c 0
 186 639 161 635 113 645 c 1
 113 669 l 1
 653 669 l 1x6f
 609 479 l 1
 583 483 l 1
 583 562 578 637 398 637 c 0
 357 637 346 628 335 593 c 1
 275 371 l 1
 297 371 l 2
 410 371 437 388 480 476 c 1
 508 472 l 1
 434 199 l 1
 406 204 l 1
 409 223 410 234 410 248 c 0
 410 316 379 335 267 338 c 1
 209 129 l 1
 203 91 195 79 195 66 c 0
 195 42 212 32 256 32 c 0xb680
EndSplineSet
Validated: 1
EndChar

StartChar: F
Encoding: 70 70 39
Width: 666
Flags: W
HStem: 0 25<-13 30.0491 225.625 283> 338 33<289 379.722> 637 32<363.306 518.609> 645 24<127 183.517>
VStem: 413 28<202.75 224.48> 486 30<448.041 472.933> 590 27<483 509.227>
DStem2: 40.4638 0 188.247 0 0.263873 0.964557<112.822 393.555 423.433 626.242>
LayerCount: 2
Fore
SplineSet
590 483 m 1xde
 590 553 587 637 413 637 c 0xee
 374 637 360 628 350 593 c 2
 289 371 l 1
 420 371 439 382 486 476 c 1
 516 472 l 1
 441 199 l 1
 413 204 l 1
 416 223 417 234 417 248 c 0
 417 316 387 335 280 338 c 1
 226 138 l 2
 222 124 211 97 211 69 c 0
 211 38 226 29 283 25 c 1
 283 0 l 1
 -13 0 l 1
 -13 25 l 1
 40 34 51 44 67 97 c 1
 190 546 l 2
 196 568 201 592 201 606 c 0
 201 639 176 634 127 645 c 1
 127 669 l 1
 661 669 l 1
 617 479 l 1
 590 483 l 1xde
EndSplineSet
Validated: 1
EndChar

StartChar: G
Encoding: 71 71 40
Width: 720
Flags: W
HStem: -18 39<258.223 421.656> 305 25<419 476.037 660.293 706> 649 37<385.881 533.401>
VStem: 21 156<141.124 360.27> 601 29<469 494.471> 650 31<664.255 686>
LayerCount: 2
Fore
SplineSet
494 268 m 0
 494 298 450 301 419 305 c 1
 419 330 l 1
 706 330 l 1
 706 305 l 1
 653 300 646 291 627 223 c 1
 579 41 l 1
 551 28 l 2
 494 1 394 -18 316 -18 c 0
 142 -18 21 92 21 250 c 0
 21 467 193 686 448 686 c 0
 544 686 580 655 608 655 c 0
 628 655 639 664 650 686 c 1
 681 686 l 1
 630 464 l 1
 601 469 l 1
 599 536 592 565 570 598 c 0
 548 630 508 649 461 649 c 0
 280 649 177 382 177 208 c 0
 177 86 234 21 341 21 c 0
 379 21 420 34 435 50 c 1
 439 56 439 56 461 133 c 1
 489 226 494 242 494 268 c 0
EndSplineSet
Validated: 1
EndChar

StartChar: H
Encoding: 72 72 41
Width: 777
Flags: W
HStem: 0 25<-23 19.3105 210.021 272 340 403.089 596.948 658> 330 44<278 505> 645 24<116 170.875 373.883 434 501 557.375 756.721 798>
DStem2: 29.4638 0 175.889 0 0.263873 0.964557<110.043 380.983 426.326 623.265> 414.464 0 561.417 0 0.263873 0.964557<109.081 342.194 387.801 626.107>
LayerCount: 2
Fore
SplineSet
574 606 m 0
 574 638 554 634 501 645 c 1
 501 669 l 1
 798 669 l 1
 798 645 l 1
 749 637 734 625 718 573 c 1
 603 152 l 2
 589 103 584 81 584 66 c 0
 584 37 602 26 658 25 c 1
 658 0 l 1
 340 0 l 1
 340 25 l 1
 407 29 428 42 441 97 c 1
 505 330 l 1
 267 330 l 1
 212 132 l 2
 203 100 199 82 199 67 c 0
 199 37 209 29 272 25 c 1
 272 0 l 1
 -23 0 l 1
 -23 25 l 1
 26 32 40 45 56 97 c 1
 179 546 l 1
 185 573 189 593 189 603 c 0
 189 639 165 634 116 645 c 1
 116 669 l 1
 434 669 l 1
 434 645 l 1
 368 642 349 627 333 573 c 1
 278 374 l 1
 517 374 l 1
 564 546 l 2
 568 564 574 595 574 606 c 0
EndSplineSet
Validated: 1
EndChar

StartChar: I
Encoding: 73 73 42
Width: 388
Flags: W
HStem: 0 25<-32 12.3792 203.751 264> 645 24<108 166.357 361.422 406>
DStem2: 21.4638 0 167.417 0 0.263873 0.964557<107.505 626.37>
LayerCount: 2
Fore
SplineSet
182 606 m 0
 182 640 156 635 108 645 c 1
 108 669 l 1
 406 669 l 1
 406 645 l 1
 354 639 340 625 324 573 c 1
 209 152 l 2
 196 103 192 81 192 64 c 0
 192 37 207 28 264 25 c 1
 264 0 l 1
 -32 0 l 1
 -32 25 l 1
 18 31 32 45 48 97 c 1
 171 546 l 2
 176 564 182 595 182 606 c 0
EndSplineSet
Validated: 1
EndChar

StartChar: J
Encoding: 74 74 43
Width: 499
Flags: W
HStem: -100 37<60.7357 120.339> 645 24<227 258 481.268 524>
VStem: -45 104<-52.6031 31.2613>
DStem2: 115.456 -100 262.475 -100 0.263873 0.964557<106.655 729.168>
LayerCount: 2
Fore
SplineSet
81 9 m 0
 81 -22 59 -20 59 -45 c 0
 59 -57 67 -63 85 -63 c 0
 122 -63 136 -35 174 114 c 1
 289 546 l 2
 296 573 300 595 300 606 c 0
 300 625 287 636 258 639 c 1
 227 645 l 1
 227 669 l 1
 524 669 l 1
 524 645 l 1
 475 639 460 625 442 573 c 1
 315 92 l 2
 280 -38 214 -100 105 -100 c 0
 18 -100 -45 -56 -45 1 c 0
 -45 41 -18 72 18 72 c 0
 53 72 81 44 81 9 c 0
EndSplineSet
Validated: 1
EndChar

StartChar: K
Encoding: 75 75 44
Width: 666
Flags: W
HStem: 0 25<-21 22.6651 215.125 268 333 390.492 567.755 612> 645 24<119 173.875 378.252 429 491 539.346 654.625 702>
DStem2: 32.4638 0 179.926 0 0.263873 0.964557<112.615 387.999 395.015 623.265> 393 398 271 337 0.419058 -0.907959<4.26043 314.494>
LayerCount: 2
Fore
SplineSet
192 603 m 0
 192 639 168 634 119 645 c 1
 119 669 l 1
 429 669 l 1
 429 645 l 1
 371 639 352 624 335 573 c 1
 272 344 l 1
 479 520 546 587 546 617 c 0
 546 631 538 639 513 642 c 0
 508 642 499 643 491 645 c 1
 491 669 l 1
 702 669 l 1
 702 645 l 1
 659 639 650 636 608 596 c 2
 393 398 l 1
 549 60 l 2
 560 37 574 29 612 25 c 1
 612 0 l 1
 333 0 l 1
 333 25 l 1
 371 28 397 29 397 53 c 0
 397 63 393 75 384 95 c 2
 271 337 l 1
 204 88 l 2
 203 83 202 78 202 70 c 0
 202 38 215 29 268 25 c 1
 268 0 l 1
 -21 0 l 1
 -21 25 l 1
 28 31 42 44 59 97 c 1
 182 546 l 1
 187 573 192 593 192 603 c 0
EndSplineSet
Validated: 1
EndChar

StartChar: L
Encoding: 76 76 45
Width: 610
Flags: W
HStem: 0 32<205.134 389.064> 0 25<-22 21.0312> 645 24<119 175.984 376.27 435>
VStem: 565 25<179.713 194.68>
DStem2: 32.4638 0 179.285 0 0.263873 0.964557<104.64 625.579>
LayerCount: 2
Fore
SplineSet
190 606 m 0x70
 190 641 168 634 119 645 c 1
 119 669 l 1
 435 669 l 1
 435 645 l 1
 369 640 349 627 334 573 c 2
 205 94 l 2
 202 83 201 70 201 62 c 0
 201 41 220 32 264 32 c 0xb0
 346 32 420 48 472 89 c 0
 510 119 532 144 565 199 c 1
 590 193 l 1
 532 0 l 1
 -22 0 l 1
 -22 25 l 1
 26 32 45 44 59 97 c 2
 182 546 l 2
 186 564 190 595 190 606 c 0x70
EndSplineSet
Validated: 1
EndChar

StartChar: M
Encoding: 77 77 46
Width: 887
Flags: W
HStem: -12 21G<283.563 326.089> 0 25<-29 5.58209 124.807 179 463 523.126 714.968 775> 645 24<120 184.527 872.914 917>
DStem2: 19.7483 -12 64.7483 -12 0.263873 0.964557<115.952 589.404> 341 669 218 546 0.120969 -0.992656<107.218 483.007> 395 189 313 -12 0.547603 0.836738<0 471.714> 532.181 -12 676.068 -12 0.263873 0.964557<122.407 593.808>
LayerCount: 2
Fore
SplineSet
917 669 m 1x60
 917 645 l 1
 866 639 851 624 836 573 c 1
 713 123 l 2
 712 118 703 92 703 67 c 0
 703 37 716 28 775 25 c 1
 775 0 l 1
 463 0 l 1
 463 25 l 1x60
 527 29 546 42 562 97 c 1
 688 561 l 1
 313 -12 l 1
 286 -12 l 1xa0
 218 546 l 1
 117 179 l 2
 104 130 98 103 98 86 c 0
 98 45 114 34 179 25 c 1
 179 0 l 1
 -29 0 l 1
 -29 25 l 1
 25 37 32 48 72 179 c 1
 182 551 l 1
 187 576 192 596 192 609 c 0
 192 637 183 642 120 645 c 1
 120 669 l 1
 341 669 l 1
 395 189 l 1
 705 669 l 1
 917 669 l 1x60
EndSplineSet
Validated: 1
EndChar

StartChar: N
Encoding: 78 78 47
Width: 720
Flags: W
HStem: -15 21G<465.655 507.692> 0 25<-26 10.189 125.534 182> 645 24<111 162.211 539 590.557 713.641 749>
DStem2: 21.9276 -15 65.9276 -15 0.263873 0.964557<116.308 582.245> 306 669 193 589 0.42305 -0.906106<0 24.6839 84.1899 512.295> 461.088 -15 502 -15 0.263873 0.964557<227.047 618.92>
LayerCount: 2
Fore
SplineSet
306 669 m 1x60
 521 204 l 1
 601 491 l 2
 612 532 620 567 620 584 c 0
 620 623 598 639 539 645 c 1
 539 669 l 1
 749 669 l 1
 749 645 l 1
 690 631 686 623 646 491 c 1
 502 -15 l 1
 475 -15 l 1xa0
 218 535 l 1
 119 179 l 2
 108 138 101 103 101 83 c 0
 101 45 122 29 182 25 c 1
 182 0 l 1
 -26 0 l 1
 -26 25 l 1
 28 37 35 47 75 179 c 1
 193 589 l 1
 174 633 166 639 111 645 c 1
 111 669 l 1
 306 669 l 1x60
EndSplineSet
Validated: 1
EndChar

StartChar: O
Encoding: 79 79 48
Width: 720
Flags: W
HStem: -18 34<217.772 333.622> 650 36<381.548 500.497>
VStem: 26 145<113.504 282.265> 546 145<380.539 552.987>
LayerCount: 2
Fore
SplineSet
26 221 m 0
 26 428 218 686 450 686 c 0
 587 686 691 587 691 454 c 0
 691 235 505 -18 264 -18 c 0
 122 -18 26 78 26 221 c 0
445 650 m 0
 381 650 328 609 277 520 c 1
 223 423 171 239 171 138 c 0
 171 63 209 16 272 16 c 0
 327 16 372 45 417 113 c 1
 485 211 546 412 546 532 c 0
 546 603 505 650 445 650 c 0
EndSplineSet
Validated: 1
EndChar

StartChar: P
Encoding: 80 80 49
Width: 610
Flags: W
HStem: 0 25<-26 15.8696 207.088 267> 316 36<270 391.812> 637 32<343.23 431.366> 645 24<113 169.727>
VStem: 467 145<436.936 594.498>
DStem2: 26.4638 0 171.351 0 0.263873 0.964557<106.717 375.432 405.716 625.978>
LayerCount: 2
Fore
SplineSet
186 606 m 0xe8
 186 639 161 635 113 645 c 1
 113 669 l 1xd8
 400 669 l 2
 539 669 612 615 612 514 c 0
 612 394 505 316 340 316 c 0
 313 316 294 318 259 322 c 1
 205 123 l 2
 201 107 195 75 195 64 c 0
 195 37 211 28 267 25 c 1
 267 0 l 1
 -26 0 l 1
 -26 25 l 1
 25 34 37 44 53 97 c 1
 176 546 l 2
 182 568 186 592 186 606 c 0xe8
382 637 m 0xe8
 341 637 339 614 333 593 c 2
 270 354 l 1
 286 353 297 352 311 352 c 0
 381 352 417 375 444 434 c 0
 458 464 467 511 467 546 c 0
 467 603 437 637 382 637 c 0xe8
EndSplineSet
Validated: 1
EndChar

StartChar: Q
Encoding: 81 81 50
Width: 720
Flags: W
HStem: -208 89<379.574 511.465> 650 36<378.29 500.784>
VStem: 26 145<113.331 281.32> 546 145<378.692 552.789>
LayerCount: 2
Fore
SplineSet
395 -208 m 0
 297 -208 234 -161 157 -161 c 0
 125 -161 97 -168 42 -189 c 1
 28 -166 l 1
 185 -35 l 1
 204 -16 l 1
 193 -1 147 -4 97 44 c 0
 53 86 26 146 26 211 c 0
 26 454 233 686 450 686 c 0
 589 686 691 587 691 453 c 0
 691 319 624 179 514 81 c 0
 437 12 382 -9 252 -18 c 1
 231 -37 207 -62 207 -64 c 0
 207 -74 290 -70 354 -89 c 1
 395 -103 l 1
 432 -114 453 -119 479 -119 c 0
 539 -119 576 -100 634 -40 c 1
 655 -59 l 1
 574 -168 505 -208 395 -208 c 0
445 650 m 0
 381 650 328 609 277 520 c 1
 223 423 171 239 171 136 c 0
 171 63 209 18 272 18 c 0
 327 18 372 47 417 114 c 1
 485 212 546 412 546 532 c 0
 546 603 505 650 445 650 c 0
EndSplineSet
Validated: 1
EndChar

StartChar: R
Encoding: 82 82 51
Width: 666
Flags: W
HStem: 0 25<-29 15.3792 207.318 267 550.057 602> 331 32<272 293> 637 32<343.53 435.975> 645 24<111 169.357>
VStem: 472 151<448.587 599.655>
DStem2: 24.4638 0 171.247 0 0.263873 0.964557<110.268 382.476 415.452 626.369> 431 343 293 331 0.307591 -0.951519<0 316.836>
LayerCount: 2
Fore
SplineSet
185 606 m 0xe8
 185 640 159 635 111 645 c 1
 111 669 l 1xd8
 387 669 l 2
 545 669 623 623 623 526 c 0
 623 478 602 377 431 343 c 1
 514 97 l 1
 536 38 546 29 602 25 c 1
 602 0 l 1
 400 0 l 1
 293 331 l 1
 264 331 l 1
 209 138 l 2
 201 107 195 81 195 67 c 0
 195 37 209 29 267 25 c 1
 267 0 l 1
 -29 0 l 1
 -29 25 l 1
 21 31 35 45 51 97 c 1
 174 546 l 2
 179 562 185 595 185 606 c 0xe8
333 593 m 1
 272 363 l 1
 335 365 374 371 400 388 c 0
 442 415 472 476 472 542 c 0
 472 602 439 637 382 637 c 0xe8
 352 637 341 628 333 593 c 1
EndSplineSet
Validated: 1
EndChar

StartChar: S
Encoding: 83 83 52
Width: 555
Flags: W
HStem: -18 34<151.759 285.582> 650 5<327 453>
VStem: 38 29<164.432 204> 103 120<481.842 580.896> 347 122<91.4823 203.434> 458 28<483 515.175>
LayerCount: 2
Fore
SplineSet
347 142 m 0xf8
 347 269 103 324 103 491 c 0
 103 601 189 686 303 686 c 0
 363 686 416 655 453 655 c 0
 473 655 486 664 497 681 c 1
 526 681 l 1
 486 480 l 1
 458 483 l 1xf4
 445 601 407 650 327 650 c 0
 264 650 223 609 223 545 c 0
 223 499 237 478 300 431 c 0
 422 338 469 271 469 185 c 0
 469 62 379 -18 239 -18 c 0
 150 -18 104 18 70 18 c 0
 51 18 44 12 32 -18 c 1
 1 -18 l 1
 38 207 l 1
 67 204 l 1
 70 144 79 114 98 83 c 0
 123 41 168 16 221 16 c 0
 326 16 347 110 347 142 c 0xf8
EndSplineSet
Validated: 1
EndChar

StartChar: T
Encoding: 84 84 53
Width: 610
Flags: W
HStem: 0 25<50 118.086 308.556 381> 634 35<210.5 303 450 527.576>
VStem: 62 24<495.958 508.888> 587 27<479 515.139>
DStem2: 128.464 0 274.257 0 0.263873 0.964557<108.817 657.585>
LayerCount: 2
Fore
SplineSet
650 669 m 1
 614 478 l 1
 587 479 l 1
 582 590 543 633 450 634 c 1
 309 127 l 2
 302 103 297 81 297 66 c 0
 297 34 311 28 381 25 c 1
 381 0 l 1
 50 0 l 1
 50 25 l 1
 64 25 l 2
 116 25 141 45 155 97 c 2
 303 634 l 1
 201 631 138 590 86 491 c 1
 62 498 l 1
 100 669 l 1
 650 669 l 1
EndSplineSet
Validated: 1
EndChar

StartChar: U
Encoding: 85 85 54
Width: 720
Flags: W
HStem: -18 56<247.073 405.321> 645 24<98 155.533 352.256 409 536 586.678 708.54 744>
VStem: 67 138<76.2184 248.206>
DStem2: 6.43937 -18 153.665 -18 0.263873 0.964557<205.044 643.786> 456.656 -18 498.854 -18 0.263873 0.964557<131.82 625.126>
LayerCount: 2
Fore
SplineSet
744 669 m 1
 744 645 l 1
 688 633 683 623 642 491 c 1
 576 264 l 2
 533 113 484 -18 290 -18 c 0
 160 -18 67 50 67 148 c 0
 67 182 79 243 100 324 c 1
 157 529 l 2
 166 562 171 593 171 605 c 0
 171 627 161 636 129 640 c 0
 125 640 111 642 98 645 c 1
 98 669 l 1
 409 669 l 1
 409 645 l 1
 347 642 333 628 315 573 c 1
 233 272 l 2
 208 182 205 166 205 139 c 0
 205 76 250 38 327 38 c 0
 459 38 503 148 539 283 c 1
 598 491 l 1
 608 532 617 571 617 587 c 0
 617 623 593 639 536 645 c 1
 536 669 l 1
 744 669 l 1
EndSplineSet
Validated: 1
EndChar

StartChar: V
Encoding: 86 86 55
Width: 666
Flags: W
HStem: -18 21G<228.014 276.625> 645 24<64 114.678 300.896 363 523 576.787 687.455 715>
DStem2: 289 583 155 491 0.147675 -0.989036<-15.8431 403.839> 338 182 264 -18 0.533788 0.845618<0 494.79>
LayerCount: 2
Fore
SplineSet
715 669 m 1
 715 645 l 1
 687 636 669 623 656 603 c 2
 264 -18 l 1
 231 -18 l 1
 155 491 l 2
 133 634 127 645 64 645 c 1
 64 669 l 1
 363 669 l 1
 363 645 l 1
 296 639 287 633 287 599 c 0
 287 593 288 589 289 583 c 2
 338 182 l 1
 529 483 l 2
 568 545 587 589 587 611 c 0
 587 630 576 639 548 642 c 0
 543 642 535 643 523 645 c 1
 523 669 l 1
 715 669 l 1
EndSplineSet
Validated: 1
EndChar

StartChar: W
Encoding: 87 87 56
Width: 887
Flags: W
HStem: -18 21G<217.306 258.51 538.592 579.645> 645 24<64 112.3 299.145 341 400 442.883 622.826 669 753 806.3 901.315 940>
VStem: 472 134<538 627.921>
DStem2: 283 576 142 561 0.133509 -0.991048<-13.9992 351.94> 321 226 249 -18 0.429433 0.903099<0 291.301> 612 521 482 472 0.119545 -0.992829<33.1078 296.829> 645 226 570 -18 0.434365 0.900737<0 409.746>
LayerCount: 2
Fore
SplineSet
940 669 m 1
 940 645 l 1
 898 639 885 627 855 573 c 1
 570 -18 l 1
 541 -18 l 1
 482 472 l 1
 249 -18 l 1
 220 -18 l 1
 142 561 l 2
 132 631 130 634 64 645 c 1
 64 669 l 1
 341 669 l 1
 341 645 l 1
 294 639 281 627 281 590 c 0
 281 587 283 580 283 576 c 2
 321 226 l 1
 472 538 l 1
 470 623 460 637 400 645 c 1
 400 669 l 1
 669 669 l 1
 669 645 l 1
 617 639 606 630 606 586 c 0
 606 576 606 573 612 521 c 2
 645 226 l 1
 801 554 l 2
 813 579 816 587 816 599 c 0
 816 636 809 640 753 645 c 1
 753 669 l 1
 940 669 l 1
EndSplineSet
Validated: 1
EndChar

StartChar: X
Encoding: 88 88 57
Width: 666
Flags: W
HStem: 0 25<-23 7.875 141.638 190 278 334.444 533.032 586> 645 24<100 152.116 344.507 404 491 540.007 657.091 694>
DStem2: 207 234 155 116 0.685754 0.727834<-179.482 78.0668 255.384 511.364> 371 458 275 309 0.297249 -0.9548<-150.889 39.5521 83.518 113.729 160.857 367.836>
LayerCount: 2
Fore
SplineSet
586 25 m 1
 586 0 l 1
 278 0 l 1
 278 25 l 1
 333 29 346 38 346 63 c 0
 346 104 308 197 289 264 c 1
 155 116 l 2
 133 92 125 78 125 64 c 0
 125 42 145 29 190 25 c 1
 190 0 l 1
 -23 0 l 1
 -23 25 l 1
 18 34 48 62 207 234 c 1
 275 309 l 1
 190 582 l 1
 174 627 160 639 100 645 c 1
 100 669 l 1
 404 669 l 1
 404 645 l 1
 391 642 379 642 375 642 c 0
 341 637 331 628 331 605 c 0
 331 576 366 473 371 458 c 2
 382 420 l 1
 476 520 l 2
 527 574 546 601 546 618 c 0
 546 633 536 640 513 642 c 0
 508 642 501 643 491 645 c 1
 491 669 l 1
 694 669 l 1
 694 645 l 1
 658 639 639 627 595 583 c 2
 395 378 l 1
 470 141 l 2
 499 47 514 34 586 25 c 1
EndSplineSet
Validated: 1
EndChar

StartChar: Y
Encoding: 89 89 58
Width: 610
Flags: W
HStem: 0 25<73 135.7 330.133 395> 645 24<73 117.146 295.577 356 451 504.875 626.53 659>
DStem2: 147.464 0 294.992 0 0.263873 0.964557<114.946 324.741> 363 352 378 308 0.578355 0.815785<0 290.219>
LayerCount: 2
Fore
SplineSet
234 313 m 1
 146 582 l 1
 127 634 125 637 73 645 c 1
 73 669 l 1
 356 669 l 1
 356 645 l 1
 300 643 286 636 286 606 c 0
 286 581 303 540 363 352 c 1
 492 538 l 2
 513 567 519 580 519 598 c 0
 519 633 504 642 451 645 c 1
 451 669 l 1
 659 669 l 1
 659 645 l 1
 621 636 602 621 568 576 c 1
 378 308 l 1
 327 117 l 1
 319 94 318 83 318 72 c 0
 318 35 330 28 395 25 c 1
 395 0 l 1
 73 0 l 1
 73 25 l 1
 142 29 157 40 174 97 c 1
 234 313 l 1
EndSplineSet
Validated: 1
EndChar

StartChar: Z
Encoding: 90 90 59
Width: 610
Flags: W
HStem: 0 35<157 360.609> 634 35<237.244 423>
VStem: 64 28<489.75 501.253> 527 27<178.403 194.556>
DStem2: -12 29 157 35 0.583774 0.811916<103.529 745.151>
LayerCount: 2
Fore
SplineSet
554 193 m 1
 495 0 l 1
 -12 0 l 1
 -12 29 l 1
 423 634 l 1
 346 634 l 2
 234 634 171 598 92 486 c 1
 64 491 l 1
 122 669 l 1
 590 669 l 1
 590 640 l 1
 157 35 l 1
 226 35 l 2
 313 35 374 48 417 81 c 1
 458 107 497 149 527 199 c 1
 554 193 l 1
EndSplineSet
Validated: 1
EndChar

StartChar: bracketleft
Encoding: 91 91 60
Width: 332
Flags: W
HStem: -160 35<77.2365 182> 639 35<247.113 354>
DStem2: -37 -160 76 -100 0.233197 0.97243<66.9319 849.636>
LayerCount: 2
Fore
SplineSet
354 639 m 1
 286 639 l 2
 250 639 248 636 234 576 c 2
 76 -100 l 2
 76 -103 76 -125 111 -125 c 2
 189 -125 l 1
 182 -160 l 1
 -37 -160 l 1
 163 674 l 1
 362 674 l 1
 354 639 l 1
EndSplineSet
Validated: 1
EndChar

StartChar: backslash
Encoding: 92 92 61
Width: 276
Flags: W
HStem: -18 21G<189.432 278> 666 20G<-1 88.5398>
VStem: -1 279
DStem2: 83 686 -1 686 0.268208 -0.963361<0 708.245>
LayerCount: 2
Fore
SplineSet
-1 686 m 1
 83 686 l 1
 278 -18 l 1
 195 -18 l 1
 -1 686 l 1
EndSplineSet
Validated: 1
EndChar

StartChar: bracketright
Encoding: 93 93 62
Width: 332
Flags: W
HStem: -157 35<-48 58.4059> 639 35<123 228.186>
DStem2: 70 -62 144 -157 0.232886 0.972504<-66.3568 711.179>
LayerCount: 2
Fore
SplineSet
-48 -122 m 1
 19 -122 l 2
 56 -122 57 -119 70 -62 c 2
 229 617 l 1
 229 628 215 639 193 639 c 2
 116 639 l 1
 123 674 l 1
 343 674 l 1
 144 -157 l 1
 -56 -157 l 1
 -48 -122 l 1
EndSplineSet
Validated: 1
EndChar

StartChar: asciicircum
Encoding: 94 94 63
Width: 569
Flags: W
HStem: 649 20G<235.22 334.725>
DStem2: 67 305 157 305 0.439299 0.898341<39.5369 339.657> 325 669 286 576 0.437304 -0.899314<66.5813 366.708>
LayerCount: 2
Fore
SplineSet
157 305 m 1
 67 305 l 1
 245 669 l 1
 325 669 l 1
 502 305 l 1
 415 305 l 1
 286 576 l 1
 157 305 l 1
EndSplineSet
Validated: 1
EndChar

StartChar: underscore
Encoding: 95 95 64
Width: 499
Flags: W
HStem: -125 50<0 499>
LayerCount: 2
Fore
SplineSet
499 -125 m 1
 0 -125 l 1
 0 -75 l 1
 499 -75 l 1
 499 -125 l 1
EndSplineSet
Validated: 1
EndChar

StartChar: grave
Encoding: 96 96 65
Width: 332
Flags: W
HStem: 516 181
VStem: 85 212
LayerCount: 2
Fore
SplineSet
297 516 m 1
 252 516 l 1
 119 605 l 2
 97 620 85 637 85 652 c 0
 85 677 105 697 130 697 c 0
 149 697 170 684 186 664 c 2
 297 516 l 1
EndSplineSet
Validated: 1
EndChar

StartChar: a
Encoding: 97 97 66
Width: 499
Flags: W
HStem: -15 72<54 154.817 286 363.497> 420 41<223.627 296.513>
VStem: -21 124<66.7987 212.069> 237 113<28.3078 147.821>
LayerCount: 2
Fore
SplineSet
434 127 m 1
 456 111 l 1
 398 25 352 -15 305 -15 c 0
 267 -15 237 15 237 53 c 0
 237 66 240 81 250 119 c 1
 193 23 148 -13 86 -13 c 0
 22 -13 -21 38 -21 114 c 0
 -21 270 129 461 252 461 c 0
 294 461 316 441 327 390 c 1
 344 450 l 1
 456 456 l 1
 384 220 l 2
 360 139 350 97 350 72 c 0
 350 63 354 57 362 57 c 0
 378 57 393 72 434 127 c 1
303 374 m 0
 303 407 280 420 264 420 c 0
 188 420 103 193 103 111 c 0
 103 81 122 59 146 59 c 0
 238 59 303 307 303 374 c 0
EndSplineSet
Validated: 1
EndChar

StartChar: b
Encoding: 98 98 67
Width: 499
Flags: W
HStem: -13 34<111.233 191.339> 394 67<261.02 365.5> 642 27<76 133.184> 679 20G<249 278.451>
VStem: -15 123<22.8663 126.549> 319 125<224.044 386.761>
DStem2: -28.3039 -13 87.9495 -13 0.263873 0.964557<428.786 646.377>
LayerCount: 2
Fore
SplineSet
76 642 m 1
 76 669 l 1
 166 680 214 686 284 699 c 1
 193 371 l 1
 245 438 281 461 333 461 c 0
 398 461 444 412 444 338 c 0
 444 160 287 -13 125 -13 c 0
 59 -13 -15 19 -15 47 c 0
 -15 53 -3 97 6 127 c 2
 100 456 l 2
 126 546 139 599 139 612 c 0
 139 636 125 642 76 642 c 1
141 21 m 0
 253 21 319 243 319 325 c 0
 319 371 305 394 275 394 c 0
 242 394 209 365 185 308 c 1
 132 195 108 48 108 47 c 0
 108 32 122 21 141 21 c 0
EndSplineSet
Validated: 1
EndChar

StartChar: c
Encoding: 99 99 68
Width: 443
Flags: W
HStem: -13 64<102.227 233.172> 429 32<232.652 292.54>
VStem: -4 127<75.1839 247.057> 293 100<336.792 427.165>
LayerCount: 2
Fore
SplineSet
271 429 m 0
 192 429 123 240 123 141 c 0
 123 86 152 51 196 51 c 0
 239 51 270 75 318 141 c 1
 346 123 l 1
 315 79 258 -13 148 -13 c 0
 59 -13 -4 48 -4 138 c 0
 -4 297 139 461 280 461 c 0
 346 461 393 425 393 372 c 0
 393 331 366 302 330 302 c 0
 297 302 272 324 272 354 c 0
 272 382 293 397 293 412 c 0
 293 422 283 429 271 429 c 0
EndSplineSet
Validated: 1
EndChar

StartChar: d
Encoding: 100 100 69
Width: 499
Flags: W
HStem: -12 71<67.163 160.085> 420 41<226.89 300.671> 643 26<308 363.531> 679 20G<487 511.519>
VStem: -21 124<66.168 216.823> 240 109<25.5693 139.517>
DStem2: 203.082 -13 322.014 -13 0.263873 0.964557<458.241 649.632>
LayerCount: 2
Fore
SplineSet
428 130 m 1
 450 116 l 1
 394 26 349 -12 300 -12 c 0
 262 -12 240 12 240 51 c 0
 240 66 243 81 250 119 c 1
 193 23 148 -13 85 -13 c 0
 23 -13 -21 40 -21 111 c 0
 -21 270 129 461 250 461 c 0
 280 461 299 453 324 429 c 1
 341 497 l 1
 365 582 371 606 371 615 c 0
 371 633 354 643 330 643 c 2
 308 643 l 1
 308 669 l 1
 409 678 457 686 517 699 c 1
 406 294 l 2
 371 167 349 81 349 70 c 0
 349 64 354 59 360 59 c 0
 375 59 400 86 428 130 c 1
308 371 m 0
 308 398 292 420 268 420 c 0
 188 420 103 196 103 117 c 0
 103 83 120 59 144 59 c 0
 173 59 202 83 230 133 c 0
 264 196 308 328 308 371 c 0
EndSplineSet
Validated: 1
EndChar

StartChar: e
Encoding: 101 101 70
Width: 443
Flags: W
HStem: -13 64<152.196 240.497> 429 32<243.192 302.26>
VStem: 4 131<67.7911 180.282> 306 92<311.805 428.201>
LayerCount: 2
Fore
SplineSet
316 142 m 1
 346 125 l 1
 286 26 231 -13 157 -13 c 0
 69 -13 4 50 4 133 c 0
 4 299 149 461 293 461 c 0
 354 461 398 426 398 375 c 0
 398 340 379 302 344 270 c 0
 294 224 245 202 141 182 c 1
 138 163 135 149 135 133 c 0
 135 79 157 51 201 51 c 0
 242 51 270 73 316 142 c 1
148 214 m 1
 160 218 174 223 182 226 c 0
 258 253 306 319 306 395 c 0
 306 417 297 429 278 429 c 0
 230 429 185 352 148 214 c 1
EndSplineSet
Validated: 1
EndChar

StartChar: f
Encoding: 102 102 71
Width: 332
Flags: W
HStem: -205 31<-81.9916 -35.8602> 407 43<48 111 236 319> 669 30<314.771 361.323>
VStem: -168 85<-173.815 -101.629> 362 83<593.927 668.431>
DStem2: 23 15 229 407 0.221912 0.975067<153.651 401.754 471.421 596.363>
LayerCount: 2
Fore
SplineSet
346 614 m 0
 346 634 362 648 362 656 c 0
 362 664 354 669 346 669 c 0
 311 669 278 620 253 520 c 2
 236 450 l 1
 328 450 l 1
 319 407 l 1
 229 407 l 1
 147 32 109 -205 -70 -205 c 0
 -130 -205 -168 -174 -168 -126 c 0
 -168 -97 -145 -72 -117 -72 c 0
 -92 -72 -67 -97 -67 -120 c 0
 -67 -143 -83 -150 -83 -163 c 0
 -83 -168 -76 -174 -66 -174 c 0
 -26 -174 -7 -133 23 15 c 0
 29 44 59 168 111 407 c 1
 40 407 l 1
 48 450 l 1
 122 450 l 1
 149 549 168 590 211 637 c 0
 248 677 294 699 347 699 c 0
 407 699 445 666 445 618 c 0
 445 587 425 565 395 565 c 0
 368 565 346 587 346 614 c 0
EndSplineSet
Validated: 1
EndChar

StartChar: g
Encoding: 103 103 72
Width: 499
Flags: W
HStem: -204 36<71.5647 233.68> 152 33<160.999 233.217> 374 55<412 478> 431 30<217.278 285.229>
VStem: -53 88<-139.037 -43.6138> 19 103<57.5 133> 35 116<212.754 346.229> 267 108<-118.133 -23> 300 117<270.558 373.398>
LayerCount: 2
Fore
SplineSet
-53 -97 m 0xf9
 -53 -14 64 3 81 7 c 1
 37 22 19 42 19 73 c 0xf4
 19 110 34 125 116 170 c 1
 62 193 35 229 35 280 c 0xf2
 35 381 133 461 256 461 c 0
 303 461 334 453 368 429 c 1
 478 429 l 1
 478 374 l 1
 412 374 l 1
 416 357 417 347 417 331 c 0
 417 202 279 152 201 152 c 0
 179 152 165 161 149 161 c 0
 138 161 122 141 122 125 c 0xf480
 122 110 141 97 173 86 c 1
 226 72 l 1
 335 41 375 7 375 -53 c 0
 375 -141 275 -204 136 -204 c 0
 21 -204 -53 -163 -53 -97 c 0xf9
115 -6 m 0
 105 -6 35 -40 35 -91 c 0
 35 -138 81 -168 146 -168 c 0
 223 -168 267 -144 267 -100 c 0xf9
 267 -75 253 -56 226 -42 c 1
 214 -37 125 -6 115 -6 c 0
193 185 m 0
 262 185 300 309 300 372 c 0
 300 406 281 431 255 431 c 0
 181 431 151 287 151 243 c 0xf280
 151 205 166 185 193 185 c 0
EndSplineSet
Validated: 1
EndChar

StartChar: h
Encoding: 104 104 73
Width: 555
Flags: W
HStem: -9 68<311 402.344> 0 21G<-13 134> 390 71<325.022 421.5> 642 27<86 107.763> 679 20G<255.5 288.856>
VStem: 265 119<26.1938 142.336> 353 122<293.837 389.59>
DStem2: -15.4621 -9 105.538 -9 0.263873 0.964557<41.2593 307.959 335.075 639.126>
LayerCount: 2
Fore
SplineSet
265 48 m 0xbc
 265 139 353 329 353 369 c 0
 353 379 343 390 331 390 c 0
 305 390 272 360 230 300 c 0
 180 229 160 179 108 0 c 1
 -13 0 l 1
 141 567 l 2
 146 586 149 601 149 609 c 0
 149 631 135 643 108 643 c 0
 103 643 94 643 86 642 c 1
 86 669 l 1
 167 677 217 684 294 699 c 1
 187 283 l 1
 260 388 314 461 398 461 c 0
 445 461 475 434 475 387 c 0x7a
 475 368 464 327 445 265 c 1
 387 86 l 2
 384 78 384 78 384 75 c 0
 384 67 394 59 401 59 c 0
 415 59 434 81 476 142 c 1
 498 127 l 1
 432 23 393 -9 331 -9 c 0
 291 -9 265 15 265 48 c 0xbc
EndSplineSet
Validated: 1
EndChar

StartChar: i
Encoding: 105 105 74
Width: 276
Flags: W
HStem: -9 71<49.5 139.37> 407 27<21 74.7084> 441 20G<195.5 217.551> 549 137<146.5 242.75>
VStem: 1 122<30.472 148.875> 127 137<569.5 665>
DStem2: -21.1111 -9 94.7946 -9 0.263873 0.964557<120.306 399.904>
LayerCount: 2
Fore
SplineSet
215 141 m 1
 237 127 l 1
 168 22 130 -9 70 -9 c 0
 29 -9 1 18 1 54 c 0
 1 67 7 95 15 123 c 2
 73 338 l 2
 78 354 81 371 81 378 c 0
 81 398 64 407 21 407 c 1
 21 434 l 1
 100 439 168 450 223 461 c 1
 132 127 l 2
 129 116 123 82 123 76 c 0
 123 67 130 62 138 62 c 0
 152 62 176 82 202 122 c 1
 215 141 l 1
193 686 m 0
 231 686 264 653 264 617 c 0
 264 580 231 549 193 549 c 0
 157 549 127 580 127 620 c 0
 127 653 160 686 193 686 c 0
EndSplineSet
Validated: 1
EndChar

StartChar: j
Encoding: 106 106 75
Width: 276
Flags: W
HStem: -207 31<-103.957 -55.0426> 407 27<31 87.1006> 441 20G<209.5 233.795> 549 137<163 258.125>
VStem: -189 84<-175.263 -107.003> 144 134<567.979 666.182>
DStem2: -56.3182 -207 62.0791 -207 0.263873 0.964557<109.746 600.965>
LayerCount: 2
Fore
SplineSet
-91 -126 m 0
 -91 -152 -105 -150 -105 -164 c 0
 -105 -168 -92 -176 -82 -176 c 0
 -54 -176 -37 -145 -12 -45 c 1
 81 311 l 2
 88 338 92 365 92 376 c 0
 92 401 81 407 31 407 c 1
 31 434 l 1
 144 444 180 450 239 461 c 1
 125 23 l 2
 85 -130 16 -207 -83 -207 c 0
 -146 -207 -189 -176 -189 -130 c 0
 -189 -101 -166 -78 -141 -78 c 0
 -113 -78 -91 -100 -91 -126 c 0
209 686 m 0
 248 686 278 653 278 617 c 0
 278 580 248 549 209 549 c 0
 173 549 144 580 144 620 c 0
 144 653 174 686 209 686 c 0
EndSplineSet
Validated: 1
EndChar

StartChar: k
Encoding: 107 107 76
Width: 499
Flags: W
HStem: -7 70<280 371.128> 0 21G<-23 105.241> 423 27<275 325.11 432.799 483> 642 27<78 99.7627> 679 20G<247.5 280.652>
DStem2: -24.915 -7 98.085 -7 0.263873 0.964557<39.7136 233.016 286.867 637.581>
LayerCount: 2
Fore
SplineSet
149 187 m 1xb8
 100 0 l 1
 -23 0 l 1x78
 133 567 l 2
 138 586 141 601 141 609 c 0
 141 631 127 643 100 643 c 0
 95 643 86 643 78 642 c 1
 78 669 l 1
 157 677 209 686 286 699 c 1
 163 239 l 1
 289 338 327 375 327 401 c 0
 327 417 315 422 275 423 c 1
 275 450 l 1
 483 450 l 1
 483 423 l 1
 437 417 416 406 349 349 c 1
 286 293 l 1
 324 98 335 63 363 63 c 0
 382 63 398 81 425 127 c 1
 447 116 l 1
 397 25 360 -7 311 -7 c 0
 249 -7 220 45 187 215 c 1
 149 187 l 1xb8
EndSplineSet
Validated: 1
EndChar

StartChar: l
Encoding: 108 108 77
Width: 276
Flags: W
HStem: -9 71<49 139.209> 642 27<81 102.765> 679 20G<247 284.455>
VStem: 1 122<28.2922 158.164>
DStem2: -22.6381 -9 94.3897 -9 0.263873 0.964557<121.023 645.231>
LayerCount: 2
Fore
SplineSet
215 141 m 1
 237 127 l 1
 168 22 130 -9 69 -9 c 0
 29 -9 1 15 1 51 c 0
 1 75 15 133 37 209 c 2
 110 473 l 1
 130 541 144 602 144 615 c 0
 144 633 129 643 103 643 c 0
 98 643 92 643 81 642 c 1
 81 669 l 1
 157 677 204 683 290 699 c 1
 145 176 l 2
 130 125 123 89 123 76 c 0
 123 67 130 62 138 62 c 0
 155 62 176 82 215 141 c 1
EndSplineSet
Validated: 1
EndChar

StartChar: m
Encoding: 109 109 78
Width: 777
Flags: W
HStem: -9 68<540.5 632.731> 0 21G<-15 133.5 227 376.5> 390 71<318.426 383.948 554.256 626.996> 407 27<34 81.5441>
VStem: 337 119<303.782 420.341> 495 120<28.6908 152.548> 583 122<294.499 411>
DStem2: -17.4621 -9 104.538 -9 0.263873 0.964557<41.5232 403.401> 532 207 636 151 0.320498 0.947249<-99.8927 168.583>
LayerCount: 2
Fore
SplineSet
631 59 m 0xac
 655 59 693 126 700 135 c 1
 722 122 l 1
 664 23 624 -9 562 -9 c 0
 519 -9 495 13 495 54 c 0xac
 495 82 508 144 532 207 c 1
 576 338 l 2
 580 352 583 362 583 368 c 0
 583 379 573 390 560 390 c 0
 530 390 491 347 448 272 c 0
 412 209 406 192 347 0 c 1
 227 0 l 1
 291 207 l 1
 325 309 337 352 337 366 c 0
 337 379 328 390 318 390 c 0x6a
 305 390 275 368 253 343 c 1
 198 275 160 190 107 0 c 1
 -15 0 l 1
 53 237 l 2
 81 333 88 368 88 381 c 0
 88 398 75 407 42 407 c 2
 34 407 l 1
 34 434 l 1x5a
 149 442 170 445 234 461 c 1
 170 262 l 1
 237 367 301 461 388 461 c 0
 431 461 456 437 456 394 c 0
 456 366 448 340 429 290 c 1
 513 422 560 461 627 461 c 0
 671 461 705 431 705 391 c 0x2a
 705 365 696 327 681 284 c 2
 636 151 l 1
 615 83 615 83 615 73 c 0
 615 66 623 59 631 59 c 0xac
EndSplineSet
Validated: 1
EndChar

StartChar: n
Encoding: 110 110 79
Width: 555
Flags: W
HStem: -9 68<312.5 402.492> 0 21G<-6 139.5> 390 71<326.065 424.5> 407 27<42 94.1719>
VStem: 267 120<27.3882 152.376> 354 121<298.53 389.554>
DStem2: -8.46212 -9 113.538 -9 0.263873 0.964557<41.5232 404.445> 294 182 412 163 0.312813 0.949815<-71.1335 196.246>
LayerCount: 2
Fore
SplineSet
179 264 m 1x24
 262 387 312 461 401 461 c 0
 448 461 475 435 475 387 c 0x24
 475 363 464 318 448 272 c 2
 412 163 l 2
 394 108 387 86 387 76 c 0
 387 66 393 59 401 59 c 0
 417 59 431 73 472 135 c 1
 494 122 l 1
 435 25 393 -9 334 -9 c 0
 291 -9 267 15 267 51 c 0xa8
 267 78 278 133 294 182 c 2
 349 349 l 2
 352 357 354 366 354 369 c 0
 354 379 341 390 330 390 c 0xa4
 311 390 280 368 261 341 c 1
 198 261 163 173 116 0 c 1
 -6 0 l 1
 4 37 12 62 23 108 c 1
 50 204 l 2
 83 324 97 371 97 382 c 0
 97 401 83 406 42 407 c 1
 42 434 l 1x54
 98 437 179 447 242 461 c 1
 179 264 l 1x24
EndSplineSet
Validated: 1
EndChar

StartChar: o
Encoding: 111 111 80
Width: 499
Flags: W
HStem: -13 29<131.733 203.479> 434 27<236.088 306.126>
VStem: -3 119<59.025 220.475> 322 119<234.474 390.163>
LayerCount: 2
Fore
SplineSet
284 461 m 0
 375 461 441 398 441 311 c 0
 441 142 305 -13 157 -13 c 0
 64 -13 -3 50 -3 135 c 0
 -3 303 138 461 284 461 c 0
166 16 m 0
 268 16 322 299 322 375 c 0
 322 412 305 434 275 434 c 0
 162 434 116 147 116 78 c 0
 116 40 135 16 166 16 c 0
EndSplineSet
Validated: 1
EndChar

StartChar: p
Encoding: 112 112 81
Width: 499
Flags: W
HStem: -205 26<-120 -72.4113 73.3557 129> -13 35<119.385 195.407> 391 70<265.423 371> 407 27<23 75.063>
VStem: 321 124<230.111 385.677>
DStem2: -72.6305 -205 43.0126 -205 0.263873 0.964557<95.1707 252.232>
LayerCount: 2
Fore
SplineSet
23 407 m 1xd8
 23 434 l 1xd8
 75 439 114 445 215 461 c 1
 179 347 l 1
 237 431 281 461 338 461 c 0xe8
 404 461 445 415 445 341 c 0
 445 168 305 -13 168 -13 c 0
 148 -13 136 -9 101 9 c 1
 98 -4 l 1
 98 -4 64 -119 64 -145 c 0
 64 -168 81 -177 129 -179 c 1
 129 -205 l 1
 -120 -205 l 1
 -120 -179 l 1
 -114 -179 l 2
 -73 -179 -62 -166 -45 -104 c 2
 56 284 l 1
 67 333 78 374 78 382 c 0
 78 401 67 404 23 407 c 1xd8
321 342 m 0
 321 371 305 391 280 391 c 0xe8
 254 391 222 367 198 330 c 0
 164 276 113 73 113 59 c 0
 113 38 130 22 152 22 c 0
 254 22 321 276 321 342 c 0
EndSplineSet
Validated: 1
EndChar

StartChar: q
Encoding: 113 113 82
Width: 499
Flags: W
HStem: -205 26<104 163.337 311.561 371> -13 72<73 179.403> 419 42<244.486 319.582> 430 20G<357 472>
VStem: 1 125<62.9796 222.709>
LayerCount: 2
Fore
SplineSet
472 450 m 1xd8
 347 -3 306 -121 306 -149 c 0
 306 -170 321 -179 357 -179 c 2
 371 -179 l 1
 371 -205 l 1
 104 -205 l 1
 104 -179 l 1
 166 -174 177 -167 193 -116 c 2
 256 98 l 1
 205 16 166 -13 105 -13 c 0
 41 -13 1 37 1 117 c 0
 1 267 145 461 275 461 c 0xe8
 335 461 340 423 347 390 c 1
 362 450 l 1
 472 450 l 1xd8
325 371 m 0
 325 408 303 419 289 419 c 0
 210 419 126 206 126 116 c 0
 126 78 139 59 166 59 c 0
 260 59 325 309 325 371 c 0
EndSplineSet
Validated: 1
EndChar

StartChar: r
Encoding: 114 114 83
Width: 388
Flags: W
HStem: 0 21G<-21 118> 360 101<263 355.237> 407 27<26 76.1929>
LayerCount: 2
Fore
SplineSet
330 324 m 0xc0
 294 324 285 360 270 360 c 0xc0
 256 360 234 335 209 291 c 1
 156 203 136 101 100 0 c 1
 -21 0 l 1
 47 229 81 357 81 382 c 0
 81 401 72 404 26 407 c 1
 26 434 l 1xa0
 148 444 167 447 227 461 c 1
 161 253 l 1
 240 412 281 461 333 461 c 0
 366 461 390 437 390 395 c 0
 390 354 365 324 330 324 c 0xc0
EndSplineSet
Validated: 1
EndChar

StartChar: s
Encoding: 115 115 84
Width: 388
Flags: W
HStem: -13 31<80.9317 165.47> 429 32<155.489 239.246>
VStem: 3 26<99.5 149> 47 95<324.901 409.009> 183 95<49.0502 128.794> 283 28<311 356.682>
LayerCount: 2
Fore
SplineSet
182 461 m 0
 230 461 252 439 275 439 c 0
 290 439 293 442 305 461 c 1
 333 461 l 1
 311 308 l 1
 283 311 l 1
 267 393 242 429 195 429 c 0
 163 429 142 409 142 376 c 0
 142 314 278 223 278 119 c 0
 278 44 215 -13 130 -13 c 0
 88 -13 56 7 37 7 c 0
 23 7 12 -1 7 -13 c 1
 -19 -13 l 1
 3 152 l 1
 29 149 l 1
 34 118 48 18 126 18 c 0
 158 18 183 41 183 70 c 0
 183 97 166 130 127 174 c 1
 62 253 47 283 47 335 c 0
 47 412 100 461 182 461 c 0
EndSplineSet
Validated: 1
EndChar

StartChar: t
Encoding: 116 116 85
Width: 276
Flags: W
HStem: -9 71<38.5 128.635> 407 43<209 281> 407 35<29 67.4786> 575 20G<186 248>
VStem: -12 123<32.0929 156.879> 212 36<569.526 595>
DStem2: -35.4217 -9 84.1953 -9 0.263873 0.964557<184.146 431.976>
LayerCount: 2
Fore
SplineSet
198 407 m 1xbc
 160 261 111 110 111 76 c 0
 111 69 119 62 127 62 c 0
 144 62 168 88 204 141 c 1
 226 127 l 1
 160 23 119 -9 59 -9 c 0
 18 -9 -12 18 -12 56 c 0
 -12 73 -1 119 13 168 c 2
 81 407 l 1
 29 407 l 1
 29 442 l 1xbc
 108 472 160 513 212 595 c 1
 248 595 l 1
 209 450 l 1
 281 450 l 1
 281 407 l 1xdc
 198 407 l 1xbc
EndSplineSet
Validated: 1
EndChar

StartChar: u
Encoding: 117 117 86
Width: 555
Flags: W
HStem: -9 72<87.0466 163.632 336.002 396.206> 407 27<34 84.7919> 441 9G<232.5 236.876 342 488>
VStem: 15 118<39.5026 170.688> 267 118<26.0982 162.479>
DStem2: -12.7896 -9 104.408 -9 0.263873 0.964557<132.706 400.375> 243.493 -9 357.748 -9 0.263873 0.964557<119.773 176.247 202.844 476.377>
LayerCount: 2
Fore
SplineSet
472 133 m 1
 492 120 l 1
 439 31 391 -9 331 -9 c 0
 287 -9 267 12 267 51 c 0
 267 79 272 105 290 161 c 1
 187 18 157 -9 89 -9 c 0
 41 -9 15 16 15 64 c 0
 15 89 22 125 37 173 c 2
 76 306 l 2
 85 335 89 363 89 379 c 0
 89 398 81 404 34 407 c 1
 34 434 l 1
 149 441 222 461 243 461 c 1
 149 154 l 2
 136 111 133 103 133 88 c 0
 133 70 141 63 155 63 c 0
 174 63 196 81 229 119 c 1
 286 190 313 256 371 450 c 1
 488 450 l 1
 410 182 l 1
 385 86 385 86 385 76 c 0
 385 67 391 59 398 59 c 0
 416 59 437 81 472 133 c 1
EndSplineSet
Validated: 1
EndChar

StartChar: v
Encoding: 118 118 87
Width: 443
Flags: W
HStem: -13 21G<85 143.5> 407 27<16 60.2591> 441 20G<146.5 181.5 325.5 355.5>
VStem: 89 113<127 376.538> 328 73<310.198 413>
LayerCount: 2
Fore
SplineSet
401 395 m 0
 401 256 176 49 111 -13 c 1
 85 -13 l 1
 89 123 l 1
 89 164 l 2
 89 271 79 359 62 391 c 0
 56 404 47 407 16 407 c 1
 16 434 l 1
 100 445 122 450 171 461 c 1
 192 382 198 324 202 127 c 1
 300 240 328 281 328 316 c 0
 328 347 284 362 284 404 c 0
 284 434 311 461 340 461 c 0
 371 461 401 431 401 395 c 0
EndSplineSet
Validated: 1
EndChar

StartChar: w
Encoding: 119 119 88
Width: 666
Flags: W
HStem: -13 21G<95 135.256 313.316 434> 407 27<16 61.0482> 441 20G<150.5 182 348.613 388.934 538.5 569>
VStem: 95 109<187 366.116> 538 76<296 417>
DStem2: 419 130 291 272 0.0962281 -0.995359<-153.658 0>
LayerCount: 2
Fore
SplineSet
538 311 m 0
 538 341 497 366 497 401 c 0
 497 434 523 461 554 461 c 0
 584 461 614 434 614 400 c 0
 614 316 527 183 341 -13 c 1
 315 -13 l 1
 291 272 l 1
 284 255 187 84 179 73 c 2
 122 -13 l 1
 95 -13 l 1
 97 32 l 1
 97 72 l 1
 95 149 l 2
 92 289 78 381 59 398 c 0
 50 406 41 407 16 407 c 1
 16 434 l 1
 100 448 130 453 171 461 c 1
 193 376 201 312 204 187 c 1
 360 461 l 1
 387 461 l 1
 419 130 l 1
 508 234 538 281 538 311 c 0
EndSplineSet
Validated: 1
EndChar

StartChar: x
Encoding: 120 120 89
Width: 499
Flags: W
HStem: -13 94<-11.3018 79.1868> -13 77<236 342.5> 368 93<351.28 433.132> 412 26<41 75.581>
DStem2: 163 192 149 103 0.562578 0.826744<-143.663 -35.7114 159.762 249.743>
LayerCount: 2
Fore
SplineSet
413 349 m 0x20
 384 349 375 368 356 368 c 0
 321 368 285 307 264 272 c 1
 296 117 l 1
 305 79 313 64 333 64 c 0
 352 64 360 73 400 123 c 1
 420 108 l 1
 360 21 318 -13 270 -13 c 0x60
 202 -13 184 81 173 142 c 1
 149 103 l 2
 91 7 67 -13 18 -13 c 0
 -21 -13 -45 12 -45 45 c 0
 -45 78 -22 103 9 103 c 0
 36 103 52 81 70 81 c 0
 86 81 98 89 119 122 c 2
 163 192 l 1
 132 346 l 2
 122 395 108 413 76 413 c 0
 67 413 62 413 41 412 c 1
 41 438 l 1x90
 208 461 l 1
 227 434 234 409 253 324 c 1
 333 435 365 461 412 461 c 0
 441 461 469 434 469 400 c 0
 469 372 442 349 413 349 c 0x20
EndSplineSet
Validated: 1
EndChar

StartChar: y
Encoding: 121 121 90
Width: 443
Flags: W
HStem: -205 80<-56.0436 65> 412 26<15 50.9681> 441 20G<139.5 172.5 315 346.5>
VStem: 328 65<299.249 415>
LayerCount: 2
Fore
SplineSet
50 -125 m 0
 80 -125 142 -63 142 -4 c 0
 142 26 125 125 92 284 c 1
 67 410 44 412 15 412 c 1
 15 438 l 1
 79 444 116 450 163 461 c 1
 182 415 207 303 229 185 c 1
 242 110 l 1
 311 243 328 286 328 315 c 0
 328 353 272 349 272 404 c 0
 272 435 300 461 330 461 c 0
 363 461 393 432 393 398 c 0
 393 297 272 60 144 -100 c 1
 88 -166 23 -205 -32 -205 c 0
 -67 -205 -94 -179 -94 -145 c 0
 -94 -116 -70 -89 -44 -89 c 0
 -3 -89 23 -125 50 -125 c 0
EndSplineSet
Validated: 1
EndChar

StartChar: z
Encoding: 122 122 91
Width: 388
Flags: W
HStem: -78 30<214.268 263.085> 353 97<61.1973 249>
VStem: 13 28<293.25 319.395> 264 82<-42.1286 33.4096>
DStem2: -42 -1 86 104 0.635019 0.772497<162.395 458.254>
LayerCount: 2
Fore
SplineSet
34 4 m 0
 13 4 2 -11 -18 -23 c 1
 -42 -1 l 1
 249 353 l 1
 104 353 l 2
 75 353 59 338 41 291 c 1
 13 294 l 1
 56 450 l 1
 368 450 l 1
 368 439 l 1
 86 104 l 1
 138 82 163 59 193 -1 c 0
 211 -37 223 -48 242 -48 c 0
 253 -48 264 -42 264 -34 c 0
 264 -24 243 -7 243 13 c 0
 243 41 267 64 293 64 c 0
 321 64 346 41 346 13 c 0
 346 -38 299 -78 237 -78 c 0
 143 -78 90 4 34 4 c 0
EndSplineSet
Validated: 1
EndChar

StartChar: braceleft
Encoding: 123 123 92
Width: 347
Flags: W
HStem: -187 13<185.213 209> 674 12<408.671 434>
VStem: 28 104<-151.814 8.41075> 89 101<79.039 222.253>
DStem2: -9.01015 -187 95.1599 -187 0.263873 0.964557<517.489 859.53>
LayerCount: 2
Fore
SplineSet
28 -97 m 0xe0
 28 -16 89 116 89 179 c 0
 89 214 67 233 4 249 c 1
 94 268 122 293 142 365 c 1
 187 543 l 1
 220 653 277 686 437 686 c 1
 434 674 l 1
 352 659 315 625 294 549 c 1
 250 379 l 2
 227 294 196 268 100 249 c 1
 174 229 190 215 190 173 c 0xd0
 190 99 132 -30 132 -97 c 0
 132 -144 154 -164 212 -174 c 1
 209 -187 l 1
 100 -185 28 -175 28 -97 c 0xe0
EndSplineSet
Validated: 1
EndChar

StartChar: bar
Encoding: 124 124 93
Width: 219
Flags: W
HStem: -18 21G<66 154> 666 20G<66 154>
VStem: 66 88<-18 686>
LayerCount: 2
Fore
SplineSet
66 -18 m 1
 66 686 l 1
 154 686 l 1
 154 -18 l 1
 66 -18 l 1
EndSplineSet
Validated: 1
EndChar

StartChar: braceright
Encoding: 125 125 94
Width: 347
Flags: W
HStem: -187 13<-126 -100.518> 674 12<97 117.827>
VStem: 116 102<277.111 419.979> 174 104<486.425 651.204>
DStem2: -25.2054 -187 80.1532 -187 0.263873 0.964557<79.0828 416.98>
LayerCount: 2
Fore
SplineSet
278 598 m 0xd0
 278 508 218 380 218 319 c 0
 218 286 240 267 302 250 c 1
 212 230 185 207 166 133 c 2
 119 -45 l 1
 88 -154 29 -187 -129 -187 c 1
 -126 -174 l 1
 -45 -160 -7 -127 12 -51 c 2
 57 120 l 1
 81 205 110 231 208 250 c 1
 133 270 116 284 116 327 c 0xe0
 116 389 174 524 174 598 c 0
 174 642 151 664 94 674 c 1
 97 686 l 1
 190 684 229 677 253 655 c 1
 271 640 278 621 278 598 c 0xd0
EndSplineSet
Validated: 1
EndChar

StartChar: asciitilde
Encoding: 126 126 95
Width: 569
Flags: W
HStem: 174 90<321.513 441.589> 243 88<124.086 262.322>
LayerCount: 2
Fore
SplineSet
174 331 m 0x40
 258 331 337 264 393 264 c 0
 416 264 437 275 461 308 c 1
 516 261 l 1
 470 196 439 174 393 174 c 0x80
 312 174 266 243 176 243 c 0
 146 243 130 233 107 201 c 1
 54 248 l 1
 86 305 125 331 174 331 c 0x40
EndSplineSet
Validated: 1
EndChar

StartChar: uni0E10.descless
Encoding: 63232 63232 96
Width: 484
Flags: W
HStem: -5 50<274.673 321.43> 315 43<165.126 246.413> 489 76<403.566 533.869> 528 70<261.359 384.066>
VStem: 113 43<219.273 306.743> 183 91<45.1633 99.1698> 256 74<217.724 306.4> 399 100<273.234 372.076>
DStem2: 215 478 139 445 0.957187 -0.289472<0 212.445> 303.388 -5 400.634 -5 0.263873 0.964557<59.2269 369.349>
LayerCount: 2
Fore
SplineSet
588 585 m 0xed
 588 572 548 489 467 489 c 0xed
 408 489 348 528 295 528 c 0
 265 528 238 516 215 478 c 1
 454 407 l 2
 465 403 499 397 499 359 c 0
 499 352 498 344 495 335 c 2
 431 106 l 2
 411 34 360 -5 278 -5 c 0
 221 -5 183 25 183 75 c 0xdd
 183 85 184 95 187 106 c 2
 204 166 l 1
 196 167 189 166 181 169 c 0
 142 182 113 212 113 269 c 0
 113 316 155 358 211 358 c 0
 285 358 330 324 330 278 c 0xdb
 330 272 329 265 327 258 c 2
 276 75 l 2
 275 71 274 67 274 63 c 0
 274 53 279 45 291 45 c 0
 310 45 321 61 325 74 c 2
 396 333 l 2
 398 341 399 347 399 352 c 0
 399 363 395 368 387 370 c 2
 139 445 l 1
 171 498 234 598 346 598 c 0xdd
 389 598 452 565 505 565 c 0
 557 565 559 594 580 594 c 0
 585 594 588 592 588 585 c 0xed
207 210 m 0
 240 210 256 236 256 262 c 0xcb
 256 288 239 315 206 315 c 0
 172 315 156 289 156 263 c 0
 156 237 173 210 207 210 c 0
EndSplineSet
Validated: 1
EndChar

StartChar: uni0E34.left
Encoding: 63233 63233 97
Width: 0
Flags: W
HStem: 726 45<-388.434 -214.006> 839 55<-314.058 -154.074>
LayerCount: 2
Back
SplineSet
-46 636 m 0
 -46 636 l 0
 -159 694 -248 726 -350 726 c 0
 -388 726 -427 722 -470 713 c 1
 -408 833 -295 894 -200 894 c 0
 -87 894 2 808 -46 636 c 0
-83 708 m 1
 -88 788 -148 839 -222 839 c 0
 -270 839 -325 818 -374 768 c 1
 -355 770 -337 771 -318 771 c 0
 -236 771 -151 750 -83 708 c 1
EndSplineSet
Fore
Refer: 180 3636 N 1 0 0 1 -156 0 2
Validated: 1
EndChar

StartChar: uni0E35.left
Encoding: 63234 63234 98
Width: 0
Flags: W
HStem: 726 45<-388.434 -214.006> 839 55<-314.058 -152.702>
LayerCount: 2
Back
SplineSet
-46 636 m 1
 -159 694 -247 726 -350 726 c 0
 -387 726 -427 722 -470 713 c 1
 -410 829 -306 882 -215 882 c 0
 -174 882 -134 870 -104 849 c 1
 -76 948 l 1
 17 948 l 1
 -38 751 l 1
 -31 739 -31 690 -46 636 c 1
-85 710 m 1
 -88 781 -154 827 -231 827 c 0
 -279 827 -331 809 -374 768 c 1
 -355 770 -335 772 -315 772 c 0
 -235 772 -153 752 -85 710 c 1
EndSplineSet
Fore
Refer: 181 3637 N 1 0 0 1 -156 0 2
Validated: 1
EndChar

StartChar: uni0E36.left
Encoding: 63235 63235 99
Width: 0
Flags: W
HStem: 726 45<-388.018 -213.562> 839 55<-313.856 -152.783> 906 48<-94.7669 -16.1015>
VStem: -8 47<815.068 898.217>
LayerCount: 2
Back
SplineSet
-46 636 m 1
 -159 694 -247 726 -350 726 c 0
 -387 726 -427 722 -470 713 c 1
 -408 832 -303 881 -218 881 c 0
 -196 881 -175 878 -157 872 c 1
 -154 909 -125 953 -66 953 c 0
 -12 953 20 907 19 863 c 0
 20 828 -1 794 -47 786 c 1
 -27 764 -31 688 -46 636 c 1
-68 819 m 0
 -68 819 l 0
 -35 819 -18 843 -19 866 c 0
 -18 890 -35 914 -68 914 c 0
 -101 914 -117 890 -118 866 c 0
 -117 843 -101 819 -68 819 c 0
-85 710 m 1
 -88 781 -154 827 -231 827 c 0
 -279 827 -331 809 -374 768 c 1
 -355 770 -335 772 -315 772 c 0
 -235 772 -153 752 -85 710 c 1
EndSplineSet
Fore
Refer: 182 3638 N 1 0 0 1 -156 0 2
Validated: 1
EndChar

StartChar: uni0E37.left
Encoding: 63236 63236 100
Width: 0
Flags: W
HStem: 726 45<-388.434 -214.006> 839 55<-313.751 -207>
DStem2: -146.27 636 -70.2812 636 0.263873 0.964557<220.827 324.935>
LayerCount: 2
Back
SplineSet
-85 710 m 1
 -88 781 -155 827 -232 827 c 0
 -279 827 -331 809 -374 768 c 1
 -354 770 -335 772 -315 772 c 0
 -235 772 -152 752 -85 710 c 1
-40 743 m 1
 -32 733 -32 684 -46 636 c 1
 -159 694 -248 726 -350 726 c 0
 -388 726 -427 722 -470 713 c 1
 -409 831 -301 883 -209 882 c 1
 -190 948 l 1
 -120 948 l 1
 -141 869 l 1
 -129 866 -100 851 -89 839 c 1
 -57 948 l 1
 15 948 l 1
 -40 743 l 1
EndSplineSet
Fore
Refer: 183 3639 N 1 0 0 1 -156 0 2
Validated: 1
EndChar

StartChar: ellipsis
Encoding: 8230 8230 101
Width: 951
Flags: W
HStem: -14 140<142.384 207.997 458.94 525.61 776.418 842.191>
VStem: 106 138<21.2133 89.9639> 423 139<22.4324 90.3936> 741 137<21.2133 90.7867>
LayerCount: 2
Fore
SplineSet
878 74 m 0
 878 32 834 -14 789 -14 c 0
 759 -14 741 9 741 38 c 0
 741 83 789 126 828 126 c 0
 857 126 878 103 878 74 c 0
562 74 m 0
 562 30 513 -14 472 -14 c 0
 442 -14 423 9 423 38 c 0
 423 86 476 126 511 126 c 0
 541 126 562 103 562 74 c 0
244 74 m 0
 244 32 200 -14 154 -14 c 0
 125 -14 106 9 106 38 c 0
 106 85 158 126 193 126 c 0
 223 126 244 103 244 74 c 0
EndSplineSet
Validated: 1
EndChar

StartChar: uni0E48.low_left
Encoding: 63237 63237 102
Width: 0
Flags: W
HStem: 688 238<-83 -56>
VStem: -149 159
DStem2: -149 688 -56 688 0.263873 0.964557<24.5402 246.98>
LayerCount: 2
Back
SplineSet
0 926 m 1
 -66 688 l 1
 -159 688 l 5
 -93 926 l 1
 0 926 l 1
EndSplineSet
Fore
Refer: 107 63242 N 1 0 0 1 -156 0 2
Validated: 1
EndChar

StartChar: uni0E49.low_left
Encoding: 63238 63238 103
Width: 0
Flags: W
HStem: 673 150<-364 -279.429> 677 50<-399 -349.494> 925 53<-328.772 -249.384>
VStem: -388 51<830.144 917.412> -241 56<831.723 916.358> -20 103<926.222 972>
LayerCount: 2
Back
SplineSet
43 940 m 1
 43 940 l 0
 -80 627 -360 665 -409 670 c 1
 -398 710 l 1
 -352 716 -329 736 -315 757 c 1
 -314 760 l 1
 -314 760 -324 762 -339 768 c 0
 -369 781 -387 814 -387 849 c 0
 -387 894 -357 940 -289 940 c 0
 -207 940 -186 847 -211 808 c 0
 -259 736 -278 725 -278 725 c 1
 -279 722 l 1
 -279 722 -107 737 -54 940 c 1
 43 940 l 1
-295 800 m 0
 -266 800 -252 823 -252 845 c 0
 -252 869 -267 892 -296 892 c 0
 -325 892 -339 869 -339 847 c 0
 -339 823 -324 800 -295 800 c 0
EndSplineSet
Fore
Refer: 108 63243 N 1 0 0 1 -241 0 2
Validated: 1
EndChar

StartChar: uni0E4A.low_left
Encoding: 63239 63239 104
Width: 0
Flags: W
HStem: 671 40<-348.864 -282.353> 794 39<-346.489 -283.148>
VStem: -416 61<715.646 823.235> -277 41<715.261 789.601> -125 70<793.578 892.34> 11 87<891.738 954>
LayerCount: 2
Back
SplineSet
28 917 m 17
 3 790 -105 677 -238 677 c 1
 -228 713 l 1
 -191 731 -170 763 -161 793 c 0
 -152 827 -159 858 -178 866 c 1
 -240 828 l 1
 -289 869 l 1
 -321 863 -340 826 -343 814 c 1
 -341 812 l 1
 -341 812 -333 816 -314 816 c 0
 -275 816 -248 788 -249 748 c 0
 -249 704 -282 676 -321 676 c 0
 -383 676 -417 734 -397 806 c 0
 -385 851 -330 919 -269 923 c 1
 -228 874 l 1
 -159 923 l 1
 -100 904 -90 858 -102 814 c 0
 -109 789 -124 764 -140 746 c 1
 -137 745 l 1
 -90 771 -46 833 -42 917 c 1
 28 917 l 17
-318 708 m 0
 -293 708 -280 727 -281 746 c 0
 -281 766 -293 785 -318 785 c 0
 -342 785 -354 766 -354 746 c 0
 -354 727 -342 708 -318 708 c 0
EndSplineSet
Fore
Refer: 109 63244 N 1 0 0 1 -186 0 2
Validated: 1
EndChar

StartChar: uni0E4B.low_left
Encoding: 63240 63240 105
Width: 0
Flags: W
HStem: 677 21<-231 -140.505> 770 81<-283 -208 -96 -22>
VStem: -305 305
DStem2: -231 677 -146 677 0.263873 0.964557<22.4292 93.8438 204.42 273.551>
LayerCount: 2
Back
SplineSet
-26 774 m 1
 -117 773 l 1
 -141 691 l 1
 -210 691 l 1
 -190 773 l 1
 -279 774 l 1
 -259 848 l 1
 -169 849 l 1
 -147 931 l 1
 -72 931 l 1
 -96 849 l 1
 -6 848 l 1
 -26 774 l 1
EndSplineSet
Fore
Refer: 110 63245 N 1 0 0 1 -241 0 2
Validated: 1
EndChar

StartChar: uni0E4C.low_left
Encoding: 63241 63241 106
Width: 0
Flags: W
HStem: 671 48<-171.522 -99.0879>
VStem: -226 49<723.76 803.651> -92 49<724.924 803.928>
LayerCount: 2
Back
SplineSet
38 954 m 17
 -14 857 -131 834 -162 826 c 1
 -163 823 l 1
 -144 816 -123 803 -123 760 c 0
 -123 715 -158 679 -210 679 c 0
 -260 679 -290 727 -290 764 c 0
 -290 815 -234 859 -142 876 c 0
 -96 885 -56 919 -31 975 c 1
 38 954 l 17
-203 722 m 0
 -178 722 -165 742 -165 763 c 0
 -166 784 -178 805 -204 805 c 0
 -231 805 -244 785 -244 764 c 0
 -244 743 -230 722 -203 722 c 0
EndSplineSet
Fore
Refer: 111 63246 N 1 0 0 1 -176 0 2
Validated: 1
EndChar

StartChar: uni0E48.low
Encoding: 63242 63242 107
Width: 0
Flags: W
HStem: 688 238<73 100>
VStem: 7 159
DStem2: 7 688 100 688 0.263873 0.964557<24.5402 246.98>
AnchorPoint: "AboveMark" 131 968 basemark 0
AnchorPoint: "AboveBase" 85 630 mark 0
LayerCount: 2
Fore
SplineSet
166 926 m 1
 100 688 l 1
 7 688 l 1
 73 926 l 1
 166 926 l 1
EndSplineSet
Validated: 1
Substitution2: "Thai Phinthu Mai Ek Reordering" uni0E3A
EndChar

StartChar: uni0E49.low
Encoding: 63243 63243 108
Width: 0
Flags: W
HStem: 673 150<-123 -38.4286> 677 50<-158 -108.494> 925 53<-87.7724 -8.38372>
VStem: -147 51<830.144 917.412> 0 56<831.723 916.358> 221 103<926.222 972>
AnchorPoint: "AboveMark" 98 968 basemark 0
AnchorPoint: "AboveBase" 170 630 mark 0
LayerCount: 2
Fore
SplineSet
-69 779 m 1x7c
 -120 787 -147 832 -147 879 c 0
 -147 928 -115 978 -39 978 c 0
 13 978 56 930 56 878 c 0
 56 860 51 843 41 826 c 0
 -5 752 -36 736 -36 736 c 1
 -35 733 l 1
 -35 733 173 763 221 972 c 1
 324 972 l 17
 225 707 6 673 -107 673 c 0xbc
 -139 673 -163 676 -172 677 c 1
 -158 727 l 1
 -131 730 -93 741 -70 776 c 1
 -69 779 l 1x7c
-51 823 m 0
 -17 823 -1 849 0 875 c 0
 0 900 -16 925 -50 925 c 0
 -80 925 -96 899 -96 873 c 0
 -96 848 -81 823 -51 823 c 0
EndSplineSet
Validated: 1
Substitution2: "Thai Phinthu Mai Tho Reordering" uni0E3A
EndChar

StartChar: uni0E4A.low
Encoding: 63244 63244 109
Width: 0
Flags: W
HStem: 671 40<-162.864 -96.3533> 794 39<-160.489 -97.1478>
VStem: -230 61<715.646 823.235> -91 41<715.261 789.601> 61 70<793.578 892.34> 197 87<891.738 954>
AnchorPoint: "AboveMark" -8 968 basemark 0
AnchorPoint: "AboveBase" 115 630 mark 0
LayerCount: 2
Fore
SplineSet
131 870 m 0
 131 823 104 777 81 753 c 1
 83 750 l 1
 140 782 191 856 197 954 c 1
 284 954 l 17
 247 803 121 671 -36 671 c 1
 -24 713 l 1
 32 740 61 797 61 844 c 0
 61 869 53 888 37 894 c 1
 -41 848 l 1
 -96 899 l 1
 -134 891 -159 845 -162 833 c 1
 -159 826 l 1
 -159 826 -150 833 -127 833 c 0
 -73 833 -50 789 -50 749 c 0
 -50 703 -88 671 -132 671 c 0
 -190 671 -230 714 -230 777 c 0
 -230 871 -141 955 -73 963 c 1
 -25 906 l 1
 59 963 l 1
 112 946 131 909 131 870 c 0
-128 711 m 0
 -103 711 -91 731 -91 752 c 0
 -91 773 -104 794 -129 794 c 0
 -156 794 -169 774 -169 753 c 0
 -169 732 -155 711 -128 711 c 0
EndSplineSet
Validated: 1
Substitution2: "Thai Phinthu Mai Tri Reordering" uni0E3A
EndChar

StartChar: uni0E4B.low
Encoding: 63245 63245 110
Width: 0
Flags: W
HStem: 677 21G<10 100.495> 770 81<-42 33 145 219>
VStem: -64 305
DStem2: 10 677 95 677 0.263873 0.964557<22.4292 93.8438 204.42 273.551>
AnchorPoint: "AboveMark" 132 968 basemark 0
AnchorPoint: "AboveBase" 170 630 mark 0
LayerCount: 2
Fore
SplineSet
219 770 m 1
 120 768 l 1
 95 677 l 1
 10 677 l 1
 33 768 l 1
 -64 770 l 1
 -42 851 l 1
 55 852 l 1
 78 942 l 1
 171 942 l 1
 145 852 l 1
 241 851 l 1
 219 770 l 1
EndSplineSet
Validated: 1
Substitution2: "Thai Phinthu Mai Chattawa Reordering" uni0E3A
EndChar

StartChar: uni0E4C.low
Encoding: 63246 63246 111
Width: 0
Flags: W
HStem: 671 48<4.47758 76.9121>
VStem: -50 49<723.76 803.651> 84 49<724.924 803.928>
AnchorPoint: "AboveMark" 155 968 basemark 0
AnchorPoint: "AboveBase" 105 630 mark 0
LayerCount: 2
Fore
SplineSet
308 974 m 17
 250 866 124 840 90 834 c 1
 109 824 133 809 133 760 c 0
 133 706 93 671 38 671 c 0
 -18 671 -50 719 -50 768 c 0
 -50 816 10 865 111 889 c 0
 160 901 207 935 234 998 c 1
 308 974 l 17
41 719 m 0
 69 719 84 742 84 765 c 0
 84 787 70 809 42 809 c 0
 13 809 -1 786 -1 763 c 0
 -1 741 12 719 41 719 c 0
EndSplineSet
Validated: 1
Substitution2: "Thai Phinthu Thanthakhat Reordering" uni0E3A
EndChar

StartChar: uni0E0D.descless
Encoding: 63247 63247 112
Width: 762
Flags: W
HStem: -6 44<186.576 269.812 493.275 577.715> 143 44<229 269.266> 378 44<201 217 281.232 368> 545 53<321.262 447.499>
VStem: 110 66<48.1418 133.543> 279 43<47.6555 133.247> 391 95<45.6493 171.461> 479 99<349.25 514.744>
DStem2: 76.8889 -8 175.654 -8 0.263873 0.964557<228.227 397.908> 360.11 -8 459.11 -8 0.263873 0.964557<121.265 471.54> 574.455 -8 671.804 -8 0.263873 0.964557<88.4631 626.54>
LayerCount: 2
Fore
SplineSet
322 92 m 0xfd
 321 45 291 -6 218 -6 c 0
 138 -6 110 55 110 101 c 0
 110 109 111 117 113 124 c 2
 166 315 l 2
 172 336 196 373 217 378 c 1
 137 378 l 1
 181 522 315 598 424 598 c 0
 508 598 578 552 578 455 c 0xfd
 578 439 575 421 571 401 c 1
 488 101 l 2
 486 95 486 89 486 83 c 0
 486 59 501 41 528 41 c 0
 563 41 594 66 604 100 c 2
 741 596 l 1
 839 596 l 1
 706 117 l 2
 691 61 607 -8 515 -8 c 0
 439 -8 391 38 391 95 c 0xfe
 391 104 392 114 395 124 c 2
 472 401 l 2
 477 419 479 435 479 449 c 0
 479 513 437 545 382 545 c 0
 321 545 247 505 201 422 c 1
 380 422 l 1
 368 378 l 1
 321 378 l 2
 294 378 275 355 267 326 c 2
 229 187 l 1
 290 186 322 139 322 92 c 0xfd
228 38 m 0
 262 38 279 64 279 90 c 0
 278 116 262 143 227 143 c 0
 194 143 176 117 176 91 c 0
 177 65 194 38 228 38 c 0
EndSplineSet
Validated: 1
EndChar

StartChar: quoteleft
Encoding: 8216 8216 113
Width: 317
Flags: W
HStem: 452 129<267.393 342.363>
VStem: 233 65<494.5 592.283>
LayerCount: 2
Fore
SplineSet
384 544 m 0
 384 514 358 452 292 452 c 0
 248 452 233 477 233 512 c 0
 233 614 340 711 410 731 c 1
 414 703 l 1
 351 677 298 606 298 583 c 0
 298 581 298 581 299 581 c 0
 303 581 306 588 336 588 c 0
 364 588 384 572 384 544 c 0
EndSplineSet
Validated: 1
EndChar

StartChar: quoteright
Encoding: 8217 8217 114
Width: 317
Flags: W
HStem: 452 21G<230.556 270.5> 602 129<301.903 377.607>
VStem: 346 66<590.285 688.5>
LayerCount: 2
Fore
SplineSet
260 640 m 0
 260 677 293 731 353 731 c 0
 397 731 412 706 412 671 c 0
 412 569 306 473 235 452 c 1
 229 479 l 1
 294 505 346 577 346 601 c 0
 346 602 346 602 345 602 c 0
 343 602 334 594 309 594 c 0
 281 594 260 611 260 640 c 0
EndSplineSet
Validated: 1
EndChar

StartChar: bullet
Encoding: 8226 8226 117
Width: 367
Flags: W
HStem: 177 285<235.172 308.743>
VStem: 132 281<282.883 360.867>
LayerCount: 2
Fore
SplineSet
413 360 m 0
 413 273 328 177 232 177 c 0
 172 177 132 221 132 280 c 0
 132 376 225 462 311 462 c 0
 374 462 413 419 413 360 c 0
EndSplineSet
Validated: 1
EndChar

StartChar: endash
Encoding: 8211 8211 118
Width: 732
Flags: W
HStem: 201 72<97 767>
LayerCount: 2
Fore
SplineSet
767 201 m 1
 77 201 l 1
 97 273 l 1
 787 273 l 1
 767 201 l 1
EndSplineSet
Validated: 1
EndChar

StartChar: emdash
Encoding: 8212 8212 119
Width: 1464
Flags: W
HStem: 201 72<85 1512>
LayerCount: 2
Fore
SplineSet
1512 201 m 1
 65 201 l 1
 85 273 l 1
 1532 273 l 1
 1512 201 l 1
EndSplineSet
Validated: 1
EndChar

StartChar: uni0E31.left
Encoding: 63248 63248 120
Width: 0
Flags: W
HStem: 676 49<-149.678 -2.2668> 880 49<-224.753 -141.974>
VStem: -287 52<785.588 871.052> -134 50<784.44 872.079>
LayerCount: 2
Back
SplineSet
344 923 m 17
 256 737 59 676 -81 676 c 0
 -194 676 -256 733 -256 823 c 0
 -256 882 -206 930 -149 930 c 0
 -107 930 -52 894 -52 826 c 0
 -52 790 -75 750 -119 733 c 1
 -102 728 -82 726 -61 726 c 0
 38 726 174 777 247 923 c 1
 344 923 l 17
-154 776 m 0
 -121 776 -105 802 -104 829 c 0
 -104 854 -120 880 -153 880 c 0
 -187 880 -204 854 -205 827 c 0
 -205 802 -188 776 -154 776 c 0
EndSplineSet
Fore
Refer: 177 3633 N 1 0 0 1 -156 0 2
Validated: 1
EndChar

StartChar: uni0E4D.left
Encoding: 63249 63249 121
Width: 0
Flags: W
HStem: 673 54<-180.232 -95.6733> 831 57<-181.602 -96.8371>
VStem: -241 51<736.276 822.862> -87 50<735.476 822.053>
LayerCount: 2
Back
SplineSet
-103 673 m 0
 -172 673 -207 727 -207 781 c 0
 -207 835 -174 888 -104 888 c 0
 -37 888 -2 834 -3 780 c 0
 -3 726 -35 673 -103 673 c 0
-103 727 m 0
 -70 727 -54 753 -54 778 c 0
 -54 805 -71 831 -104 831 c 0
 -138 831 -155 805 -155 780 c 0
 -154 753 -137 727 -103 727 c 0
EndSplineSet
Fore
Refer: 203 3661 N 1 0 0 1 -229 0 2
Validated: 1
EndChar

StartChar: uni0E47.left
Encoding: 63250 63250 122
Width: 0
Flags: W
HStem: 656 49<-115.351 -43.854> 736 56<-282.263 -208.053> 796 47<-116.758 -44.4476> 888 50<-207.775 -28.7397> 895 54<-264.317 -83.2168>
VStem: -383 75<715.364 848.749> -163 40<749.922 789.421> -38 46<709.666 790.382> 2 91<973.585 1025>
LayerCount: 2
Back
SplineSet
72 1008 m 17
 39 897 -42 872 -110 876 c 0
 -142 877 -199 886 -236 888 c 0
 -274 891 -308 860 -320 816 c 0
 -326 796 -326 773 -321 748 c 1
 -276 813 -208 777 -185 742 c 1
 -185 742 -171 732 -171 746 c 0
 -171 802 -131 830 -91 830 c 0
 -50 830 -10 802 -10 743 c 0
 -10 682 -58 655 -101 655 c 0
 -178 655 -218 733 -270 733 c 0
 -310 733 -317 687 -299 656 c 1
 -364 657 l 1
 -397 698 -403 754 -388 806 c 0
 -367 882 -301 949 -218 940 c 0
 -188 937 -132 931 -104 928 c 0
 -82 925 -29 928 -15 1008 c 1
 72 1008 l 17
-51 743 m 0
 -51 772 -72 787 -93 787 c 0
 -114 787 -134 772 -134 743 c 0
 -134 714 -113 700 -92 700 c 0
 -72 700 -51 714 -51 743 c 0
EndSplineSet
Fore
Refer: 197 3655 N 1 0 0 1 -123 0 2
Validated: 1
EndChar

StartChar: uni0E48.left
Encoding: 63251 63251 123
Width: 0
Flags: W
HStem: 1021 206<1 37>
VStem: -56 150
DStem2: -56 1021 37 1021 0.263873 0.964557<24.5402 213.74>
LayerCount: 2
Back
SplineSet
108 1227 m 1
 51 1021 l 1
 -42 1021 l 5
 15 1227 l 1
 108 1227 l 1
EndSplineSet
Fore
Refer: 198 3656 N 1 0 0 1 -156 0 2
Validated: 1
EndChar

StartChar: uni0E49.left
Encoding: 63252 63252 124
Width: 0
Flags: W
HStem: 991 49<-93 -0.0703125> 994 35<-197 -147.594> 1187 43<-141.868 -74.1284>
VStem: -186 40<1113.74 1182.88> -70 45<1112.92 1183.14>
LayerCount: 2
Back
SplineSet
289 1229 m 17
 183 957 -66 991 -109 994 c 1
 -100 1029 l 1
 -60 1034 -44 1050 -27 1069 c 1
 -26 1072 l 1
 -26 1072 -34 1073 -45 1078 c 0
 -74 1089 -90 1120 -90 1151 c 0
 -90 1190 -64 1230 -7 1230 c 0
 56 1230 97 1157 55 1098 c 0
 25 1058 5 1043 5 1043 c 1
 4 1040 l 1
 4 1040 160 1054 205 1229 c 1
 289 1229 l 17
-12 1109 m 0
 15 1109 27 1128 27 1147 c 0
 28 1167 14 1187 -13 1187 c 0
 -38 1187 -50 1168 -50 1149 c 0
 -50 1129 -37 1109 -12 1109 c 0
EndSplineSet
Fore
Refer: 199 3657 N 1 0 0 1 -249 0 2
Validated: 1
EndChar

StartChar: uni0E4A.left
Encoding: 63253 63253 125
Width: 0
Flags: W
HStem: 984 37<-96.2716 -38.7259> 1089 35<-94.6842 -38.8013>
VStem: -155 55<1022.43 1118.65> -35 33<1026.08 1084.64> 91 60<1084.25 1174.43> 206 71<1161.91 1226>
LayerCount: 2
Back
SplineSet
285 1226 m 17
 258 1098 150 986 16 986 c 1
 26 1021 l 1
 64 1039 86 1071 94 1102 c 0
 103 1136 97 1167 78 1175 c 1
 15 1137 l 1
 -33 1178 l 1
 -65 1172 -82 1136 -89 1122 c 1
 -87 1118 l 1
 -87 1118 -76 1124 -58 1124 c 0
 -20 1124 5 1094 6 1057 c 0
 6 1012 -24 984 -63 984 c 0
 -125 984 -162 1043 -142 1115 c 0
 -129 1160 -75 1227 -14 1232 c 1
 28 1183 l 1
 97 1232 l 1
 156 1213 165 1167 153 1123 c 0
 146 1098 132 1073 116 1055 c 1
 117 1054 l 1
 166 1080 209 1141 214 1226 c 1
 285 1226 l 17
-61 1021 m 0
 -39 1021 -27 1038 -27 1056 c 0
 -28 1072 -38 1089 -60 1089 c 0
 -82 1089 -93 1072 -93 1054 c 0
 -93 1038 -82 1021 -61 1021 c 0
EndSplineSet
Fore
Refer: 200 3658 N 1 0 0 1 -126 0 2
Validated: 1
EndChar

StartChar: uni0E4B.left
Encoding: 63254 63254 126
Width: 0
Flags: W
HStem: 1072 74<-100 -32 63 131>
VStem: -121 273
DStem2: -53 992 18 992 0.263873 0.964557<18.735 81.7414 180.116 242.067>
LayerCount: 2
Back
SplineSet
142 1075 m 1
 52 1074 l 1
 28 995 l 1
 -42 995 l 1
 -21 1074 l 1
 -111 1075 l 1
 -90 1149 l 1
 0 1150 l 1
 21 1229 l 1
 96 1229 l 1
 73 1150 l 1
 163 1149 l 1
 142 1075 l 1
EndSplineSet
Fore
Refer: 201 3659 N 1 0 0 1 -156 0 2
Validated: 1
EndChar

StartChar: uni0E4C.left
Encoding: 63255 63255 127
Width: 0
Flags: W
HStem: 895 42<-31.6977 36.173>
VStem: -83 46<941.965 1016.1> 41 44<940.804 1016.39>
LayerCount: 2
Back
SplineSet
226 1201 m 17
 174 1104 61 1084 28 1078 c 1
 27 1074 l 1
 48 1066 66 1046 66 1007 c 0
 66 959 30 926 -19 926 c 0
 -58 926 -101 962 -101 1010 c 0
 -101 1062 -45 1106 46 1123 c 0
 93 1132 132 1166 158 1223 c 1
 226 1201 l 17
-15 968 m 0
 9 968 22 988 22 1009 c 0
 22 1030 9 1051 -16 1051 c 0
 -43 1051 -56 1031 -56 1010 c 0
 -56 989 -43 968 -15 968 c 0
EndSplineSet
Fore
Refer: 202 3660 N 1 0 0 1 -115 0 2
Validated: 1
EndChar

StartChar: uni0E01
Encoding: 3585 3585 129
Width: 574
Flags: W
HStem: 0 21G<79 183.521 391 492.545> 378 44<202 217 282.451 368> 544 54<331.605 469.134>
VStem: 508 97<348.156 507.094>
DStem2: 79 0 178 0 0.263873 0.964557<26.1234 389.94> 391 0 487 0 0.263873 0.964557<25.3318 457.583>
LayerCount: 2
Fore
SplineSet
487 0 m 1
 391 0 l 1
 502 399 l 2
 506 415 508 430 508 443 c 0
 508 510 458 544 396 544 c 0
 329 544 246 503 202 422 c 1
 380 422 l 1
 368 378 l 1
 321 378 l 2
 296 378 276 355 268 326 c 2
 178 0 l 1
 79 0 l 1
 166 315 l 2
 172 336 196 373 217 378 c 1
 137 378 l 1
 182 522 324 598 440 598 c 0
 530 598 605 552 605 455 c 0
 605 439 603 422 599 404 c 2
 487 0 l 1
EndSplineSet
Validated: 1
EndChar

StartChar: uni0E02
Encoding: 3586 3586 130
Width: 557
Flags: W
HStem: -8 46<330.779 388.519> 328 35<192.926 266.064> 462 34<198.793 265.234> 542 56<242.864 338.749>
VStem: 133 49<371.007 454.707> 242 88<38.058 141.836> 276 36<372.706 451.631> 348 93<406.477 532.042>
DStem2: 212.53 -8 309.935 -8 0.263873 0.964557<98.6072 517.753> 372.209 -8 470.53 -8 0.263873 0.964557<71.6201 626.604>
LayerCount: 2
Fore
SplineSet
133 414 m 0xfb
 133 488 211 598 328 598 c 0
 403 598 441 554 441 490 c 0
 441 473 438 455 433 436 c 2
 331 69 l 2
 330 67 330 64 330 62 c 0
 330 49 339 38 353 38 c 0
 370 38 389 54 393 68 c 2
 539 596 l 1
 637 596 l 1
 505 118 l 2
 485 46 424 -8 340 -8 c 0
 278 -8 242 30 242 82 c 0xfd
 242 94 243 106 247 118 c 2
 345 472 l 2
 347 479 348 486 348 492 c 0
 348 524 323 542 292 542 c 0
 253 542 221 521 198 485 c 1
 217 495 212 496 232 496 c 0
 286 496 311 458 312 410 c 0
 312 366 280 328 226 328 c 0
 160 328 133 368 133 414 c 0xfb
230 363 m 0
 261 363 276 388 276 412 c 0xfb
 276 437 261 462 229 462 c 0
 198 462 182 437 182 412 c 1
 183 388 198 363 230 363 c 0
EndSplineSet
Validated: 1
EndChar

StartChar: uni0E03
Encoding: 3587 3587 131
Width: 607
Flags: W
HStem: -8 46<379.165 437.118> 284 38<191.053 265.19> 420 36<190.41 264.107> 459 21G<291.532 328.242> 579 20G<237.5 290.162 387.216 442.5 581.47 685>
VStem: 132 49<329.388 447.718> 275 38<331.476 410.332> 288 90<38.4253 94.0185> 398 97<420.367 524.002>
DStem2: 258.53 -8 357.935 -8 0.263873 0.964557<98.2142 530.384> 420.209 -8 518.53 -8 0.263873 0.964557<71.484 626.604>
LayerCount: 2
Fore
SplineSet
553 118 m 2xfd80
 533 46 473 -8 389 -8 c 0
 326 -8 288 33 288 85 c 0xfd80
 288 96 290 107 293 118 c 2
 395 485 l 2
 397 492 398 498 398 504 c 0
 398 514 394 522 384 525 c 1
 304 459 l 1
 256 536 l 1
 220 515 195 482 184 444 c 1
 200 456 211 456 229 456 c 0
 285 455 313 414 313 372 c 0xfe80
 313 328 284 284 227 284 c 0
 162 284 132 337 132 396 c 0
 132 483 197 563 278 599 c 1
 323 525 l 1
 411 599 l 1
 474 591 495 555 495 511 c 0
 495 493 491 474 486 455 c 2
 379 69 l 2
 378 66 378 64 378 61 c 0
 378 49 386 38 402 38 c 0
 421 38 437 54 441 68 c 2
 587 596 l 1
 685 596 l 1
 553 118 l 2xfd80
228 322 m 0
 259 322 275 346 275 370 c 0xfe80
 275 395 259 420 227 420 c 0
 196 420 181 396 181 372 c 0
 181 347 196 322 228 322 c 0
EndSplineSet
Validated: 1
EndChar

StartChar: uni0E04
Encoding: 3588 3588 132
Width: 561
Flags: W
HStem: 0 21G<85 188.534 381 483.545> 248 45<301.868 384.788> 398 46<302.094 384.55> 547 52<292.484 466.246>
VStem: 127 51<320.209 437.998> 394 45<301.743 388.992> 498 102<365.406 515.297>
DStem2: 85 0 183 0 0.263873 0.964557<25.8596 253.815> 381 0 478 0 0.263873 0.964557<25.5957 463.144>
LayerCount: 2
Fore
SplineSet
127 349 m 0
 127 455 229 599 402 599 c 0
 513 599 600 564 600 466 c 0
 600 448 596 427 590 404 c 2
 478 0 l 1
 381 0 l 1
 489 389 l 2
 495 411 498 431 498 449 c 0
 498 510 464 547 389 547 c 0
 250 547 178 435 178 375 c 0
 178 349 190 330 197 319 c 1
 200 319 l 1
 236 384 272 444 346 444 c 0
 408 444 439 396 439 347 c 0
 439 298 408 248 342 248 c 0
 318 248 288 262 274 280 c 1
 260 270 248 233 240 206 c 2
 183 0 l 1
 85 0 l 1
 150 233 l 2
 151 237 152 241 152 245 c 0
 152 273 127 298 127 349 c 0
344 293 m 0
 377 293 393 319 394 345 c 0
 394 371 376 398 343 398 c 0
 309 398 293 372 293 346 c 0
 293 320 309 293 344 293 c 0
EndSplineSet
Validated: 1
EndChar

StartChar: uni0E05
Encoding: 3589 3589 133
Width: 563
Flags: W
HStem: 0 21G<85 188.591 380 481.53> 218 45<293.396 377.99> 367 45<296.009 379.057> 459 21G<355.421 399.895> 578 20G<253.5 346.805 463.067 511.5>
VStem: 127 51<296.376 438.944> 388 42<273.609 357.269> 505 91<374.906 530.994>
DStem2: 85 0 183 0 0.263873 0.964557<25.8596 246.581> 380 0 476 0 0.263873 0.964557<25.3318 491.808> 389 521 372 459 0.812696 0.582688<0 84.0254>
LayerCount: 2
Fore
SplineSet
309 535 m 1
 259 523 178 444 178 369 c 0
 178 343 187 318 199 295 c 1
 202 295 l 1
 231 341 260 412 340 412 c 0
 398 412 430 363 430 314 c 0
 430 266 399 218 332 218 c 0
 308 218 275 232 266 248 c 1
 251 238 238 197 235 186 c 2
 183 0 l 1
 85 0 l 1
 149 229 l 2
 150 232 150 235 150 238 c 0
 150 263 127 293 127 345 c 0
 127 420 175 545 332 598 c 1
 389 521 l 1
 490 596 l 1
 533 584 596 560 596 469 c 0
 596 446 592 419 583 387 c 2
 476 0 l 1
 380 0 l 1
 487 387 l 2
 496 418 505 449 505 477 c 0
 505 500 498 521 478 535 c 1
 372 459 l 1
 309 535 l 1
336 263 m 0
 370 263 387 289 388 316 c 0
 388 341 371 367 337 367 c 0
 303 367 286 341 285 314 c 0
 285 289 302 263 336 263 c 0
EndSplineSet
Validated: 1
EndChar

StartChar: uni0E06
Encoding: 3590 3590 134
Width: 721
Flags: W
HStem: -8 66<237.041 281.056> 0 21G<535.5 636.537> 254 38<182.467 256.472> 390 36<182.41 255.77> 459 21G<291.532 328.242> 579 20G<228 290.162 387.216 442.5 694.454 796>
VStem: 125 48<298.812 423.798> 187 49<59.4857 142.136> 266 39<300.213 381.559> 398 97<418.422 524.002>
DStem2: 258.21 -8 359.22 -8 0.263873 0.964557<65.5659 188.688 255.911 530.469> 532.983 -8 628.811 -8 0.263873 0.964557<132.703 626.664>
LayerCount: 2
Fore
SplineSet
125 369 m 0xbfc0
 125 455 178 555 278 599 c 1
 323 525 l 1
 411 599 l 1
 474 591 495 555 495 511 c 0
 495 493 491 474 486 455 c 2
 419 214 l 1
 447 206 524 183 568 120 c 1
 700 596 l 1
 796 596 l 1
 631 0 l 25
 549 0 l 17x7fc0
 522 120 438 152 406 163 c 1
 384 77 357 -8 268 -8 c 0
 211 -8 187 26 187 68 c 0
 187 135 245 216 322 223 c 1
 395 485 l 2
 397 492 398 498 398 504 c 0
 398 514 394 522 384 525 c 1
 304 459 l 1
 256 536 l 1
 220 515 190 480 176 414 c 1
 192 426 203 426 221 426 c 0
 277 425 304 384 305 342 c 1
 305 298 275 254 218 254 c 0
 152 254 125 308 125 369 c 0xbfc0
220 292 m 0
 251 292 266 316 266 340 c 0
 266 365 251 390 219 390 c 0
 188 390 173 366 173 342 c 0
 173 317 188 292 220 292 c 0
308 174 m 1
 267 169 236 120 236 88 c 0
 236 71 245 58 265 58 c 0xbfc0
 273 58 278 66 282 80 c 2
 308 174 l 1
EndSplineSet
Validated: 1
EndChar

StartChar: uni0E07
Encoding: 3591 3591 135
Width: 416
Flags: W
HStem: 0 21G<230.491 337.546> 395 46<296.848 341.676> 545 48<297.093 378.745>
VStem: 246 41<451.17 534.517> 389 76<451.8 536.074>
DStem2: 232.992 0 332 0 0.263873 0.964557<121.299 410.028>
LayerCount: 2
Fore
SplineSet
336 395 m 2
 299 395 246 425 246 494 c 0
 246 543 278 593 341 593 c 0
 449 593 465 521 465 489 c 0
 465 483 465 478 464 476 c 2
 332 0 l 1
 237 0 l 1
 127 338 l 1
 145 395 l 1
 265 117 l 1
 343 395 l 1
 336 395 l 2
337 441 m 0
 371 441 389 467 389 494 c 1
 388 519 372 545 338 545 c 0
 305 545 288 519 287 492 c 1
 289 467 304 441 337 441 c 0
EndSplineSet
Validated: 1
EndChar

StartChar: uni0E08
Encoding: 3592 3592 136
Width: 538
Flags: W
HStem: -5 50<312.552 369.912> 386 46<219.686 300.938> 540 57<302.378 443.773>
VStem: 168 43<290.198 377.759> 224 88<45.7619 149.781> 474 101<362.266 511.18>
DStem2: 193.07 -5 291.114 -5 0.263873 0.964557<100.247 249.856> 353.101 -5 453.648 -5 0.263873 0.964557<74.6544 474.09>
LayerCount: 2
Fore
SplineSet
259 236 m 1
 259 236 168 248 168 334 c 0
 168 386 208 432 266 432 c 0
 343 432 386 393 386 348 c 0
 386 341 385 334 383 327 c 2
 313 75 l 2
 312 72 312 69 312 66 c 0
 312 55 319 45 334 45 c 0
 354 45 370 60 374 74 c 2
 468 415 l 2
 472 429 474 442 474 454 c 0
 474 511 430 540 374 540 c 0
 311 540 230 503 177 430 c 1
 147 450 l 1
 221 553 323 597 409 597 c 0
 501 597 575 546 575 460 c 0
 575 445 573 430 568 413 c 2
 487 121 l 2
 467 49 404 -5 321 -5 c 0
 264 -5 224 37 224 90 c 0
 224 100 225 110 228 121 c 2
 259 236 l 1
262 281 m 0
 295 281 311 307 311 333 c 0
 311 359 295 386 261 386 c 0
 227 386 211 360 211 334 c 0
 211 308 228 281 262 281 c 0
EndSplineSet
Validated: 1
EndChar

StartChar: uni0E09
Encoding: 3593 3593 137
Width: 586
Flags: W
HStem: -8 43<430.938 511.704> 0 21G<156 241> 194 46<170.827 210> 344 45<170.761 251.404> 542 57<323.248 484.853>
VStem: 120 41<250.123 333.756> 262 74<248.518 335.021> 378 43<44.5001 115.705> 521 98<358.727 507.247> 521 46<43.3287 131.249>
DStem2: 398.748 -8 496.994 -8 0.263873 0.964557<209.757 475.503>
LayerCount: 2
Fore
SplineSet
210 194 m 1x7f40
 190 194 120 214 120 296 c 0
 120 340 154 389 213 389 c 0
 291 389 336 351 336 306 c 0
 336 299 335 293 333 286 c 2
 297 154 l 2
 290 131 279 109 279 109 c 1
 303 131 363 175 451 183 c 1
 517 421 l 2
 520 432 521 442 521 452 c 0
 521 510 470 542 404 542 c 0
 334 542 248 506 190 430 c 1
 158 450 l 1
 229 552 343 599 440 599 c 0
 538 599 619 550 619 461 c 0x7f80
 619 446 617 429 612 412 c 2
 558 215 l 2
 549 183 532 173 532 173 c 1
 531 170 l 1
 554 152 567 121 567 90 c 0
 567 41 537 -8 470 -8 c 0xbf40
 417 -8 378 34 378 85 c 0
 378 95 379 106 382 116 c 1
 303 86 246 20 236 0 c 1
 156 0 l 1
 210 194 l 1x7f40
212 240 m 0
 245 240 262 266 262 292 c 0
 261 318 245 344 212 344 c 0
 178 344 161 318 161 292 c 0
 161 266 178 240 212 240 c 0
471 35 m 0xbf40
 505 35 521 61 521 87 c 0
 521 113 504 140 470 140 c 0
 437 140 421 114 421 88 c 0
 421 62 438 35 471 35 c 0xbf40
EndSplineSet
Validated: 1
EndChar

StartChar: uni0E0A
Encoding: 3594 3594 138
Width: 556
Flags: W
HStem: 0 45<162 226 323 413.583> 328 35<192.926 266.064> 462 34<198.793 265.234> 542 56<242.864 339.35>
VStem: 133 49<371.007 454.707> 276 36<372.706 451.631> 348 93<406.391 533.015> 511 98<279.75 409.342>
DStem2: 213.689 0 310.689 0 0.263873 0.964557<72.2492 509.731> 412.992 0 510.275 0 0.263873 0.964557<57.0641 380.365 491.926 616.488>
LayerCount: 2
Fore
SplineSet
133 414 m 0
 133 488 211 598 328 598 c 0
 405 598 441 551 441 491 c 0
 441 476 438 461 434 445 c 2
 323 45 l 1
 361 45 l 2
 393 45 431 65 445 117 c 2
 505 333 l 2
 509 346 511 358 511 368 c 0
 511 396 495 412 460 422 c 1
 468 450 l 1
 523 463 546 481 560 531 c 2
 578 594 l 1
 675 594 l 1
 653 527 649 445 561 436 c 1
 598 432 609 407 609 379 c 0
 609 360 604 339 599 321 c 2
 539 105 l 2
 528 65 487 0 410 0 c 2
 150 0 l 1
 162 45 l 1
 226 45 l 1
 345 472 l 2
 347 479 348 486 348 492 c 0
 348 525 324 542 292 542 c 0
 253 542 221 521 198 485 c 1
 217 495 212 496 232 496 c 0
 286 496 311 458 312 410 c 0
 312 366 280 328 226 328 c 0
 160 328 133 368 133 414 c 0
230 363 m 0
 261 363 276 388 276 412 c 0
 276 437 261 462 229 462 c 0
 198 462 182 437 182 412 c 1
 183 388 198 363 230 363 c 0
EndSplineSet
Validated: 1
EndChar

StartChar: uni0E0B
Encoding: 3595 3595 139
Width: 618
Flags: W
HStem: 0 45<212 272 373 463.583> 284 38<191.053 265.19> 420 36<190.41 264.107> 459 21G<291.532 328.242> 579 20G<237.5 290.162 387.216 442.5>
VStem: 132 49<329.388 447.718> 275 38<331.476 410.332> 398 97<423.047 524.002> 561 98<279.75 409.342>
DStem2: 259.689 0 360.689 0 0.263873 0.964557<73.3047 522.362> 462.992 0 560.275 0 0.263873 0.964557<57.0641 380.365 491.926 616.488>
LayerCount: 2
Fore
SplineSet
278 599 m 1
 323 525 l 1
 411 599 l 1
 474 591 495 555 495 511 c 0
 495 493 491 474 486 455 c 2
 373 45 l 1
 411 45 l 2
 443 45 481 65 495 117 c 2
 555 333 l 2
 559 346 561 358 561 368 c 0
 561 396 545 412 510 422 c 1
 518 450 l 1
 573 463 596 481 610 531 c 2
 628 594 l 1
 725 594 l 1
 703 527 699 445 611 436 c 1
 648 432 659 407 659 379 c 0
 659 360 654 339 649 321 c 2
 589 105 l 2
 578 65 537 0 460 0 c 2
 200 0 l 1
 212 45 l 1
 272 45 l 1
 395 485 l 2
 397 492 398 498 398 504 c 0
 398 514 394 522 384 525 c 1
 304 459 l 1
 256 536 l 1
 220 515 195 482 184 444 c 1
 200 456 211 456 229 456 c 0
 285 455 313 414 313 372 c 0
 313 328 284 284 227 284 c 0
 162 284 132 337 132 396 c 0
 132 483 197 563 278 599 c 1
228 322 m 0
 259 322 275 346 275 370 c 0
 275 395 259 420 227 420 c 0
 196 420 181 396 181 372 c 0
 181 347 196 322 228 322 c 0
EndSplineSet
Validated: 1
EndChar

StartChar: uni0E0C
Encoding: 3596 3596 140
Width: 762
Flags: W
HStem: -8 61<375.496 412.812> -6 43<164.58 246.847> 378 44<202 217 280.796 368> 543 56<331.09 472.215>
VStem: 109 46<45.6716 131.446> 257 44<46.2479 132.307> 326 49<53.4267 124.432> 509 95<347.328 507.065>
DStem2: 77.7096 -8 175.295 -8 0.263873 0.964557<221.695 398.827> 391.417 -8 484.88 -8 0.263873 0.964557<60.2796 157.585 223.874 468.347> 588.7 -8 686.811 -8 0.263873 0.964557<145.144 626.475>
LayerCount: 2
Fore
SplineSet
375 73 m 0xbf
 375 64 378 53 391 53 c 0
 399 53 409 58 413 71 c 2
 433 144 l 1
 401 142 375 103 375 73 c 0xbf
267 326 m 2
 227 181 l 1
 275 173 301 130 301 87 c 0
 301 40 270 -6 203 -6 c 0x7f
 132 -6 109 46 109 90 c 0
 109 101 110 112 113 121 c 2
 166 315 l 2
 172 336 196 373 217 378 c 1
 137 378 l 1
 182 522 323 599 439 599 c 0
 530 599 604 552 604 454 c 0
 604 438 602 421 598 402 c 1
 538 184 l 1
 555 180 606 167 627 132 c 1
 755 596 l 1
 854 596 l 1
 689 0 l 1
 609 0 l 1
 611 10 612 19 612 28 c 0
 612 90 561 130 524 135 c 1
 501 52 479 -8 397 -8 c 0
 348 -8 326 22 326 59 c 0
 326 117 377 186 444 190 c 1
 503 404 l 2
 507 419 509 433 509 446 c 0
 509 510 459 543 396 543 c 0
 328 543 247 504 202 422 c 1
 380 422 l 1
 368 378 l 1
 321 378 l 2
 294 378 274 355 267 326 c 2
205 37 m 0
 239 37 256 63 257 90 c 0
 257 115 240 141 206 141 c 0
 172 141 155 115 155 88 c 0
 155 63 171 37 205 37 c 0
EndSplineSet
Validated: 1
EndChar

StartChar: uni0E0D
Encoding: 3597 3597 141
Width: 762
Flags: W
HStem: -248 51<403.531 505.913> -179 27<404.104 452.88> -62 31<388.489 455.548> -6 44<186.576 269.812 493.275 577.715> 143 44<229 269.266> 378 44<201 217 281.232 368> 545 53<321.262 447.499>
VStem: 110 66<48.1418 133.543> 279 43<47.6555 133.247> 327 51<-184.5 -76.4349> 391 95<45.6493 171.461> 465 30<-141.196 -71.822> 479 99<349.25 514.744>
DStem2: 11.2323 -248 109.997 -248 0.263873 0.964557<477.046 646.726> 294.454 -248 393.454 -248 0.263873 0.964557<370.084 720.359> 514.342 -248 605.974 -248 0.263873 0.964557<87.751 212.685 335.819 873.895>
LayerCount: 2
Fore
SplineSet
322 92 m 0xffc8
 321 45 291 -6 218 -6 c 0
 138 -6 110 55 110 101 c 0
 110 109 111 117 113 124 c 2
 166 315 l 2
 172 336 196 373 217 378 c 1
 137 378 l 1
 181 522 315 598 424 598 c 0
 508 598 578 552 578 455 c 0xffc8
 578 439 575 421 571 401 c 1
 488 101 l 2
 486 95 486 89 486 83 c 0
 486 59 501 41 528 41 c 0
 563 41 594 66 604 100 c 2
 741 596 l 1
 839 596 l 1
 706 117 l 2
 691 61 607 -8 515 -8 c 0
 439 -8 391 38 391 95 c 0xffe0
 391 104 392 114 395 124 c 2
 472 401 l 2
 477 419 479 435 479 449 c 0
 479 513 437 545 382 545 c 0
 321 545 247 505 201 422 c 1
 380 422 l 1
 368 378 l 1
 321 378 l 2
 294 378 275 355 267 326 c 2
 229 187 l 1
 290 186 322 139 322 92 c 0xffc8
228 38 m 0
 262 38 279 64 279 90 c 0
 278 116 262 143 227 143 c 0
 194 143 176 117 176 91 c 0
 177 65 194 38 228 38 c 0
327 -152 m 0
 327 -95 364 -31 421 -31 c 0
 472 -31 495 -74 495 -108 c 0xffd0
 495 -157 457 -179 422 -179 c 0
 416 -179 410 -178 404 -177 c 1
 403 -181 l 1
 414 -192 430 -197 446 -197 c 0
 488 -197 537 -164 551 -114 c 2
 571 -43 l 1
 662 -43 l 1
 644 -109 l 2
 619 -199 523 -248 443 -248 c 0
 380 -248 327 -217 327 -152 c 0
465 -106 m 0
 465 -77 444 -62 422 -62 c 0
 400 -62 378 -77 378 -106 c 0
 378 -136 400 -152 422 -152 c 0
 443 -152 465 -136 465 -106 c 0
EndSplineSet
Validated: 1
Substitution2: "'ccmp' Pali-Sanskrit Descender Removal" uni0E0D.descless
Substitution2: "Thai Descender Removal Single Substitution" uni0E0D.descless
EndChar

StartChar: uni0E0E
Encoding: 3598 3598 142
Width: 583
Flags: W
HStem: -223 51<81.7054 170.639> -90 52<96.1913 212.312> -6 44<79.5053 161.789> 143 44<78.9618 145.214> 378 44<215 228 295.098 382> 544 55<344.296 482.896>
VStem: 29 41<48.604 132.948> 30 51<-169.324 -105.343> 520 97<357.891 509.707>
DStem2: 25.7331 -241 122.901 -241 0.263873 0.964557<437.671 640.506> 334.135 -241 431 -241 0.263873 0.964557<118.651 715.055>
AnchorPoint: "BelowBase" 428 -241 basechar 0
LayerCount: 2
Fore
SplineSet
30 -159 m 0xfd80
 30 -103 83 -38 175 -38 c 0
 197 -38 221 -42 245 -51 c 1
 277 -5 301 6 316 15 c 1
 357 -9 l 1
 330 -22 307 -41 286 -71 c 1
 314 -80 351 -104 367 -127 c 1
 367 -127 372 -101 379 -77 c 2
 515 413 l 2
 519 426 520 439 520 450 c 0
 520 512 471 544 409 544 c 0
 341 544 258 504 215 422 c 1
 394 422 l 1
 382 378 l 1
 332 378 l 2
 305 378 284 346 276 318 c 2
 214 92 l 2
 196 29 181 -6 119 -6 c 0
 59 -6 29 43 29 91 c 0xfe80
 30 139 59 187 117 187 c 0
 125 187 134 186 142 184 c 1
 175 304 l 2
 182 329 207 373 228 378 c 1
 151 378 l 1
 195 522 337 599 453 599 c 0
 543 599 617 553 617 456 c 0
 617 441 615 424 611 407 c 2
 431 -241 l 1
 351 -241 l 17
 340 -183 300 -146 254 -118 c 1
 216 -190 152 -223 102 -223 c 0
 61 -223 30 -201 30 -159 c 0xfd80
155 -90 m 0
 96 -90 81 -127 81 -145 c 0xfd80
 81 -162 97 -172 117 -172 c 0
 150 -172 189 -144 213 -100 c 1
 193 -93 173 -90 155 -90 c 0
121 38 m 0
 155 38 171 64 171 90 c 0
 170 116 154 143 120 143 c 0
 87 143 70 117 70 91 c 0xfe80
 70 65 88 38 121 38 c 0
EndSplineSet
Validated: 1
EndChar

StartChar: uni0E0F
Encoding: 3599 3599 143
Width: 583
Flags: W
HStem: -240 51<-20.2603 61.0497> -158 58<242.508 335.717> -99 48<-4.26198 95.0948> -25 20G<201.5 234.579> -6 44<79.5053 161.789> 143 44<78.9618 144.193> 378 44<215 228 295.098 382> 544 55<344.296 482.896>
VStem: -72 50<-187.07 -117.016> 29 41<48.604 132.948> 520 97<355.414 509.707>
DStem2: 25.0067 -240 123.175 -240 0.263873 0.964557<436.709 638.358> 333.992 -240 431 -240 0.263873 0.964557<121.299 714.128>
AnchorPoint: "BelowBase" 428 -241 basechar 0
LayerCount: 2
Fore
SplineSet
-72 -176 m 0xefe0
 -72 -126 -26 -51 57 -51 c 0
 82 -51 107 -58 127 -74 c 1
 147 -45 180 -20 223 -5 c 1xf7e0
 245 -43 l 1
 215 -51 176 -75 159 -104 c 1
 176 -115 188 -147 191 -169 c 1
 222 -126 268 -100 308 -100 c 0
 330 -100 350 -107 366 -123 c 1
 515 413 l 2
 519 426 520 439 520 450 c 0
 520 512 471 544 409 544 c 0
 341 544 258 504 215 422 c 1
 394 422 l 1
 382 378 l 1
 332 378 l 2
 305 378 284 346 276 318 c 2
 214 92 l 2
 196 29 181 -6 119 -6 c 0
 59 -6 29 43 29 91 c 0
 30 139 59 187 117 187 c 0
 125 187 133 186 141 184 c 1
 174 304 l 2
 181 329 207 373 228 378 c 1
 151 378 l 1
 195 522 337 599 453 599 c 0
 543 599 617 553 617 456 c 0
 617 441 615 424 611 407 c 2
 431 -240 l 1
 352 -240 l 17
 352 -188 328 -158 295 -158 c 0
 264 -158 226 -183 190 -240 c 1
 149 -240 l 1
 150 -236 150 -232 150 -228 c 0
 150 -199 138 -170 126 -154 c 1
 94 -214 42 -240 0 -240 c 0
 -40 -240 -72 -217 -72 -176 c 0xefe0
121 38 m 0xefe0
 155 38 171 64 171 90 c 0
 170 116 154 143 120 143 c 0
 87 143 70 117 70 91 c 0
 70 65 88 38 121 38 c 0xefe0
46 -99 m 0
 5 -99 -22 -133 -22 -158 c 0
 -22 -177 -7 -189 12 -189 c 0
 38 -189 72 -169 96 -120 c 1
 79 -105 62 -99 46 -99 c 0
EndSplineSet
Validated: 1
EndChar

StartChar: uni0E10
Encoding: 3600 3600 144
Width: 484
Flags: W
HStem: -289 48<144 252.831> -243 42<-0.306053 60.1453> -202 36<226.458 257> -122 42<11.8952 81> -74 40<224.824 297.074> -5 50<274.673 321.43> 315 43<165.126 246.413> 489 76<403.566 533.869> 528 70<261.359 384.066>
VStem: -43 42<-200.719 -136.624> 113 45<-240.572 -166.485 217.638 307.411> 177 40<-158.734 -81.012> 183 91<45.1633 99.1698> 256 74<217.724 306.4> 304 63<-161.283 -79.7316> 399 100<273.234 372.076>
DStem2: 215 478 139 445 0.957187 -0.289472<0 212.445> 233.199 -289 320.577 -289 0.263873 0.964557<44.3829 90.1968 349.182 661.805>
LayerCount: 2
Fore
SplineSet
588 585 m 0x1f69
 588 572 548 489 467 489 c 0x1f69
 408 489 348 528 295 528 c 0
 265 528 238 516 215 478 c 1
 454 407 l 2
 465 403 499 397 499 359 c 0
 499 352 498 344 495 335 c 2
 431 106 l 2
 411 34 360 -5 278 -5 c 0
 221 -5 183 25 183 75 c 0x1ee9
 183 85 184 95 187 106 c 2
 204 166 l 1
 196 167 189 166 181 169 c 0
 142 182 113 212 113 269 c 0
 113 316 155 358 211 358 c 0
 285 358 330 324 330 278 c 0x1ee5
 330 272 329 265 327 258 c 2
 276 75 l 2
 275 71 274 67 274 63 c 0
 274 53 279 45 291 45 c 0
 310 45 321 61 325 74 c 2
 396 333 l 2
 398 341 399 347 399 352 c 0
 399 363 395 368 387 370 c 2
 139 445 l 1
 171 498 234 598 346 598 c 0x1ee9
 389 598 452 565 505 565 c 0
 557 565 559 594 580 594 c 0
 585 594 588 592 588 585 c 0x1f69
207 210 m 0
 240 210 256 236 256 262 c 0x1e65
 256 288 239 315 206 315 c 0
 172 315 156 289 156 263 c 0
 156 237 173 210 207 210 c 0
251 -202 m 1xbe73
 185 -194 177 -143 177 -120 c 0
 177 -78 205 -34 264 -34 c 0
 321 -34 367 -60 367 -106 c 0
 367 -113 366 -121 364 -129 c 2
 340 -218 l 2
 331 -249 307 -289 259 -289 c 2
 84 -289 l 1
 101 -226 l 2
 106 -209 113 -191 113 -177 c 0
 113 -173 112 -169 110 -166 c 1xbe73
 97 -210 61 -243 13 -243 c 0x5e73
 -23 -243 -43 -224 -43 -183 c 0
 -43 -138 7 -80 65 -80 c 0
 74 -80 82 -81 91 -84 c 1
 95 -71 101 -58 113 -46 c 1
 158 -52 l 1
 141 -66 131 -88 127 -106 c 1
 151 -119 158 -143 158 -168 c 0
 158 -197 148 -228 144 -241 c 1
 232 -241 l 2
 248 -241 254 -219 257 -202 c 1
 251 -202 l 1xbe73
263 -166 m 0
 291 -166 304 -143 304 -121 c 0
 304 -97 290 -74 262 -74 c 0
 231 -74 217 -97 217 -119 c 0
 217 -143 232 -166 263 -166 c 0
63 -122 m 0
 28 -122 -1 -144 -1 -177 c 0
 -1 -191 6 -201 24 -201 c 0x5e61
 54 -201 81 -160 81 -124 c 1
 76 -122 70 -122 63 -122 c 0
EndSplineSet
Validated: 1
Substitution2: "'ccmp' Pali-Sanskrit Descender Removal" uni0E10.descless
Substitution2: "Thai Descender Removal Single Substitution" uni0E10.descless
EndChar

StartChar: uni0E11
Encoding: 3601 3601 145
Width: 743
Flags: W
HStem: 0 21G<262 364.556 556 659.56> 254 38<182.467 256.472> 390 36<182.41 255.834> 459 21G<291.532 328.242> 507 85<667 758.5> 579 20G<228 290.162 387.216 442.5>
VStem: 125 48<298.812 423.798> 266 39<300.213 381.559> 399 95<415.648 524.489> 689 106<428.969 555.938>
DStem2: 262 0 359 0 0.263873 0.964557<25.5957 323.064 385.629 519.168> 455 347 481 308 0.648466 0.761243<0 262.79> 556 0 654 0 0.263873 0.964557<25.8596 505.573>
LayerCount: 2
Fore
SplineSet
125 369 m 0xfbc0
 125 455 178 555 278 599 c 1
 323 525 l 1
 411 599 l 1xf7c0
 474 591 494 556 494 512 c 0
 494 494 490 474 485 455 c 2
 455 347 l 1
 582 490 l 2
 643 559 702 592 742 592 c 0
 775 592 795 570 795 529 c 0
 795 516 793 500 788 482 c 2
 654 0 l 1
 556 0 l 1
 687 473 l 2
 689 478 689 483 689 488 c 0
 689 500 683 507 673 507 c 0
 661 507 642 496 619 470 c 2
 481 308 l 18
 459 282 427 246 419 216 c 2
 359 0 l 1
 262 0 l 1
 397 485 l 2
 398 491 399 496 399 501 c 0
 399 513 395 522 384 525 c 1
 304 459 l 1
 256 536 l 1
 220 515 190 480 176 414 c 1
 192 426 203 426 221 426 c 0
 277 425 305 384 305 342 c 0
 305 298 275 254 218 254 c 0
 152 254 125 308 125 369 c 0xfbc0
220 292 m 0
 251 292 266 316 266 340 c 0
 266 365 251 390 219 390 c 0
 188 390 173 366 173 342 c 0
 173 317 188 292 220 292 c 0
EndSplineSet
Validated: 1
EndChar

StartChar: uni0E12
Encoding: 3602 3602 146
Width: 761
Flags: W
HStem: -8 57<359.705 399.677> 0 21G<85 188.524 598 682.537> 399 43<300.623 382.309> 459 21G<355.421 399.895> 578 20G<305.5 346.805 465.987 515.5 739.44 842>
VStem: 121 61<277.845 424.911> 129 92<204 288.175> 250 40<304.908 388.082> 314 45<49.3474 123.867> 392 45<304.075 390.021> 505 92<373.719 530.404>
DStem2: 82.8114 -8 180.811 -8 0.263873 0.964557<34.1535 190.135> 377.87 -8 473.88 -8 0.263873 0.964557<55.4815 159.659 224.474 501.457> 389 521 372 459 0.812696 0.582688<0 83.9097> 577.7 -8 674.811 -8 0.263873 0.964557<145.144 626.739>
LayerCount: 2
Back
SplineSet
842 596 m 1
 677 0 l 1
 598 0 l 0
 615 78 555 129 513 135 c 1
 490 52 467 -8 385 -8 c 0
 322 -8 305 40 319 89 c 0
 332 137 375 187 433 190 c 1
 491 401 l 2
 514 482 508 511 478 535 c 1
 372 459 l 1
 309 535 l 1
 273 524 204 476 183 402 c 0
 155 300 214 227 209 164 c 1
 253 214 299 228 308 238 c 1
 267 249 245 284 245 330 c 0
 245 358 259 422 340 422 c 0
 386 422 431 380 431 329 c 0
 431 305 422 280 399 255 c 0
 336 187 232 146 201 65 c 1
 183 0 l 1
 85 0 l 1
 115 109 l 2
 129 158 96 261 130 384 c 0
 172 535 279 581 332 598 c 1
 389 521 l 1
 493 598 l 1
 549 581 625 539 586 396 c 2
 527 184 l 1
 544 180 593 167 616 132 c 1
 745 596 l 1
 842 596 l 1
399 68 m 0
 420 146 l 17
 393 144 368 116 361 90 c 0
 357 77 358 64 364 55 c 0
 371 45 393 46 399 68 c 0
335 275 m 0
 368 275 385 301 386 328 c 0
 386 353 369 379 336 379 c 0
 302 379 285 353 284 326 c 0
 284 301 301 275 335 275 c 0
EndSplineSet
Fore
SplineSet
309 535 m 1xbde0
 212 505 182 435 182 371 c 0xbde0
 182 303 221 259 221 210 c 2
 221 204 l 1
 264 254 305 248 314 258 c 1
 273 269 250 304 250 350 c 0
 250 378 265 442 346 442 c 0
 392 442 437 400 437 349 c 0
 437 325 427 300 404 275 c 0
 341 207 244 186 212 105 c 1
 183 0 l 1
 85 0 l 1
 126 149 l 2
 128 157 129 166 129 177 c 0x7be0
 129 207 121 246 121 295 c 0
 121 327 125 363 136 404 c 0
 178 555 279 581 332 598 c 1
 389 521 l 1
 493 598 l 1
 538 584 597 554 597 467 c 0
 597 447 593 423 586 396 c 2
 527 184 l 1
 544 180 593 167 616 132 c 1
 745 596 l 1
 842 596 l 1
 677 0 l 1
 598 0 l 1x7de0
 600 9 601 18 601 27 c 0
 601 90 550 130 513 135 c 1
 490 52 467 -8 385 -8 c 0
 336 -8 314 22 314 58 c 0
 314 116 365 186 433 190 c 1
 491 401 l 2
 500 434 505 459 505 478 c 0
 505 505 496 521 478 535 c 1
 372 459 l 1
 309 535 l 1xbde0
359 75 m 0
 359 64 362 49 377 49 c 0
 386 49 395 55 399 68 c 2
 420 146 l 17
 389 144 359 105 359 75 c 0
341 295 m 0
 374 295 392 321 392 348 c 0
 392 373 375 399 342 399 c 0
 308 399 290 373 290 346 c 0
 290 321 307 295 341 295 c 0
EndSplineSet
Validated: 1
EndChar

StartChar: uni0E13
Encoding: 3603 3603 147
Width: 762
Flags: W
HStem: -6 44<186.576 269.812 607.343 690.699> 0 21G<361 463> 132 51<609.727 627> 143 44<229 269.266> 378 44<201 217 281.232 368> 545 53<321.262 447.499>
VStem: 110 66<48.1418 133.543> 279 43<47.6555 133.247> 479 99<350.156 514.744> 559 43<41.2894 120.743> 696 43<41.2147 124.725>
DStem2: 76.3417 -10 175.107 -10 0.263873 0.964557<230.3 399.981> 358.264 -10 457.795 -10 0.263873 0.964557<35.6993 107.206 167.261 473.956> 574.201 -10 671.739 -10 0.263873 0.964557<200.092 628.799>
LayerCount: 2
Fore
SplineSet
322 92 m 0x5fa0
 321 45 291 -6 218 -6 c 0
 138 -6 110 55 110 101 c 0
 110 109 111 117 113 124 c 2
 166 315 l 2
 172 336 196 373 217 378 c 1
 137 378 l 1
 181 522 315 598 424 598 c 0
 508 598 578 552 578 455 c 0x9fa0
 578 439 575 421 571 401 c 1
 495 126 l 1
 522 147 570 183 625 183 c 2
 627 183 l 1
 742 596 l 1
 839 596 l 1
 727 192 l 2
 725 183 712 164 704 158 c 1
 726 144 739 114 739 83 c 0
 739 38 711 -10 647 -10 c 0
 576 -10 559 49 559 80 c 0xaf60
 559 96 562 112 568 121 c 1
 507 86 469 23 457 0 c 1
 361 0 l 1
 472 401 l 2
 477 419 479 435 479 449 c 0
 479 513 437 545 382 545 c 0
 321 545 247 505 201 422 c 1
 380 422 l 1
 368 378 l 1
 321 378 l 2
 294 378 275 355 267 326 c 2
 229 187 l 1
 290 186 322 139 322 92 c 0x5fa0
649 34 m 0
 680 34 696 58 696 83 c 0
 696 108 681 132 649 132 c 0
 618 132 602 108 602 83 c 0x2f60
 602 58 617 34 649 34 c 0
228 38 m 0x9f20
 262 38 279 64 279 90 c 0
 278 116 262 143 227 143 c 0
 194 143 176 117 176 91 c 0
 177 65 194 38 228 38 c 0x9f20
EndSplineSet
Validated: 1
EndChar

StartChar: uni0E14
Encoding: 3604 3604 148
Width: 579
Flags: W
HStem: 0 21G<96 199.524 399 500.534> 427 43<322.1 404.375> 548 50<297.377 486.61>
VStem: 135 61<236.453 430.018> 141 90<203 303.261> 272 41<332.466 417.79> 414 46<331.576 418.021> 519 98<366.938 516.213>
DStem2: 96 0 194 0 0.263873 0.964557<25.8596 189.954> 399 0 495 0 0.263873 0.964557<25.3318 467.976>
LayerCount: 2
Back
SplineSet
495 0 m 1
 399 0 l 1
 513 412 l 2
 529 470 515 548 417 548 c 0
 302 548 220 487 196 399 c 0
 175 323 217 240 220 163 c 1
 263 212 310 240 330 266 c 1
 289 277 266 310 266 358 c 0
 266 386 280 450 362 450 c 0
 410 450 454 408 454 357 c 0
 454 335 445 311 425 288 c 0
 354 210 228 115 212 65 c 1
 194 0 l 1
 96 0 l 1
 122 94 l 2
 145 177 111 270 142 384 c 0
 195 574 358 598 431 598 c 0
 547 598 646 545 609 412 c 2
 495 0 l 1
357 303 m 0
 391 303 408 329 409 356 c 0
 409 381 392 407 358 407 c 0
 324 407 308 381 307 354 c 0
 307 329 324 303 357 303 c 0
EndSplineSet
Fore
SplineSet
417 548 m 0xf7
 240 548 196 447 196 379 c 0xf7
 196 320 229 266 231 203 c 1
 274 252 315 260 335 286 c 1
 294 297 272 330 272 378 c 0
 272 406 285 470 367 470 c 0
 415 470 460 428 460 377 c 1
 459 355 451 331 430 308 c 0
 360 230 239 155 223 105 c 1
 194 0 l 1
 96 0 l 1
 133 134 l 2
 139 155 141 175 141 195 c 0xef
 141 230 135 266 135 307 c 0
 135 336 138 368 148 404 c 0
 201 594 358 598 431 598 c 0
 530 598 617 559 617 465 c 0
 617 449 614 431 609 412 c 2
 495 0 l 1
 399 0 l 1
 513 412 l 2
 517 425 519 439 519 453 c 0
 519 501 493 548 417 548 c 0xf7
363 323 m 0
 397 323 414 349 414 376 c 0
 414 401 397 427 363 427 c 0
 329 427 313 401 313 374 c 0
 313 349 330 323 363 323 c 0
EndSplineSet
Validated: 1
EndChar

StartChar: uni0E15
Encoding: 3605 3605 149
Width: 582
Flags: W
HStem: 0 21G<98 201.524 399 500.556> 399 43<312.732 394.781> 459 21G<367.947 413.737> 578 20G<318.5 358.805 482.429 534>
VStem: 134 62<281.3 425.571> 143 91<201 296.905> 262 41<304.838 388.462> 405 47<305.197 389.625> 524 92<376.688 530.404>
DStem2: 98 0 196 0 0.263873 0.964557<25.8596 195.723> 399 0 495 0 0.263873 0.964557<25.3318 493.178> 401 521 384 459 0.829784 0.558085<0 91.534>
LayerCount: 2
Back
SplineSet
495 0 m 1
 399 0 l 1
 510 401 l 2
 533 482 527 511 497 535 c 1
 384 459 l 1
 323 535 l 1
 285 524 217 476 196 402 c 0
 172 315 228 224 223 161 c 1
 266 210 308 223 321 238 c 1
 264 255 257 307 257 330 c 0
 257 358 274 422 353 422 c 0
 407 422 445 376 446 328 c 0
 446 305 437 282 418 262 c 0
 352 194 245 146 214 65 c 1
 196 0 l 1
 98 0 l 1
 124 94 l 2
 151 192 107 255 142 384 c 0
 184 535 293 581 344 598 c 1
 401 521 l 1
 511 598 l 1
 568 581 644 539 605 396 c 2
 495 0 l 1
347 275 m 0
 381 275 398 301 399 328 c 0
 399 353 382 379 348 379 c 0
 315 379 298 353 297 326 c 0
 298 301 314 275 347 275 c 0
EndSplineSet
Fore
SplineSet
323 535 m 1xfb80
 232 509 196 442 196 380 c 0xfb80
 196 315 234 259 234 209 c 2
 234 201 l 1xf780
 277 250 313 243 327 258 c 1
 269 275 263 327 262 350 c 1
 263 378 280 442 359 442 c 0
 413 442 451 396 452 348 c 1
 447 239 268 213 225 105 c 1
 196 0 l 1xfb80
 98 0 l 1
 135 134 l 2
 141 157 143 177 143 195 c 0xf780
 143 234 134 267 134 311 c 0
 134 337 138 367 148 404 c 0
 190 555 293 581 344 598 c 1
 401 521 l 1
 511 598 l 1
 557 584 616 554 616 467 c 0
 616 447 612 423 605 396 c 2
 495 0 l 1
 399 0 l 1
 510 401 l 2
 519 434 524 459 524 478 c 0
 524 505 515 521 497 535 c 1
 384 459 l 1
 323 535 l 1xfb80
353 295 m 0
 387 295 404 321 405 348 c 1
 404 373 388 399 354 399 c 0
 321 399 303 373 303 346 c 1
 304 321 320 295 353 295 c 0
EndSplineSet
Validated: 1
EndChar

StartChar: uni0E16
Encoding: 3606 3606 150
Width: 574
Flags: W
HStem: -6 44<186.576 269.812> 143 44<229 269.266> 378 44<202 217 281.232 368> 543 56<330.997 472.038>
VStem: 110 66<48.1418 133.543> 279 43<47.6555 133.247> 509 96<352.625 505.386>
DStem2: 77.436 -6 176.201 -6 0.263873 0.964557<226.153 395.834> 389.359 -6 485.359 -6 0.263873 0.964557<31.5523 465.997>
LayerCount: 2
Fore
SplineSet
322 92 m 0
 321 45 291 -6 218 -6 c 0
 138 -6 110 55 110 101 c 0
 110 109 111 117 113 124 c 2
 166 315 l 2
 172 336 196 373 217 378 c 1
 137 378 l 1
 181 522 323 599 439 599 c 0
 530 599 605 552 605 455 c 0
 605 439 602 421 598 402 c 1
 487 0 l 1
 391 0 l 1
 503 404 l 2
 507 419 509 432 509 445 c 0
 509 510 458 543 396 543 c 0
 328 543 247 504 202 422 c 1
 380 422 l 1
 368 378 l 1
 321 378 l 2
 294 378 275 355 267 326 c 2
 229 187 l 1
 290 186 322 139 322 92 c 0
228 38 m 0
 262 38 279 64 279 90 c 0
 278 116 262 143 227 143 c 0
 194 143 176 117 176 91 c 0
 177 65 194 38 228 38 c 0
EndSplineSet
Validated: 1
EndChar

StartChar: uni0E17
Encoding: 3607 3607 151
Width: 624
Flags: W
HStem: 0 21G<147 248.556 441 544.56> 392 49<213.538 254.582> 507 85<552 643.5> 545 51<212.593 294.707>
VStem: 157 46<449.112 536.533> 305 72<450.019 535.768> 574 106<428.969 555.938>
DStem2: 147 0 243 0 0.263873 0.964557<25.3318 322.8 385.365 406.869> 339 347 365 308 0.651177 0.758926<0 263.66> 441 0 539 0 0.263873 0.964557<25.8596 505.573>
LayerCount: 2
Fore
SplineSet
253 392 m 2xee
 252 392 157 397 157 495 c 0
 157 545 189 596 258 596 c 0xde
 363 596 377 525 377 493 c 0
 377 486 377 481 376 479 c 2
 339 347 l 1
 467 490 l 2
 528 559 587 592 627 592 c 0
 660 592 680 570 680 529 c 0
 680 516 678 500 673 482 c 2
 539 0 l 1
 441 0 l 1
 572 473 l 2
 574 478 574 483 574 488 c 0
 574 500 568 507 558 507 c 0
 546 507 527 496 504 470 c 2
 365 308 l 18
 343 282 311 246 303 216 c 2
 243 0 l 1
 147 0 l 1
 256 392 l 1
 253 392 l 2xee
253 441 m 0
 287 441 305 467 305 494 c 1
 304 519 288 545 254 545 c 0
 220 545 203 519 203 492 c 1
 204 467 219 441 253 441 c 0
EndSplineSet
Validated: 1
EndChar

StartChar: uni0E18
Encoding: 3608 3608 152
Width: 484
Flags: W
HStem: 0 45<50 92 190 310.667> 489 76<402.423 532.375> 528 70<260.214 384.081>
VStem: 398 99<271.273 372.411>
DStem2: 79.6894 0 177.689 0 0.263873 0.964557<72.5131 377.832> 213 478 137 445 0.957187 -0.289472<0 213.401> 303.37 0 400.172 0 0.263873 0.964557<58.2796 364.268>
LayerCount: 2
Fore
SplineSet
587 585 m 0xd0
 587 572 547 489 466 489 c 0xd0
 407 489 347 528 294 528 c 0
 264 528 237 516 213 478 c 1
 453 407 l 2
 464 403 497 397 497 360 c 0
 497 353 496 344 493 335 c 2
 433 120 l 2
 411 38 360 0 292 0 c 2
 38 0 l 1
 50 45 l 1
 92 45 l 1
 181 364 l 1
 279 364 l 1
 190 45 l 1
 250 45 l 2
 293 45 320 61 331 101 c 2
 395 333 l 2
 397 341 398 347 398 352 c 0
 398 363 393 368 385 370 c 2
 137 445 l 1
 171 499 233 598 344 598 c 0xb0
 388 598 451 565 503 565 c 0
 555 565 557 594 579 594 c 0
 584 594 587 592 587 585 c 0xd0
EndSplineSet
Validated: 1
EndChar

StartChar: uni0E19
Encoding: 3609 3609 153
Width: 632
Flags: W
HStem: -8 46<466.928 545.628> 0 21G<147 234> 137 49<465.265 487> 392 49<211.324 254.582> 545 51<212.593 294.921>
VStem: 147 77<0 25.1743> 157 46<449.112 536.533> 305 72<451.488 536.119> 410 48<45.658 129.431> 553 49<44.9436 129.704>
DStem2: 144.811 -8 241.597 -8 0.263873 0.964557<148.672 415.163> 433.928 -8 530.824 -8 0.263873 0.964557<206.908 626.415>
LayerCount: 2
Fore
SplineSet
253 392 m 2x7dc0
 252 392 157 397 157 495 c 0
 157 545 189 596 258 596 c 0
 363 596 377 525 377 493 c 0
 377 486 377 481 376 479 c 2
 284 147 l 2
 280 135 275 123 271 111 c 1
 321 152 379 184 487 186 c 1
 600 596 l 1
 698 596 l 1
 588 201 l 2
 586 193 573 176 566 170 c 1
 589 152 602 121 602 90 c 0
 602 41 571 -8 504 -8 c 0xbbc0
 442 -8 410 43 410 87 c 0
 410 103 414 118 422 130 c 1
 325 119 244 34 224 0 c 1
 147 0 l 1
 256 392 l 1
 253 392 l 2x7dc0
253 441 m 0
 287 441 305 467 305 494 c 0
 305 519 288 545 254 545 c 0
 220 545 203 519 203 492 c 0
 203 467 219 441 253 441 c 0
506 38 m 0
 538 38 553 62 553 87 c 0
 553 112 537 137 505 137 c 0
 474 137 458 113 458 88 c 0
 458 63 475 38 506 38 c 0
EndSplineSet
Validated: 1
EndChar

StartChar: uni0E1A
Encoding: 3610 3610 154
Width: 618
Flags: W
HStem: 0 45<105 159 255 440.278> 392 49<213.538 254.582> 545 51<212.593 294.707>
VStem: 157 46<449.112 536.533> 305 72<450.894 535.768>
DStem2: 146.689 0 242.689 0 0.263873 0.964557<71.9853 406.951> 434.002 0 532.172 0 0.263873 0.964557<64.3233 618.415>
LayerCount: 2
Fore
SplineSet
253 392 m 2
 252 392 157 397 157 495 c 0
 157 545 189 596 258 596 c 0
 363 596 377 525 377 493 c 0
 377 486 377 481 376 479 c 2
 255 45 l 1
 393 45 l 2
 419 45 454 63 463 106 c 1
 599 596 l 1
 697 596 l 1
 565 120 l 1
 556 74 506 0 421 0 c 2
 93 0 l 1
 105 45 l 1
 159 45 l 1
 256 392 l 1
 253 392 l 2
253 441 m 0
 287 441 305 467 305 494 c 1
 304 519 288 545 254 545 c 0
 220 545 203 519 203 492 c 1
 204 467 219 441 253 441 c 0
EndSplineSet
Validated: 1
EndChar

StartChar: uni0E1B
Encoding: 3611 3611 155
Width: 634
Flags: W
HStem: 0 45<105 159 255 454.677> 392 49<213.538 254.582> 545 51<212.593 294.707>
VStem: 157 46<449.112 536.533> 305 72<450.894 535.768>
DStem2: 146.689 0 242.689 0 0.263873 0.964557<71.9853 406.951> 448.002 0 546.172 0 0.263873 0.964557<64.5212 1000.29>
AnchorPoint: "AboveBase" 563 630 basechar 0
LayerCount: 2
Fore
SplineSet
253 392 m 2
 252 392 157 397 157 495 c 0
 157 545 189 596 258 596 c 0
 363 596 377 525 377 493 c 0
 377 486 377 481 376 479 c 2
 255 45 l 1
 408 45 l 2
 434 45 468 63 477 106 c 1
 715 964 l 1
 813 964 l 1
 579 120 l 1
 570 74 522 0 435 0 c 2
 93 0 l 1
 105 45 l 1
 159 45 l 1
 256 392 l 1
 253 392 l 2
253 441 m 0
 287 441 305 467 305 494 c 1
 304 519 288 545 254 545 c 0
 220 545 203 519 203 492 c 1
 204 467 219 441 253 441 c 0
EndSplineSet
Validated: 1
EndChar

StartChar: uni0E1C
Encoding: 3612 3612 156
Width: 618
Flags: W
HStem: 0 21G<76 180.294 434 537.537> 397 48<294.678 376.386> 550 48<294.497 376.58>
VStem: 386 47<454.159 540.963>
DStem2: 76 0 175 0 0.263873 0.964557<26.1234 121.758 157.967 450.181> 245 183 203 66 0.643923 0.765091<-68.3234 172.294> 415 382 389 287 0.229039 -0.973417<86.5196 257.526> 434 0 532 0 0.263873 0.964557<25.8596 47.1357 138.693 618.679>
LayerCount: 2
Fore
SplineSet
697 596 m 1
 532 0 l 1
 434 0 l 1
 443 34 l 2
 444 39 445 43 445 46 c 0
 445 56 442 62 441 66 c 2
 389 287 l 1
 203 66 l 2
 199 61 190 54 184 34 c 2
 175 0 l 1
 76 0 l 1
 209 478 l 2
 225 539 246 598 340 598 c 0
 402 598 433 547 433 496 c 0
 433 446 403 397 343 397 c 0
 326 397 308 401 287 409 c 1
 225 187 l 2
 218 163 203 129 203 129 c 1
 203 129 233 169 245 183 c 2
 415 382 l 1
 468 187 l 2
 472 172 477 132 477 132 c 1
 477 132 480 166 487 190 c 2
 600 596 l 1
 697 596 l 1
335 445 m 0
 369 445 386 471 386 498 c 0
 386 524 369 550 335 550 c 0
 302 550 286 524 286 498 c 0
 286 471 302 445 335 445 c 0
EndSplineSet
Validated: 1
EndChar

StartChar: uni0E1D
Encoding: 3613 3613 157
Width: 631
Flags: W
HStem: 0 21G<76 180.294 448 551.539> 397 48<294.678 376.386> 550 48<294.497 376.58>
VStem: 386 47<454.159 540.963>
DStem2: 76 0 175 0 0.263873 0.964557<26.1234 122.729 157.967 450.181> 245 183 203 66 0.650245 0.759725<-68.2992 185.227> 425 390 399 295 0.241538 -0.970391<85.9072 266.274> 448 0 546 0 0.263873 0.964557<25.8596 49.9844 138.693 1000.29>
AnchorPoint: "AboveBase" 560 630 basechar 0
LayerCount: 2
Fore
SplineSet
287 409 m 1
 225 187 l 2
 218 163 203 129 203 129 c 1
 203 129 233 169 245 183 c 2
 425 390 l 1
 483 187 l 2
 488 172 491 132 491 132 c 1
 491 132 494 166 501 190 c 2
 715 964 l 1
 813 964 l 1
 546 0 l 1
 448 0 l 1
 457 34 l 2
 459 40 459 45 459 49 c 0
 459 57 457 62 456 66 c 2
 399 295 l 1
 203 66 l 2
 199 61 190 54 184 34 c 2
 175 0 l 1
 76 0 l 1
 209 478 l 2
 225 539 246 598 340 598 c 0
 402 598 433 547 433 496 c 0
 433 446 403 397 343 397 c 0
 326 397 308 401 287 409 c 1
335 445 m 0
 369 445 386 471 386 498 c 0
 386 524 369 550 335 550 c 0
 302 550 286 524 286 498 c 0
 286 471 302 445 335 445 c 0
EndSplineSet
Validated: 1
EndChar

StartChar: uni0E1E
Encoding: 3614 3614 158
Width: 689
Flags: W
HStem: 0 21G<148 249.644 509.556 607.537> 392 49<213.538 254.582> 545 51<212.593 295.037>
VStem: 157 46<449.112 536.533> 305 74<450.332 535.916> 500 44<418.5 450>
DStem2: 148.761 0 245.787 0 0.263873 0.964557<23.5478 45.3885 189.011 406.404> 506.953 0 603.953 0 0.263873 0.964557<167.847 617.9> 532 588 500 450 0.503154 0.864197<-494.11 -135.36>
LayerCount: 2
Fore
SplineSet
253 392 m 2
 252 392 157 397 157 495 c 0
 157 545 189 596 258 596 c 0
 365 596 379 522 379 491 c 0
 379 485 379 481 378 479 c 2
 315 253 l 2
 308 226 280 160 280 160 c 1
 285 160 l 1
 285 160 312 217 329 249 c 1
 532 588 l 1
 544 588 l 1
 558 249 l 1
 558 217 552 160 552 160 c 1
 558 160 l 1
 558 160 568 226 575 253 c 2
 670 596 l 1
 767 596 l 1
 602 0 l 1
 510 0 l 1
 500 450 l 1
 238 0 l 1
 148 0 l 1
 256 392 l 1
 253 392 l 2
253 441 m 0
 287 441 305 467 305 494 c 1
 304 519 288 545 254 545 c 0
 220 545 203 519 203 492 c 1
 204 467 219 441 253 441 c 0
EndSplineSet
Validated: 1
EndChar

StartChar: uni0E1F
Encoding: 3615 3615 159
Width: 689
Flags: W
HStem: 0 21G<148 249.644 509.556 607.539> 392 49<213.538 254.582> 545 51<212.593 295.037>
VStem: 157 46<449.112 536.533> 305 74<450.332 535.916> 500 44<418.5 450>
DStem2: 148.761 0 245.787 0 0.263873 0.964557<23.5478 45.3885 189.011 406.404> 509.279 0 605.279 0 0.263873 0.964557<167.233 999.422> 532 588 500 450 0.503154 0.864197<-494.11 -135.36>
AnchorPoint: "AboveBase" 619 630 basechar 0
LayerCount: 2
Fore
SplineSet
253 392 m 2
 252 392 157 397 157 495 c 0
 157 545 189 596 258 596 c 0
 365 596 379 522 379 491 c 0
 379 485 379 481 378 479 c 2
 315 253 l 2
 308 226 280 160 280 160 c 1
 285 160 l 1
 285 160 312 217 329 249 c 1
 532 588 l 1
 544 588 l 1
 558 249 l 1
 558 217 552 160 552 160 c 1
 558 160 l 1
 558 160 568 226 575 253 c 2
 773 964 l 1
 869 964 l 1
 602 0 l 1
 510 0 l 1
 500 450 l 1
 238 0 l 1
 148 0 l 1
 256 392 l 1
 253 392 l 2
253 441 m 0
 287 441 305 467 305 494 c 1
 304 519 288 545 254 545 c 0
 220 545 203 519 203 492 c 1
 204 467 219 441 253 441 c 0
EndSplineSet
Validated: 1
EndChar

StartChar: uni0E20
Encoding: 3616 3616 160
Width: 588
Flags: W
HStem: -8 45<83.2319 166.855> 0 21G<405 509.553> 141 45<84.1762 148.729> 378 44<221 234 301.449 387> 544 55<350.296 488.324>
VStem: 33 41<46.8195 130.817> 525 97<355.523 509.26>
DStem2: 93.2012 -8 192.643 -8 0.263873 0.964557<195.853 396.533> 402.811 -8 501.811 -8 0.263873 0.964557<34.4174 473.511>
LayerCount: 2
Fore
SplineSet
504 0 m 1x7e
 405 0 l 1x7e
 520 413 l 2
 524 426 525 439 525 450 c 0
 525 512 476 544 415 544 c 0
 347 544 264 504 221 422 c 1
 399 422 l 1
 387 378 l 1
 338 378 l 2
 312 378 290 346 282 318 c 2
 220 92 l 2
 202 29 188 -8 122 -8 c 0xbe
 65 -8 33 43 33 92 c 0
 33 140 62 186 126 186 c 0
 132 186 139 186 146 185 c 1
 179 304 l 2
 186 329 213 373 234 378 c 1
 157 378 l 1
 201 522 343 599 459 599 c 0
 548 599 622 552 622 455 c 0
 622 440 621 424 617 407 c 2
 504 0 l 1x7e
125 37 m 0xbe
 159 37 176 63 177 90 c 0
 177 115 160 141 126 141 c 0
 92 141 75 115 74 88 c 0
 74 63 91 37 125 37 c 0xbe
EndSplineSet
Validated: 1
EndChar

StartChar: uni0E21
Encoding: 3617 3617 161
Width: 621
Flags: W
HStem: -8 63<116.595 166.035> 0 21G<439.5 543.537> 187 46<151.953 199> 392 49<211.324 254.582> 545 51<212.593 294.921>
VStem: 68 46<55.7774 147.515> 157 46<449.112 536.533> 305 72<450.511 536.119>
DStem2: 145.294 -8 241.39 -8 0.263873 0.964557<60.4817 202.26 265.919 415.035> 439.625 -8 535.811 -8 0.263873 0.964557<126.483 626.495>
LayerCount: 2
Fore
SplineSet
292 177 m 1x7f
 270 99 256 -8 150 -8 c 0xbf
 92 -8 68 28 68 72 c 0
 68 136 123 227 212 233 c 1
 256 392 l 1
 253 392 l 2
 252 392 157 397 157 495 c 0
 157 545 189 596 258 596 c 0
 363 596 377 525 377 493 c 0
 377 486 377 481 376 479 c 2
 305 224 l 1
 353 215 432 175 473 114 c 1
 606 596 l 1
 703 596 l 1
 538 0 l 25
 448 0 l 17
 431 80 395 141 292 177 c 1x7f
253 441 m 0
 287 441 305 467 305 494 c 0
 305 519 288 545 254 545 c 0
 220 545 203 519 203 492 c 0
 203 467 219 441 253 441 c 0
114 93 m 0
 114 73 125 55 141 55 c 0
 151 55 163 60 168 75 c 2
 199 187 l 17
 158 186 114 136 114 93 c 0
EndSplineSet
Validated: 1
EndChar

StartChar: uni0E22
Encoding: 3618 3618 162
Width: 575
Flags: W
HStem: -8 46<220.645 374.475> 283 44<279.37 343> 398 47<294.714 377.082> 550 48<296.209 377.137>
VStem: 108 92<58.8058 191.072> 182 92<331.598 417.82> 386 48<453.885 541.28>
DStem2: 69.654 -8 167.277 -8 0.263873 0.964557<140.813 290.304> 389.342 -8 485.21 -8 0.263873 0.964557<114.497 626.569>
LayerCount: 2
Fore
SplineSet
182 379 m 0xf6
 182 418 219 598 339 598 c 0
 400 598 434 545 434 494 c 0
 434 446 403 398 336 398 c 0
 316 398 291 411 283 419 c 1
 277 400 274 384 274 372 c 0xf6
 274 341 290 327 318 327 c 2
 356 327 l 1
 343 283 l 1
 305 283 l 2
 272 283 241 258 225 203 c 2
 203 124 l 2
 201 116 200 109 200 102 c 0
 200 59 241 38 290 38 c 0
 355 38 411 71 426 126 c 2
 556 596 l 1
 652 596 l 1
 535 174 l 2
 505 65 411 -8 276 -8 c 0
 172 -8 108 32 108 112 c 0xfa
 108 127 111 144 116 163 c 2
 123 187 l 1
 142 257 189 289 219 306 c 1
 204 315 182 336 182 379 c 0xf6
335 445 m 0
 369 445 386 471 386 498 c 0
 386 524 369 550 335 550 c 0
 302 550 286 524 286 498 c 0
 286 471 302 445 335 445 c 0
EndSplineSet
Validated: 1
EndChar

StartChar: uni0E23
Encoding: 3619 3619 163
Width: 427
Flags: W
HStem: -4 50<202.012 282.794> 151 49<201.305 283.701> 495 71<400.29 511.98> 530 68<260.313 387.416>
VStem: 145 47<55.8181 142.284> 342 99<326.083 388.812>
DStem2: 212 478 137 445 0.956856 -0.290564<0 155.661> 242.022 -4 339.719 -4 0.263873 0.964557<196.982 386.854>
LayerCount: 2
Fore
SplineSet
558 585 m 0xec
 558 567 523 495 448 495 c 0xec
 398 495 356 530 298 530 c 0
 262 530 237 513 212 478 c 1
 401 422 l 2
 426 415 441 401 441 376 c 0
 441 368 440 360 437 350 c 2
 372 114 l 2
 368 100 369 -4 238 -4 c 0
 178 -4 145 47 145 99 c 0
 145 149 177 200 246 200 c 0
 254 200 280 196 294 186 c 1
 339 350 l 2
 341 357 342 364 342 370 c 0
 342 378 339 384 328 387 c 2
 137 445 l 1
 169 499 237 598 341 598 c 0xdc
 392 598 450 566 491 566 c 0
 527 566 530 594 550 594 c 0
 555 594 558 591 558 585 c 0xec
244 46 m 0
 277 46 293 72 293 98 c 0
 293 124 276 151 243 151 c 0
 209 151 193 125 192 99 c 0
 192 73 210 46 244 46 c 0
EndSplineSet
Validated: 1
EndChar

StartChar: uni0E24
Encoding: 3620 3620 164
Width: 571
Flags: W
HStem: -6 44<184.549 267.376> 143 44<227 267.266> 378 44<199 214 278.893 365> 543 56<328.335 467.064>
VStem: 107 67<47.5262 133.629> 277 43<47.2124 133.247> 505 97<352.297 507.205>
DStem2: 9.60014 -246 108.545 -246 0.263873 0.964557<475.019 645.892> 319 -246 416 -246 0.263873 0.964557<25.5957 715.045>
LayerCount: 2
Fore
SplineSet
320 92 m 0
 319 43 287 -6 216 -6 c 0
 136 -6 107 54 107 98 c 0
 107 107 108 114 110 121 c 2
 163 315 l 2
 169 336 193 373 214 378 c 1
 135 378 l 1
 179 522 321 599 437 599 c 0
 527 599 602 552 602 455 c 0
 602 439 599 421 595 402 c 1
 416 -246 l 1
 319 -246 l 1
 499 404 l 2
 503 419 505 433 505 445 c 0
 505 510 455 543 392 543 c 0
 325 543 244 504 199 422 c 1
 377 422 l 1
 365 378 l 1
 318 378 l 2
 291 378 273 355 265 326 c 2
 227 187 l 1
 288 186 320 139 320 92 c 0
226 38 m 0
 260 38 277 64 277 90 c 0
 276 116 260 143 225 143 c 0
 192 143 174 117 174 91 c 0
 175 65 192 38 226 38 c 0
EndSplineSet
Validated: 1
EndChar

StartChar: uni0E25
Encoding: 3621 3621 165
Width: 552
Flags: W
HStem: -6 47<173.249 256.923> 146 45<220 255.714> 376 54<301.689 427.283> 540 58<316.1 462.943>
VStem: 99 64<50.7387 136.904> 266 46<50.716 136.48> 493 93<380.203 510.146>
DStem2: 67.5303 -6 166.107 -6 0.263873 0.964557<230.25 369.537> 367.359 -6 463.359 -6 0.263873 0.964557<31.5523 319.539 400.022 478.281>
LayerCount: 2
Fore
SplineSet
465 0 m 1
 369 0 l 1
 447 283 l 2
 449 290 450 296 450 303 c 0
 450 342 418 376 369 376 c 0
 308 376 258 329 244 276 c 2
 220 191 l 1
 281 189 312 143 312 95 c 0
 311 45 278 -6 211 -6 c 0
 131 -6 99 52 99 98 c 0
 99 106 100 113 102 120 c 2
 143 266 l 2
 166 350 258 430 364 430 c 0
 423 430 459 410 476 379 c 1
 488 422 l 2
 491 434 493 445 493 456 c 0
 493 510 449 540 390 540 c 0
 325 540 244 505 184 430 c 1
 155 450 l 1
 236 554 337 598 420 598 c 0
 514 598 586 543 586 458 c 0
 586 444 584 429 580 413 c 2
 465 0 l 1
215 41 m 0
 248 41 266 67 266 93 c 0
 265 119 248 146 214 146 c 0
 180 146 163 120 163 94 c 0
 164 68 180 41 215 41 c 0
EndSplineSet
Validated: 1
EndChar

StartChar: uni0E26
Encoding: 3622 3622 166
Width: 583
Flags: W
HStem: -8 45<77.9733 160.271> 141 46<78.9056 144.476> 378 44<215 228 295.098 382> 544 55<344.296 482.896>
VStem: 27 42<46.2357 131.663> 520 97<358.75 509.707>
DStem2: 23.8182 -246 120.996 -246 0.263873 0.964557<443.635 645.149> 332 -246 430 -246 0.263873 0.964557<25.8596 720.441>
LayerCount: 2
Fore
SplineSet
332 -246 m 1
 515 413 l 2
 519 426 520 439 520 450 c 0
 520 512 471 544 409 544 c 0
 341 544 258 504 215 422 c 1
 394 422 l 1
 382 378 l 1
 332 378 l 2
 305 378 284 346 276 318 c 2
 211 83 l 2
 194 20 185 -8 118 -8 c 0
 59 -8 27 42 27 92 c 0
 27 140 57 187 122 187 c 0
 128 187 135 187 142 186 c 1
 174 304 l 2
 181 329 207 373 228 378 c 1
 151 378 l 1
 195 522 337 599 453 599 c 0
 543 599 617 553 617 456 c 0
 617 441 615 424 611 407 c 2
 430 -246 l 1
 332 -246 l 1
119 37 m 0
 152 37 169 63 170 90 c 0
 170 115 153 141 120 141 c 0
 86 141 69 115 69 88 c 0
 69 63 85 37 119 37 c 0
EndSplineSet
Validated: 1
EndChar

StartChar: uni0E27
Encoding: 3623 3623 167
Width: 478
Flags: W
HStem: -6 46<250.853 334.534> 144 46<252.077 336.317> 536 61<267.391 393.622>
VStem: 200 42<49.2141 134.327> 418 100<370.078 511.172>
DStem2: 294.031 -6 392.521 -6 0.263873 0.964557<185.577 479.859>
LayerCount: 2
Fore
SplineSet
511 421 m 2
 430 131 l 2
 407 46 388 -6 290 -6 c 0
 241 -6 200 34 200 91 c 0
 200 152 235 189 294 190 c 0
 309 190 333 182 343 173 c 1
 414 429 l 2
 417 439 418 449 418 458 c 0
 418 507 379 536 328 536 c 0
 276 536 211 506 164 436 c 1
 132 458 l 1
 194 554 288 597 367 597 c 0
 450 597 518 550 518 469 c 0
 518 454 516 438 511 421 c 2
293 40 m 0
 327 40 344 66 345 93 c 0
 345 118 328 144 294 144 c 0
 260 144 243 118 242 91 c 0
 242 66 259 40 293 40 c 0
EndSplineSet
Validated: 1
EndChar

StartChar: uni0E28
Encoding: 3624 3624 168
Width: 561
Flags: W
HStem: 0 21G<85 188.534 381 483.556> 249 44<294.456 377.494> 398 46<293.886 377.472> 545 54<293.146 462.303>
VStem: 127 51<320.209 438.887> 387 43<303.714 365.106>
DStem2: 85 0 183 0 0.263873 0.964557<25.8596 253.815> 381 0 478 0 0.263873 0.964557<25.5957 400.554>
LayerCount: 2
Fore
SplineSet
388 545 m 0
 254 545 178 440 178 375 c 0
 178 349 190 330 197 319 c 1
 200 319 l 1
 236 390 271 444 340 444 c 0
 378 444 408 422 420 395 c 1
 440 400 482 436 497 452 c 1
 494 510 457 545 388 545 c 0
127 349 m 0
 127 455 229 599 402 599 c 0
 474 599 541 581 572 539 c 1
 586 554 612 601 617 627 c 1
 715 627 l 1
 688 561 629 498 595 468 c 1
 596 463 596 457 596 451 c 0
 596 436 594 418 588 396 c 2
 478 0 l 1
 381 0 l 1
 488 386 l 17
 468 375 443 360 430 355 c 1
 430 347 l 2
 430 286 397 249 334 249 c 0
 310 249 288 264 273 277 c 1
 258 263 248 233 240 206 c 2
 183 0 l 1
 85 0 l 1
 150 233 l 2
 151 237 152 241 152 245 c 0
 152 273 127 298 127 349 c 0
336 293 m 0
 369 293 386 319 387 345 c 0
 387 371 369 398 335 398 c 0
 301 398 285 372 285 346 c 0
 286 320 302 293 336 293 c 0
EndSplineSet
Validated: 1
EndChar

StartChar: uni0E29
Encoding: 3625 3625 169
Width: 631
Flags: W
HStem: 0 45<105 159 255 454.677> 191 72<318.464 434.631> 191 48<403 470.183> 361 39<354.141 395.066> 392 49<213.538 254.582> 545 51<212.593 294.707>
VStem: 157 46<449.112 536.533> 305 72<450.082 535.768> 404 40<270.653 352.906>
DStem2: 146.689 0 242.689 0 0.263873 0.964557<71.9853 257.571> 448.455 0 546.172 0 0.263873 0.964557<64.4017 251.947 291.981 618.823>
LayerCount: 2
Fore
SplineSet
365 400 m 0x9780
 380 400 444 383 444 315 c 0
 444 283 428 251 403 239 c 1
 406 239 l 2
 460 239 536 297 550 361 c 1xb780
 615 596 l 1
 711 596 l 1
 579 120 l 1
 570 74 522 0 435 0 c 2
 93 0 l 1
 105 45 l 1
 159 45 l 1
 256 392 l 1
 253 392 l 2x8f80
 252 392 157 397 157 495 c 0
 157 545 189 596 258 596 c 0
 363 596 377 525 377 493 c 0
 377 486 377 481 376 479 c 2
 354 399 l 1
 358 400 362 400 365 400 c 0x9780
253 441 m 0x8f80
 287 441 305 467 305 494 c 1
 304 519 288 545 254 545 c 0
 220 545 203 519 203 492 c 1
 204 467 219 441 253 441 c 0x8f80
478 108 m 2
 515 243 l 1
 471 204 428 191 391 191 c 0xc780
 350 191 317 208 304 224 c 1
 304 224 264 75 255 45 c 1
 408 45 l 2
 434 45 466 65 478 108 c 2
358 263 m 0
 389 263 404 287 404 311 c 0
 404 336 389 361 357 361 c 0xd780
 326 361 311 337 311 313 c 0
 311 288 326 263 358 263 c 0
EndSplineSet
Validated: 1
EndChar

StartChar: uni0E2A
Encoding: 3626 3626 170
Width: 550
Flags: W
HStem: -6 47<173.249 256.923> 146 45<220 255.714> 335 47<368 410.328> 540 57<315.603 464.485>
VStem: 99 64<50.7387 137.279> 266 46<50.716 136.48> 490 98<367.828 436>
DStem2: 367.359 -6 463.359 -6 0.263873 0.964557<31.5523 267.526 345.206 458.651>
LayerCount: 2
Fore
SplineSet
220 191 m 1
 281 189 312 143 312 95 c 0
 311 45 278 -6 211 -6 c 0
 131 -6 99 52 99 98 c 0
 99 106 100 113 102 120 c 2
 132 227 l 2
 159 324 251 372 287 381 c 1
 338 402 429 449 487 488 c 1
 473 523 437 540 393 540 c 0
 326 540 241 501 184 430 c 1
 155 450 l 1
 233 551 335 597 421 597 c 0
 475 597 523 579 556 544 c 1
 584 570 606 599 617 627 c 1
 715 627 l 1
 698 584 643 528 584 490 c 1
 586 485 588 476 588 465 c 0
 588 452 586 434 580 413 c 2
 465 0 l 1
 369 0 l 1
 432 226 l 2
 434 235 436 244 436 253 c 0
 436 298 404 335 356 335 c 0
 295 335 247 290 233 238 c 2
 220 191 l 1
215 41 m 0
 248 41 266 67 266 93 c 0
 265 119 248 146 214 146 c 0
 180 146 163 120 163 94 c 0
 164 68 180 41 215 41 c 0
462 326 m 1
 487 415 l 2
 489 421 490 427 490 433 c 2
 490 436 l 1
 458 419 408 396 368 382 c 1
 405 382 455 366 462 326 c 1
EndSplineSet
Validated: 1
EndChar

StartChar: uni0E2B
Encoding: 3627 3627 171
Width: 618
Flags: W
HStem: 0 21G<137 241.567 438 541.559> 396 48<202.494 245.581> 548 48<203.653 285.223 559.77 645.283>
VStem: 150 43<453.52 538.116> 296 74<454.605 538.415> 506 46<454.291 541.693> 545 98<347.664 399.8> 653 45<454.967 542.081>
DStem2: 137 0 236 0 0.263873 0.964557<26.1234 218.565 282.049 410.991> 438 0 536 0 0.263873 0.964557<25.8596 406.113>
LayerCount: 2
Fore
SplineSet
242 396 m 2xfb
 201 396 150 433 150 497 c 0
 150 547 182 596 247 596 c 0
 355 596 370 521 370 492 c 0
 370 487 370 484 369 482 c 2
 303 247 l 1
 384 338 489 418 527 438 c 1
 514 457 507 478 506 499 c 1xfd
 506 549 545 596 605 596 c 0
 664 596 698 549 698 501 c 0
 698 446 665 420 640 409 c 1
 642 403 643 399 643 394 c 0
 643 387 641 380 638 367 c 2
 536 0 l 1
 438 0 l 1
 541 372 l 2
 543 380 545 387 545 392 c 0
 545 395 544 398 543 400 c 1
 419 328 303 175 290 157 c 1
 275 134 268 114 263 97 c 2
 236 0 l 1
 137 0 l 1
 247 396 l 1
 242 396 l 2xfb
244 444 m 0
 278 444 295 470 296 497 c 1
 295 522 279 548 245 548 c 0
 211 548 194 522 193 495 c 0
 193 470 210 444 244 444 c 0
602 446 m 0
 636 446 653 472 653 499 c 0
 653 524 637 550 603 550 c 0
 569 550 552 524 552 497 c 0
 552 472 569 446 602 446 c 0
EndSplineSet
Validated: 1
EndChar

StartChar: uni0E2C
Encoding: 3628 3628 172
Width: 679
Flags: W
HStem: 0 21G<138 241.881 499.465 600.56> 392 49<203.039 245.582> 545 51<203.593 286.037> 594 45<616.317 694.942>
VStem: 148 46<449.716 536.533> 296 74<450.332 535.916> 565 43<505.805 586.217> 702 45<546 587.033> 810 87<599.95 644>
DStem2: 139.761 0 236.787 0 0.263873 0.964557<23.8117 48.5155 189.011 406.404> 323 249 470 404 0.510735 0.859738<-99.9645 208.337> 516 558 470 404 0.0765078 -0.997069<150.029 331.108> 498.787 0 597.14 0 0.263873 0.964557<167.628 481.32>
LayerCount: 2
Fore
SplineSet
148 495 m 0xdf80
 148 545 180 596 249 596 c 0xef80
 356 596 370 522 370 491 c 0
 370 485 370 481 369 479 c 2
 306 253 l 2
 299 226 271 160 271 160 c 1
 277 160 l 1
 277 160 305 217 323 249 c 2
 508 558 l 1
 516 558 l 1
 547 249 l 2
 548 243 548 236 548 228 c 0
 548 198 544 160 544 160 c 1
 549 160 l 1
 549 160 561 226 568 253 c 2
 626 460 l 1
 586 473 566 511 565 549 c 1
 566 594 595 639 658 639 c 0
 711 639 747 599 747 546 c 1
 768 559 802 598 810 644 c 1
 897 644 l 1
 863 542 760 492 729 482 c 1
 595 0 l 1
 501 0 l 1
 470 404 l 1
 230 0 l 1
 138 0 l 1
 247 392 l 1
 223 392 148 408 148 495 c 0xdf80
244 441 m 0
 278 441 296 467 296 494 c 1
 295 519 279 545 245 545 c 0
 211 545 194 519 194 492 c 1
 195 467 210 441 244 441 c 0
655 499 m 0
 686 499 702 523 702 547 c 0
 702 571 687 594 656 594 c 0xdf80
 625 594 608 570 608 546 c 0
 608 522 623 499 655 499 c 0
EndSplineSet
Validated: 1
EndChar

StartChar: uni0E2D
Encoding: 3629 3629 173
Width: 539
Flags: W
HStem: -8 47<213.943 344.143> 247 48<245.106 327.415> 399 46<246.309 327.953> 540 58<301.296 447.338>
VStem: 104 93<56.9003 189.953> 338 45<303.926 389.88> 478 99<361.336 509.907>
DStem2: 66.6372 -8 165.136 -8 0.263873 0.964557<140.817 305.912> 353.889 -8 454.588 -8 0.263873 0.964557<111.134 479.807>
LayerCount: 2
Fore
SplineSet
500 158 m 2
 462 22 312 -8 260 -8 c 0
 201 -8 104 11 104 108 c 0
 104 124 107 141 112 160 c 2
 155 315 l 2
 168 359 212 445 291 445 c 0
 353 445 383 394 383 344 c 0
 383 295 354 247 298 247 c 0
 281 247 262 251 239 262 c 1
 200 124 l 2
 198 116 197 109 197 102 c 0
 197 60 233 39 274 39 c 0
 321 39 375 67 390 124 c 2
 473 422 l 2
 476 434 478 445 478 456 c 0
 478 510 434 540 375 540 c 0
 310 540 229 505 169 430 c 1
 139 450 l 1
 221 554 322 598 407 598 c 0
 503 598 577 543 577 457 c 0
 577 443 575 429 571 413 c 2
 500 158 l 2
287 295 m 0
 320 295 337 321 338 348 c 1
 336 373 321 399 288 399 c 0
 254 399 236 373 236 346 c 1
 237 321 253 295 287 295 c 0
EndSplineSet
Validated: 1
EndChar

StartChar: uni0E2E
Encoding: 3630 3630 174
Width: 539
Flags: W
HStem: -8 47<213.943 344.143> 176 47<225.185 307.906> 327 45<226.007 308.774> 409 46<237.566 428.461> 543 51<289.214 449.927>
VStem: 104 93<56.9003 189.039> 167 70<435 506.237> 318 44<232.739 318.231>
DStem2: 353.889 -8 454.588 -8 0.263873 0.964557<111.134 469.364>
LayerCount: 2
Fore
SplineSet
167 453 m 0xfb
 167 521 279 594 409 594 c 0
 454 594 496 585 527 564 c 1
 537 576 544 590 549 602 c 1
 642 602 l 17
 620 564 596 533 570 508 c 1
 575 495 578 480 578 462 c 0
 578 447 576 431 571 413 c 2
 500 158 l 2
 462 22 312 -8 260 -8 c 0
 201 -8 104 11 104 108 c 0
 104 124 107 141 112 160 c 2
 135 241 l 2
 147 286 192 372 270 372 c 0
 333 372 362 325 362 277 c 0
 362 227 331 176 274 176 c 0
 258 176 239 180 219 190 c 1
 200 124 l 2
 198 116 197 109 197 102 c 0xfd
 197 60 233 39 274 39 c 0
 321 39 375 67 390 124 c 2
 473 422 l 2
 475 430 477 438 478 445 c 1
 406 413 339 409 280 409 c 0
 209 409 167 417 167 453 c 0xfb
369 543 m 0
 292 543 237 505 237 480 c 0xfb
 237 464 260 455 318 455 c 0
 375 455 421 466 469 501 c 1
 450 531 410 543 369 543 c 0
267 223 m 0
 300 223 317 249 318 276 c 1
 316 301 301 327 268 327 c 0
 234 327 216 301 216 274 c 1
 217 249 233 223 267 223 c 0
EndSplineSet
Validated: 1
EndChar

StartChar: uni0E2F
Encoding: 3631 3631 175
Width: 514
Flags: W
HStem: 0 21G<319 423.556> 391 58<211.343 346.747> 553 45<211.011 292.556>
VStem: 151 51<457.405 544.317> 302 48<456.953 544.862>
DStem2: 319 0 418 0 0.263873 0.964557<26.1234 448.354>
LayerCount: 2
Fore
SplineSet
418 0 m 1
 319 0 l 1
 439 432 l 1
 388 402 333 391 286 391 c 0
 235 391 193 404 178 422 c 0
 159 443 151 469 151 494 c 0
 151 547 190 598 255 598 c 0
 313 598 350 550 350 500 c 0
 350 479 343 458 328 440 c 1
 436 450 480 525 499 594 c 1
 583 594 l 1
 418 0 l 1
252 449 m 0
 286 449 302 475 302 501 c 0
 302 527 285 553 252 553 c 0
 218 553 202 527 202 501 c 0
 202 475 219 449 252 449 c 0
EndSplineSet
Validated: 1
EndChar

StartChar: uni0E30
Encoding: 3632 3632 176
Width: 438
Flags: W
HStem: -6 60<110.937 285.746> 152 44<109.986 188.75> 396 60<222.071 349.711> 554 45<222.249 301.682>
VStem: 59 44<61.2416 145.758> 170 44<462.428 546.566> 197 45<62.0674 144.703> 309 45<463.039 547.059> 359 84<146.111 192> 471 84<548.47 594>
LayerCount: 2
Fore
SplineSet
555 594 m 1xfdc0
 497 444 389 396 291 396 c 0
 175 396 170 464 170 508 c 0
 170 542 191 599 264 599 c 0
 320 599 354 562 354 508 c 0
 354 491 350 472 334 452 c 1
 416 462 455 521 471 594 c 1
 555 594 l 1xfdc0
261 456 m 0
 293 456 309 480 309 505 c 0
 309 530 293 554 261 554 c 0
 230 554 214 530 214 505 c 0
 214 480 229 456 261 456 c 0
443 192 m 1
 385 41 277 -6 179 -6 c 0
 63 -6 59 52 59 97 c 0
 59 146 83 196 156 196 c 0
 216 196 242 146 242 106 c 0xfbc0
 242 89 227 61 201 48 c 1
 301 49 344 118 359 192 c 1
 443 192 l 1
150 54 m 0
 182 54 197 78 197 102 c 0
 197 127 181 152 149 152 c 0
 118 152 103 128 103 104 c 0
 103 79 118 54 150 54 c 0
EndSplineSet
Validated: 1
EndChar

StartChar: uni0E31
Encoding: 3633 3633 177
Width: 0
Flags: W
HStem: 676 49<6.32217 153.733> 880 49<-68.7531 14.0262>
VStem: -131 52<785.588 871.052> 22 50<784.44 872.079>
AnchorPoint: "AboveMark" 85 630 mark 0
AnchorPoint: "AboveMark" 183 983 basemark 0
AnchorPoint: "AboveBase" 85 630 mark 0
LayerCount: 2
Fore
SplineSet
406 923 m 1
 314 740 169 676 43 676 c 0
 -70 676 -131 733 -131 823 c 0
 -131 881 -83 929 -25 929 c 0
 37 929 72 875 72 826 c 0
 72 785 49 750 4 733 c 1
 22 728 41 725 61 725 c 0
 149 725 255 779 308 923 c 1
 406 923 l 1
-28 776 m 0
 5 776 21 802 22 829 c 0
 22 854 6 880 -27 880 c 0
 -61 880 -78 854 -79 827 c 0
 -79 802 -62 776 -28 776 c 0
EndSplineSet
Validated: 1
EndChar

StartChar: uni0E32
Encoding: 3634 3634 178
Width: 407
Flags: W
HStem: 0 21G<224 327.563> 541 57<235.949 342.417>
VStem: 355 100<402.977 527.556>
DStem2: 224 0 322 0 0.263873 0.964557<25.8596 500.131>
LayerCount: 2
Fore
SplineSet
322 0 m 1
 224 0 l 1
 352 460 l 2
 354 468 355 476 355 483 c 0
 355 521 326 541 286 541 c 0
 246 541 196 522 155 483 c 1
 135 509 l 1
 191 566 272 598 339 598 c 0
 404 598 455 568 455 501 c 0
 455 486 453 471 448 453 c 2
 322 0 l 1
EndSplineSet
Validated: 1
EndChar

StartChar: uni0E34
Encoding: 3636 3636 180
Width: 0
Flags: W
HStem: 726 45<-232.434 -58.0056> 839 55<-158.058 1.92643>
AnchorPoint: "AboveMark" 32 630 mark 0
AnchorPoint: "AboveMark" 136 983 basemark 0
AnchorPoint: "AboveBase" 85 630 mark 0
LayerCount: 2
Fore
SplineSet
107 636 m 1
 -6 694 -101 726 -207 726 c 0
 -246 726 -286 722 -329 713 c 1
 -267 833 -152 894 -54 894 c 0
 41 894 120 837 120 722 c 0
 120 697 116 668 107 636 c 1
70 708 m 1
 65 788 1 839 -77 839 c 0
 -127 839 -184 818 -233 768 c 1
 -214 770 -196 771 -176 771 c 0
 -91 771 2 750 70 708 c 1
EndSplineSet
Validated: 1
EndChar

StartChar: uni0E35
Encoding: 3637 3637 181
Width: 0
Flags: W
HStem: 726 45<-232.434 -58.0056> 839 55<-158.058 3.29785>
AnchorPoint: "AboveMark" 32 630 mark 0
AnchorPoint: "AboveMark" 136 983 basemark 0
AnchorPoint: "AboveBase" 85 630 mark 0
LayerCount: 2
Fore
SplineSet
107 636 m 1
 -6 694 -101 726 -207 726 c 0
 -246 726 -286 722 -329 713 c 1
 -267 833 -152 894 -54 894 c 0
 -13 894 24 883 54 862 c 1
 78 948 l 1
 173 948 l 1
 118 750 l 1
 119 741 120 731 120 721 c 0
 120 695 116 667 107 636 c 1
70 708 m 1
 65 788 1 839 -77 839 c 0
 -127 839 -184 818 -233 768 c 1
 -214 770 -196 771 -176 771 c 0
 -91 771 2 750 70 708 c 1
EndSplineSet
Validated: 1
EndChar

StartChar: uni0E36
Encoding: 3638 3638 182
Width: 0
Flags: W
HStem: 726 45<-232.018 -57.5624> 839 55<-157.856 3.21704> 906 48<61.2331 139.898>
VStem: 148 47<815.068 898.217>
AnchorPoint: "AboveMark" 32 630 mark 0
AnchorPoint: "AboveMark" 136 983 basemark 0
AnchorPoint: "AboveBase" 85 630 mark 0
LayerCount: 2
Fore
SplineSet
107 636 m 1
 -5 694 -100 726 -206 726 c 0
 -245 726 -286 722 -329 713 c 1
 -267 835 -149 894 -56 894 c 0
 -33 894 -11 890 8 883 c 1
 16 915 42 954 103 954 c 0
 160 954 195 906 195 858 c 0
 195 810 169 776 118 763 c 1
 119 750 120 737 120 724 c 0
 120 698 117 670 107 636 c 1
70 708 m 1
 65 788 0 839 -77 839 c 0
 -128 839 -184 818 -233 768 c 1
 -215 770 -196 771 -176 771 c 0
 -91 771 2 750 70 708 c 1
102 808 m 0
 132 808 148 831 148 854 c 0
 148 885 129 906 101 906 c 0
 69 906 54 882 54 858 c 0
 54 833 70 808 102 808 c 0
EndSplineSet
Validated: 1
EndChar

StartChar: uni0E37
Encoding: 3639 3639 183
Width: 0
Flags: W
HStem: 726 45<-232.434 -58.0056> 839 55<-157.751 -51>
DStem2: 9.72978 636 85.7188 636 0.263873 0.964557<220.827 324.935>
AnchorPoint: "AboveMark" 32 630 mark 0
AnchorPoint: "AboveMark" 78 983 basemark 0
AnchorPoint: "AboveBase" 85 630 mark 0
LayerCount: 2
Fore
SplineSet
107 636 m 1
 -6 694 -101 726 -207 726 c 0
 -246 726 -286 722 -329 713 c 1
 -268 833 -151 894 -53 894 c 2
 -51 894 l 1
 -35 949 l 1
 34 949 l 1
 17 879 l 1
 38 872 53 860 68 849 c 1
 97 949 l 1
 170 949 l 1
 118 754 l 1
 120 744 120 733 120 722 c 0
 120 696 116 667 107 636 c 1
70 708 m 1
 65 788 1 839 -77 839 c 0
 -127 839 -184 818 -233 768 c 1
 -214 770 -196 771 -176 771 c 0
 -91 771 2 750 70 708 c 1
EndSplineSet
Validated: 1
EndChar

StartChar: uni0E38
Encoding: 3640 3640 184
Width: 0
Flags: W
HStem: -227 41<-277.109 -246> -97 45<-279.743 -207.104>
VStem: -329 44<-179.551 -101.539> -200 70<-180.913 -102.338>
AnchorPoint: "BelowMark" -104 -52 mark 0
AnchorPoint: "BelowMark" -176 -312 basemark 0
AnchorPoint: "BelowBase" -104 -52 mark 0
LayerCount: 2
Fore
SplineSet
-329 -141 m 1
 -328 -107 -309 -52 -231 -52 c 0
 -175 -52 -130 -80 -130 -130 c 0
 -130 -136 -131 -142 -132 -149 c 2
 -176 -307 l 1
 -268 -307 l 1
 -246 -227 l 1
 -251 -227 l 2
 -284 -227 -329 -199 -329 -141 c 1
-200 -141 m 0
 -200 -117 -219 -97 -241 -97 c 0
 -271 -97 -285 -115 -285 -141 c 0
 -285 -164 -267 -186 -242 -186 c 0
 -215 -186 -200 -164 -200 -141 c 0
EndSplineSet
Validated: 1
Substitution2: "Thai Sara U Macron Reordering" macronbelowcmb
Substitution2: "Thai Sara U Phinthu Reordering" uni0E3A
Substitution2: "Thai Sara U Mai Ek Reordering" uni0E48.low
Substitution2: "Thai Sara U Mai Tho Reordering" uni0E49.low
Substitution2: "Thai Sara U Mai Tri Reordering" uni0E4A.low
Substitution2: "Thai Sara U Mai Chattawa Reordering" uni0E4B.low
Substitution2: "Thai Sara U Thanthakhat Reordering" uni0E4C.low
Substitution2: "Thai Sara U Nikhahit Reordering" uni0E4D
EndChar

StartChar: uni0E39
Encoding: 3641 3641 185
Width: 0
Flags: W
HStem: -319 39<-298.931 -255.702> -213 36<-387.72 -357> -88 38<-390.431 -322.116>
VStem: -434 36<-167.809 -96.1004> -365 66<-279.458 -209.43> -314 51<-171.561 -93.3616>
DStem2: -270.675 -319 -177.675 -319 0.263873 0.964557<55.4554 271.627>
AnchorPoint: "BelowMark" -104 -52 mark 0
AnchorPoint: "BelowMark" -179 -324 basemark 0
AnchorPoint: "BelowBase" -104 -52 mark 0
LayerCount: 2
Fore
SplineSet
-361 -213 m 2xf8
 -384 -213 -432 -186 -434 -132 c 1
 -434 -91 -404 -50 -351 -50 c 0
 -297 -50 -263 -78 -263 -122 c 0xf4
 -263 -131 -265 -141 -268 -151 c 2
 -297 -257 l 2
 -298 -260 -299 -262 -299 -264 c 0
 -299 -273 -292 -280 -283 -280 c 0
 -270 -280 -258 -272 -254 -257 c 2
 -199 -57 l 1
 -106 -57 l 1
 -149 -212 l 2
 -165 -270 -211 -319 -277 -319 c 0
 -332 -319 -365 -292 -365 -251 c 0
 -365 -243 -363 -235 -361 -226 c 2
 -357 -213 l 1
 -361 -213 l 2xf8
-314 -132 m 0
 -314 -108 -332 -88 -354 -88 c 0
 -381 -88 -397 -106 -398 -132 c 0
 -398 -155 -379 -177 -355 -177 c 0
 -329 -177 -314 -155 -314 -132 c 0
EndSplineSet
Validated: 1
Substitution2: "Thai Sara UU Macron Reordering" macronbelowcmb
Substitution2: "Thai Sara UU Phinthu Reordering" uni0E3A
Substitution2: "Thai Sara UU Mai Ek Reordering" uni0E48.low
Substitution2: "Thai Sara UU Mai Tho Reordering" uni0E49.low
Substitution2: "Thai Sara UU Mai Tri Reordering" uni0E4A.low
Substitution2: "Thai Sara UU Mai Chattawa Reordering" uni0E4B.low
Substitution2: "Thai Sara UU Thanthakhat Reordering" uni0E4C.low
Substitution2: "Thai Sara UU Nikhahit Reordering" uni0E4D
EndChar

StartChar: uni0E3A
Encoding: 3642 3642 186
Width: 0
Flags: W
HStem: -174 131<-214.515 -115.781>
VStem: -230 129<-157.814 -59.1021>
AnchorPoint: "BelowMark" -101 -43 mark 0
AnchorPoint: "BelowMark" -139 -179 basemark 0
AnchorPoint: "BelowBase" -101 -43 mark 0
LayerCount: 2
Fore
SplineSet
-164 -174 m 0
 -208 -174 -230 -141 -230 -108 c 0
 -230 -76 -208 -43 -164 -43 c 0
 -122 -43 -101 -76 -101 -108 c 0
 -101 -141 -122 -174 -164 -174 c 0
EndSplineSet
Validated: 1
Substitution2: "Thai Phinthu Macron Reordering" macronbelowcmb
Substitution2: "Thai Sara UU Phinthu Reordering" uni0E39
Substitution2: "Thai Sara U Phinthu Reordering" uni0E38
Substitution2: "Thai Phinthu Maitaikhu Reordering" uni0E47
Substitution2: "Thai Phinthu Mai Ek Reordering" uni0E48.low
Substitution2: "Thai Phinthu Mai Tho Reordering" uni0E49.low
Substitution2: "Thai Phinthu Mai Tri Reordering" uni0E4A.low
Substitution2: "Thai Phinthu Mai Chattawa Reordering" uni0E4B.low
Substitution2: "Thai Phinthu Thanthakhat Reordering" uni0E4C.low
Substitution2: "Thai Phinthu Nikhahit Reordering" uni0E4D
EndChar

StartChar: dottedcircle
Encoding: 9676 9676 188
Width: 618
Flags: W
HStem: -14 77<302.102 366.269> 23 77<165.969 231.11> 34 77<441.53 507.448> 118 77<97.1024 161.85> 131 75<547.757 612.492> 263 76<619.7 685.659> 270 77<102.522 167.88> 399 77<624.15 687.709> 406 76<184.569 248.481> 493 77<556.966 621.618> 501 77<308.755 374.057> 535 76<452.552 518.47>
VStem: 93 73<121.336 191.452 277.478 340.145> 162 73<26.5477 96.664> 180 72<409.938 479.031> 298 72<-10.2773 59.6078> 304 74<505.129 574.211> 438 73<37.5102 107.627> 449 73<538.218 607.664> 544 72<133.672 202.627> 552 74<496.723 566.297> 616 74<266.745 334.659 404.536 471.447>
LayerCount: 2
Fore
SplineSet
216 482 m 0x0082
 237 482 252 465 252 445 c 0
 252 424 238 406 217 406 c 0
 197 406 181 424 180 445 c 0
 180 465 196 482 216 482 c 0x0082
341 578 m 0x002080
 362 578 378 561 378 538 c 0
 378 518 363 501 342 501 c 0
 323 501 305 518 304 538 c 1
 305 561 322 578 341 578 c 0x002080
200 100 m 0x4004
 219 100 235 83 235 63 c 0x8004
 235 41 219 23 200 23 c 0x4004
 178 23 162 41 162 63 c 0x8004
 162 83 178 100 200 100 c 0x4004
128 195 m 0x1008
 150 195 166 177 166 155 c 0
 166 135 151 118 129 118 c 0
 110 118 93 135 93 155 c 0
 93 177 109 195 128 195 c 0x1008
474 111 m 0x200040
 495 111 511 94 511 72 c 0
 511 52 495 34 474 34 c 0
 454 34 438 52 438 72 c 0
 438 94 454 111 474 111 c 0x200040
582 206 m 0x080010
 601 206 616 189 616 167 c 0
 616 146 600 131 581 131 c 0
 559 131 544 146 544 167 c 0
 544 189 560 206 582 206 c 0x080010
656 476 m 0x01
 675 476 692 459 692 439 c 0
 692 418 676 399 657 399 c 0
 635 399 620 418 620 439 c 0
 620 459 634 476 656 476 c 0x01
588 570 m 0x004008
 610 570 626 551 626 530 c 0
 626 510 611 493 589 493 c 0
 570 493 552 510 552 530 c 0
 553 551 569 570 588 570 c 0x004008
651 339 m 0x040004
 671 339 690 321 690 301 c 0
 690 280 672 263 652 263 c 0
 633 263 616 280 616 301 c 0
 616 321 632 339 651 339 c 0x040004
135 347 m 0x02
 156 347 172 329 172 307 c 0
 172 287 157 270 136 270 c 0
 117 270 99 287 98 307 c 1
 98 329 116 347 135 347 c 0x02
334 63 m 0x8001
 355 63 370 46 370 23 c 0x4001
 370 3 356 -14 335 -14 c 0x8001
 316 -14 298 3 298 23 c 0x4001
 298 46 315 63 334 63 c 0x8001
485 611 m 0x001020
 505 611 522 594 522 574 c 0
 522 551 506 535 486 535 c 0
 465 535 449 551 449 574 c 0
 449 594 464 611 485 611 c 0x001020
EndSplineSet
Validated: 1
EndChar

StartChar: uni0E3F
Encoding: 3647 3647 189
Width: 717
Flags: W
HStem: -11 60<261.109 320 428 483.315> -9 41<45 137.186> 333 82<528 569.301> 347 65<352 418> 673 63<474.419 509 616 649.179> 694 40<240 306.877>
VStem: 600 120<160.769 304.965> 674 110<511.284 650.548>
DStem2: 104.645 -118 206.362 -118 0.263873 0.964557<225.851 509.04 576.486 798.254> 292 -118 379 -118 0.263873 0.964557<22.957 110.596 202.755 481.767 576.383 820.225 904.404 987.921>
LayerCount: 2
Fore
SplineSet
784 611 m 0x09
 784 567 763 418 616 381 c 1
 674 370 720 332 720 260 c 0
 720 214 691 -7 411 -9 c 1x4a
 379 -118 l 1
 292 -118 l 1
 320 -11 l 1x82
 34 -9 l 1
 45 32 l 1
 132 32 153 58 161 88 c 2
 314 637 l 2
 315 642 316 647 316 652 c 0
 316 674 299 693 228 694 c 1
 240 734 l 1x46
 278 734 478 736 527 736 c 1
 556 834 l 1
 643 834 l 1
 616 731 l 1
 722 731 784 696 784 611 c 0x09
436 412 m 1x18
 509 673 l 1
 495 674 483 674 473 674 c 0
 441 674 423 669 418 650 c 2
 352 412 l 1
 436 412 l 1x18
528 415 m 1x21
 650 419 674 550 674 593 c 0
 674 642 648 667 598 667 c 1
 528 415 l 1x21
336 51 m 1
 418 347 l 1
 334 347 l 1
 266 100 l 2
 263 90 261 81 261 73 c 0
 261 59 270 49 303 49 c 0x90
 312 49 323 49 336 51 c 1
594 203 m 0
 598 218 600 232 600 245 c 0
 600 297 567 331 505 333 c 1x22
 428 55 l 1
 521 65 570 114 594 203 c 0
EndSplineSet
Validated: 1
EndChar

StartChar: uni0E40
Encoding: 3648 3648 190
Width: 321
Flags: W
HStem: -6 44<186.576 269.691> 143 44<230 267.947> 576 20G<239.407 343>
VStem: 110 66<48.1418 132.754> 279 44<47.0808 133.467>
DStem2: 77.436 -6 177.201 -6 0.263873 0.964557<226.417 624.879>
LayerCount: 2
Fore
SplineSet
323 92 m 1
 322 44 290 -6 218 -6 c 0
 138 -6 110 55 110 101 c 0
 110 109 111 117 113 124 c 2
 245 596 l 1
 343 596 l 1
 230 187 l 1
 291 186 322 140 323 92 c 1
228 38 m 0
 262 38 279 64 279 90 c 0
 278 116 262 143 227 143 c 0
 194 143 176 117 176 91 c 0
 177 65 194 38 228 38 c 0
EndSplineSet
Validated: 1
EndChar

StartChar: uni0E42
Encoding: 3650 3650 192
Width: 323
Flags: W
HStem: -6 44<225.576 308.812> 143 44<268 308.266> 839 74<448.793 543.762> 897 74<281.137 384.224>
VStem: 149 66<48.1418 133.496> 314 98<666.5 748.953> 318 43<47.6555 133.247>
DStem2: 116.436 -6 215.201 -6 0.263873 0.964557<226.153 747.26> 239 854 167 831 0.828724 -0.559658<0 139.553>
LayerCount: 2
Fore
SplineSet
489 839 m 0xec
 443 839 359 897 315 897 c 0
 293 897 279 897 239 854 c 1
 393 750 l 2
 407 740 412 730 412 717 c 0xdc
 412 709 410 700 407 690 c 2
 268 187 l 1
 329 186 361 139 361 92 c 0xda
 360 45 330 -6 257 -6 c 0
 177 -6 149 55 149 101 c 0
 149 109 150 117 152 124 c 2
 310 691 l 2
 313 700 314 708 314 715 c 0
 314 730 309 739 304 742 c 2
 167 831 l 1
 221 906 280 971 351 971 c 0xdc
 393 971 468 913 520 913 c 0
 558 913 559 939 580 939 c 0
 586 939 589 936 589 930 c 0
 589 911 549 839 489 839 c 0xec
267 38 m 0
 301 38 318 64 318 90 c 0xca
 317 116 301 143 266 143 c 0
 233 143 215 117 215 91 c 0
 216 65 233 38 267 38 c 0
EndSplineSet
Validated: 1
EndChar

StartChar: uni0E43
Encoding: 3651 3651 193
Width: 345
Flags: W
HStem: -6 44<244.576 327.812> 143 44<287 327.266> 671 46<217.229 283.494> 794 48<219.545 284.518> 912 59<268.178 364.838>
VStem: 159 54<720.023 825.559> 168 66<48.1418 129.065> 288 45<721.049 790.664> 337 43<47.6555 133.247> 374 95<817.241 903.385>
DStem2: 135.436 -6 234.201 -6 0.263873 0.964557<226.153 898.95>
LayerCount: 2
Fore
SplineSet
159 777 m 0xfd40
 159 863 237 971 353 971 c 0
 431 971 469 926 469 867 c 0xfd40
 469 853 467 838 463 823 c 2
 287 187 l 1
 348 186 380 139 380 92 c 0
 379 45 349 -6 276 -6 c 0
 196 -6 168 55 168 101 c 0xfb80
 168 109 169 117 171 124 c 2
 371 842 l 2
 373 849 374 855 374 861 c 0
 374 893 351 912 324 912 c 0
 284 912 247 896 219 836 c 1
 233 841 244 842 250 842 c 0
 305 842 333 799 333 757 c 0
 333 714 304 671 243 671 c 0
 184 671 159 724 159 777 c 0xfd40
286 38 m 0
 320 38 337 64 337 90 c 0
 336 116 320 143 285 143 c 0
 252 143 234 117 234 91 c 0xfb80
 235 65 252 38 286 38 c 0
252 794 m 0
 226 794 213 777 213 756 c 0xfd
 213 739 224 717 249 717 c 0
 275 717 288 737 288 756 c 0
 288 775 276 794 252 794 c 0
EndSplineSet
Validated: 1
EndChar

StartChar: uni0E44
Encoding: 3652 3652 194
Width: 370
Flags: W
HStem: -6 44<272.049 354.812> 143 44<314 354.266> 662 41<213.5 276.949> 925 46<385.458 466>
VStem: 170 66<703.047 748.073> 201 60<48.0154 129.065> 219 76<896.224 955.506> 364 43<47.6555 133.247> 422 87<877.018 924.459>
DStem2: -33.3157 -6 37.5681 -6 0.263873 0.964557<770.415 959.579> 78.5681 -6 135.182 -6 0.263873 0.964557<729.754 985.541>
LayerCount: 2
Fore
SplineSet
219 920 m 0xf380
 219 941 187 957 187 977 c 0
 187 990 199 1001 212 1001 c 0
 218 1001 224 999 229 995 c 2
 279 965 l 1
 290 957 295 949 295 939 c 0xf380
 295 934 293 927 291 920 c 2
 237 723 l 2
 237 722 236 720 236 719 c 0xf980
 236 711 243 703 252 703 c 0
 261 703 275 713 278 723 c 2
 318 868 l 2
 334 926 375 971 441 971 c 0
 491 971 509 941 509 905 c 0
 509 894 507 883 504 871 c 2
 504 871 332 257 314 187 c 1
 375 186 407 139 407 92 c 0
 406 45 376 -6 303 -6 c 0
 225 -6 201 52 201 97 c 0xf580
 201 107 202 116 204 124 c 2
 420 902 l 2
 421 906 422 909 422 912 c 0
 422 920 418 925 411 925 c 0
 397 925 387 912 384 902 c 2
 342 750 l 2
 329 702 296 662 236 662 c 0
 191 662 170 687 170 724 c 0xf980
 170 733 171 743 174 754 c 2
 217 909 l 2
 218 913 219 916 219 920 c 0xf380
313 38 m 0
 347 38 364 64 364 90 c 0
 363 116 347 143 312 143 c 0
 279 143 261 117 261 91 c 0xf580
 262 65 279 38 313 38 c 0
EndSplineSet
Validated: 1
EndChar

StartChar: uni0E45
Encoding: 3653 3653 195
Width: 289
Flags: W
HStem: 541 57<118.263 224.248>
VStem: 237 100<407.078 527.12>
DStem2: 38 -246 136 -246 0.263873 0.964557<25.8596 755.356>
LayerCount: 2
Fore
SplineSet
38 -246 m 1
 234 460 l 2
 236 468 237 476 237 483 c 0
 237 521 207 541 167 541 c 0
 127 541 77 522 36 483 c 1
 16 509 l 1
 72 566 154 598 221 598 c 0
 286 598 337 568 337 501 c 0
 337 486 335 471 330 453 c 2
 136 -246 l 1
 38 -246 l 1
EndSplineSet
Validated: 1
EndChar

StartChar: uni0E46
Encoding: 3654 3654 196
Width: 670
Flags: W
HStem: 254 38<392.467 466.472> 390 36<392.41 465.77> 459 21G<501.532 538.242> 579 20G<447 497.973 596.487 653>
VStem: 335 48<298.812 425.676> 476 39<300.213 381.559> 617 92<413.828 524.491>
DStem2: 413 -246 508 -246 0.263873 0.964557<25.0679 767.467>
LayerCount: 2
Fore
SplineSet
335 369 m 0
 335 477 409 565 485 599 c 1
 533 525 l 1
 620 599 l 1
 686 591 709 552 709 505 c 0
 709 489 707 472 702 455 c 2
 508 -246 l 1
 413 -246 l 1
 616 485 l 2
 617 488 617 491 617 494 c 0
 617 510 606 522 594 525 c 1
 514 459 l 1
 466 536 l 1
 430 515 400 480 386 414 c 1
 402 426 413 426 431 426 c 0
 487 425 514 384 515 342 c 1
 515 298 485 254 428 254 c 0
 362 254 335 308 335 369 c 0
430 292 m 0
 461 292 476 316 476 340 c 0
 476 365 461 390 429 390 c 0
 398 390 383 366 383 342 c 0
 383 317 398 292 430 292 c 0
EndSplineSet
Validated: 1
EndChar

StartChar: uni0E47
Encoding: 3655 3655 197
Width: 0
Flags: W
HStem: 656 49<7.6489 79.146> 736 56<-159.263 -85.0534> 796 47<6.24229 78.5524> 888 50<-84.7753 94.2603> 895 54<-141.317 39.7832>
VStem: -260 75<715.364 848.749> -40 40<749.922 789.421> 85 46<709.666 790.382> 125 91<973.585 1025>
AnchorPoint: "AboveMark" -5 968 basemark 0
AnchorPoint: "AboveBase" 52 630 mark 0
LayerCount: 2
Fore
SplineSet
-117 792 m 0xee80
 -68 792 -45 749 -43 749 c 0
 -41 749 -40 751 -40 757 c 0
 -40 817 0 843 44 843 c 0
 88 843 131 813 131 753 c 0
 131 686 88 656 40 656 c 0
 -63 656 -82 736 -126 736 c 0
 -153 736 -170 704 -170 678 c 0
 -170 669 -169 662 -165 656 c 1
 -223 657 l 1
 -248 689 -260 726 -260 763 c 0
 -260 860 -180 949 -85 949 c 0xef
 -69 949 7 938 41 938 c 0
 63 938 111 945 125 1025 c 1
 216 1025 l 17
 183 910 103 888 42 888 c 0xf680
 4 888 -73 895 -86 895 c 0
 -138 895 -185 843 -185 779 c 0
 -185 770 -184 760 -182 750 c 1
 -165 780 -140 792 -117 792 c 0xee80
43 705 m 0
 72 705 85 727 85 750 c 0
 85 773 71 796 42 796 c 0
 15 796 0 774 0 751 c 0
 0 728 15 705 43 705 c 0
EndSplineSet
Validated: 1
Substitution2: "Thai Maitaikhu Macron Reordering" macronbelowcmb
Substitution2: "Thai Mark High Variant" uni0E47.high
Substitution2: "Thai Phinthu Maitaikhu Reordering" uni0E3A
EndChar

StartChar: uni0E48
Encoding: 3656 3656 198
Width: 0
Flags: W
HStem: 1021 206<157 193>
VStem: 100 150
DStem2: 100 1021 193 1021 0.263873 0.964557<24.5402 213.74>
AnchorPoint: "AboveMark" 209 1246 basemark 0
AnchorPoint: "AboveMark" 136 983 mark 0
LayerCount: 2
Fore
SplineSet
250 1227 m 1
 193 1021 l 1
 100 1021 l 1
 157 1227 l 1
 250 1227 l 1
EndSplineSet
Validated: 1
Substitution2: "Thai Mai Ek Macron Reordering" macronbelowcmb
Substitution2: "Thai Mai Ek Tilde Reordering" tildecomb
MultipleSubs2: "Thai Tone Nikhahit Attachment" uni0E4D uni0E48
Substitution2: "Thai Tone Low Variant" uni0E48.low
Substitution2: "Thai Sara U Mai Ek Reordering" uni0E38
Substitution2: "Thai Sara UU Mai Ek Reordering" uni0E39
Substitution2: "Thai Phinthu Mai Ek Reordering" uni0E3A
EndChar

StartChar: uni0E49
Encoding: 3657 3657 199
Width: 0
Flags: W
HStem: 991 49<156 248.93> 994 35<52 101.406> 1187 43<107.132 174.872>
VStem: 63 40<1113.74 1182.88> 179 45<1112.92 1183.14>
AnchorPoint: "AboveMark" 289 1246 basemark 0
AnchorPoint: "AboveMark" 229 983 mark 0
LayerCount: 2
Fore
SplineSet
486 1229 m 1xb8
 403 1018 208 991 105 991 c 0xb8
 75 991 53 993 43 994 c 1
 52 1029 l 1x78
 92 1034 109 1050 124 1069 c 1
 125 1072 l 1
 87 1083 63 1105 63 1150 c 0
 63 1189 87 1230 145 1230 c 0
 206 1230 224 1177 224 1146 c 0
 224 1139 223 1133 221 1129 c 0
 185 1059 157 1043 157 1043 c 1
 156 1040 l 1
 173 1040 337 1044 401 1229 c 1
 486 1229 l 1xb8
141 1109 m 0
 167 1109 179 1128 179 1147 c 0
 179 1167 166 1187 140 1187 c 0
 115 1187 103 1168 103 1149 c 0
 103 1129 116 1109 141 1109 c 0
EndSplineSet
Validated: 1
Substitution2: "Thai Mai Tho Macron Reordering" macronbelowcmb
Substitution2: "Thai Mai Tho Tilde Reordering" tildecomb
MultipleSubs2: "Thai Tone Nikhahit Attachment" uni0E4D uni0E49
Substitution2: "Thai Tone Low Variant" uni0E49.low
Substitution2: "Thai Sara U Mai Tho Reordering" uni0E38
Substitution2: "Thai Sara UU Mai Tho Reordering" uni0E39
Substitution2: "Thai Phinthu Mai Tho Reordering" uni0E3A
EndChar

StartChar: uni0E4A
Encoding: 3658 3658 200
Width: 0
Flags: W
HStem: 984 37<29.7284 87.2741> 1089 35<31.3158 87.1987>
VStem: -29 55<1022.43 1118.65> 91 33<1026.08 1084.64> 217 60<1084.25 1174.43> 332 71<1161.91 1226>
AnchorPoint: "AboveMark" 165 1246 basemark 0
AnchorPoint: "AboveMark" 106 983 mark 0
LayerCount: 2
Fore
SplineSet
277 1155 m 0
 277 1125 262 1086 235 1055 c 1
 237 1054 l 1
 284 1080 327 1141 332 1226 c 1
 403 1226 l 17
 377 1098 268 986 136 986 c 1
 146 1021 l 1
 191 1043 217 1090 217 1132 c 0
 217 1153 210 1169 197 1175 c 1
 134 1137 l 1
 86 1178 l 1
 54 1172 37 1138 30 1122 c 1
 32 1118 l 1
 41 1122 42 1124 61 1124 c 0
 100 1124 124 1090 124 1057 c 0
 124 1016 97 984 57 984 c 0
 7 984 -29 1024 -29 1078 c 0
 -29 1155 47 1227 105 1232 c 1
 147 1183 l 1
 216 1232 l 1
 261 1217 277 1187 277 1155 c 0
57 1021 m 0
 79 1021 91 1038 91 1056 c 0
 91 1072 80 1089 58 1089 c 0
 37 1089 26 1072 26 1054 c 0
 26 1038 36 1021 57 1021 c 0
EndSplineSet
Validated: 1
Substitution2: "Thai Mai Tri Macron Reordering" macronbelowcmb
Substitution2: "Thai Mai Tri Tilde Reordering" tildecomb
MultipleSubs2: "Thai Tone Nikhahit Attachment" uni0E4D uni0E4A
Substitution2: "Thai Tone Low Variant" uni0E4A.low
Substitution2: "Thai Sara U Mai Tri Reordering" uni0E38
Substitution2: "Thai Sara UU Mai Tri Reordering" uni0E39
Substitution2: "Thai Phinthu Mai Tri Reordering" uni0E3A
EndChar

StartChar: uni0E4B
Encoding: 3659 3659 201
Width: 0
Flags: W
HStem: 1072 74<56 124 219 287>
VStem: 35 273
DStem2: 103 992 174 992 0.263873 0.964557<18.735 81.7414 180.116 242.067>
AnchorPoint: "AboveMark" 209 1246 basemark 0
AnchorPoint: "AboveMark" 136 983 mark 0
LayerCount: 2
Fore
SplineSet
287 1072 m 1
 198 1071 l 1
 174 992 l 1
 103 992 l 1
 124 1071 l 1
 35 1072 l 1
 56 1146 l 1
 145 1147 l 1
 165 1226 l 1
 242 1226 l 1
 219 1147 l 1
 308 1146 l 1
 287 1072 l 1
EndSplineSet
Validated: 1
Substitution2: "Thai Mai Chattawa Macron Reordering" macronbelowcmb
Substitution2: "Thai Mai Chattawa Tilde Reordering" tildecomb
MultipleSubs2: "Thai Tone Nikhahit Attachment" uni0E4D uni0E4B
Substitution2: "Thai Tone Low Variant" uni0E4B.low
Substitution2: "Thai Sara U Mai Chattawa Reordering" uni0E38
Substitution2: "Thai Sara UU Mai Chattawa Reordering" uni0E39
Substitution2: "Thai Phinthu Mai Chattawa Reordering" uni0E3A
EndChar

StartChar: uni0E4C
Encoding: 3660 3660 202
Width: 0
Flags: W
HStem: 895 42<83.3023 151.173>
VStem: 32 46<941.965 1016.1> 156 44<940.804 1016.39>
AnchorPoint: "AboveMark" 241 1246 basemark 0
AnchorPoint: "AboveMark" 95 891 mark 0
LayerCount: 2
Fore
SplineSet
359 1170 m 17
 308 1074 193 1052 162 1046 c 1
 161 1043 l 1
 178 1036 200 1018 200 977 c 0
 200 936 169 895 114 895 c 0
 67 895 32 934 32 982 c 0
 32 1044 88 1075 180 1092 c 0
 226 1101 266 1135 292 1192 c 1
 359 1170 l 17
119 937 m 0
 144 937 156 957 156 978 c 0
 156 999 143 1020 118 1020 c 0
 91 1020 78 1000 78 979 c 0
 78 958 92 937 119 937 c 0
EndSplineSet
Validated: 1
Substitution2: "Thai Thanthakhat Macron Reordering" macronbelowcmb
MultipleSubs2: "Thai Tone Nikhahit Attachment" uni0E4D uni0E4C
Substitution2: "Thai Tone Low Variant" uni0E4C.low
Substitution2: "Thai Sara U Thanthakhat Reordering" uni0E38
Substitution2: "Thai Sara UU Thanthakhat Reordering" uni0E39
Substitution2: "Thai Phinthu Thanthakhat Reordering" uni0E3A
EndChar

StartChar: uni0E4D
Encoding: 3661 3661 203
Width: 0
Flags: W
HStem: 673 54<48.7676 133.327> 831 57<47.3977 132.163>
VStem: -12 51<736.276 822.862> 142 50<735.476 822.053>
AnchorPoint: "AboveMark" 149 983 basemark 0
AnchorPoint: "AboveBase" 158 630 mark 0
LayerCount: 2
Fore
SplineSet
91 673 m 0
 23 673 -12 727 -12 781 c 0
 -12 835 21 888 90 888 c 0
 158 888 192 834 192 780 c 0
 192 726 159 673 91 673 c 0
91 727 m 0
 125 727 142 753 142 778 c 0
 141 805 124 831 90 831 c 0
 56 831 39 805 39 780 c 0
 40 753 57 727 91 727 c 0
EndSplineSet
Validated: 1
Substitution2: "Thai Mark High Variant" uni0E4D.high
Substitution2: "Thai Sara U Nikhahit Reordering" uni0E38
Substitution2: "Thai Sara UU Nikhahit Reordering" uni0E39
Substitution2: "Thai Phinthu Nikhahit Reordering" uni0E3A
EndChar

StartChar: uni0E4E
Encoding: 3662 3662 204
Width: 0
Flags: W
HStem: 777 59<27.3215 87.7954> 909 53<176.367 243>
VStem: -44 68<697.802 773.976> 88 64<831 883.982>
AnchorPoint: "AboveMark" 140 968 basemark 0
AnchorPoint: "AboveBase" 85 630 mark 0
LayerCount: 2
Fore
SplineSet
-44 725 m 0
 -44 777 2 836 58 836 c 0
 69 836 79 833 85 828 c 1
 88 831 l 1
 88 882 126 962 250 962 c 1
 243 909 l 1
 179 903 152 875 152 842 c 0
 152 836 153 830 155 823 c 1
 98 760 l 1
 84 773 71 777 60 777 c 0
 38 777 24 758 24 743 c 0
 24 727 39 717 65 717 c 1
 20 662 l 1
 -21 662 -44 690 -44 725 c 0
EndSplineSet
Validated: 1
Substitution2: "Thai Mark High Variant" uni0E4E.high
EndChar

StartChar: uni0E4F
Encoding: 3663 3663 205
Width: 702
Flags: W
HStem: -14 79<282.337 456.314> 152 77<375.599 467.158> 364 77<401.794 493.088> 527 80<408.616 583.736>
VStem: 124 80<142.669 322.807> 287 80<236.852 330.947> 501 74<262.624 355.575> 662 80<271.783 447.168>
LayerCount: 2
Fore
SplineSet
742 381 m 0
 742 184 540 -14 348 -14 c 0
 212 -14 124 82 124 211 c 0
 124 410 324 607 520 607 c 0
 652 607 742 512 742 381 c 0
370 65 m 0
 514 65 662 212 662 362 c 0
 662 457 597 527 498 527 c 0
 343 527 204 373 204 231 c 0
 204 135 267 65 370 65 c 0
575 338 m 0
 575 241 478 152 394 152 c 0
 329 152 287 196 287 256 c 0
 287 345 374 441 474 441 c 0
 533 441 575 399 575 338 c 0
416 229 m 0
 456 229 501 270 501 315 c 0
 501 343 482 364 453 364 c 0
 412 364 367 322 367 279 c 0
 367 251 387 229 416 229 c 0
EndSplineSet
Validated: 1
EndChar

StartChar: uni0E50
Encoding: 3664 3664 206
Width: 615
Flags: W
HStem: -9 55<249.417 399.842> 430 60<342.999 495.298>
VStem: 92 103<103.676 271.395> 549 102<205.757 375.243>
LayerCount: 2
Fore
SplineSet
651 303 m 0
 651 142 487 -9 306 -9 c 0
 180 -9 92 60 92 171 c 0
 92 335 260 490 444 490 c 0
 566 490 651 415 651 303 c 0
321 46 m 0
 430 46 549 173 549 294 c 0
 549 369 505 430 427 430 c 0
 301 430 195 296 195 182 c 0
 195 106 242 46 321 46 c 0
EndSplineSet
Validated: 1
EndChar

StartChar: uni0E51
Encoding: 3665 3665 207
Width: 615
Flags: W
HStem: -6 58<220.702 322.094> 98 53<307.275 353.979> 243 49<306.766 381.349> 427 57<334.476 502.451>
VStem: 89 99<85.3664 257.332> 251 50<156.801 237.644> 388 62<156.568 236.604> 556 94<196.41 375.677>
LayerCount: 2
Fore
SplineSet
89 146 m 0
 89 322 245 484 438 484 c 0
 555 484 650 417 650 301 c 0
 650 181 545 4 370 -37 c 1
 318 -14 l 1
 481 32 522 149 546 233 c 0
 553 258 556 280 556 300 c 0
 556 384 500 427 422 427 c 0
 276 427 188 275 188 162 c 0
 188 88 229 52 273 52 c 0
 303 52 334 68 354 98 c 1
 336 98 328 98 316 102 c 0
 267 116 251 164 251 194 c 0
 251 251 290 292 349 292 c 0
 410 292 450 237 450 187 c 0
 450 123 364 -6 232 -6 c 0
 155 -6 89 43 89 146 c 0
345 151 m 0
 374 151 388 174 388 196 c 0
 388 220 373 243 344 243 c 0
 315 243 301 220 301 198 c 0
 301 174 316 151 345 151 c 0
EndSplineSet
Validated: 1
EndChar

StartChar: uni0E52
Encoding: 3666 3666 208
Width: 615
Flags: W
HStem: -2 48<161.911 515.089> 86 43<298.695 372.297> 221 45<318.196 372.666> 425 65<369.218 427.669 547.463 633>
VStem: 66 86<52.9746 180.07> 210 81<554.328 693.178> 234 58<134.971 215.181> 379 44<134.247 214.635> 434 46<338.688 423.18> 602 80<253.463 425.071>
DStem2: 34.7946 -2 122.445 -2 0.263873 0.964557<125.727 679.415>
LayerCount: 2
Fore
SplineSet
482 390 m 1xfbc0
 491 417 546 490 606 490 c 0
 660 490 682 449 682 387 c 0
 682 305 633 150 616 112 c 0
 588 49 560 -2 458 -2 c 2
 184 -2 l 2
 101 -2 66 36 66 91 c 0
 66 104 68 119 72 134 c 2
 191 561 l 2
 208 622 210 650 210 661 c 2
 210 667 l 2
 210 702 225 713 240 713 c 0
 249 713 259 709 264 703 c 1
 264 703 287 662 287 660 c 0
 287 659 291 652 291 633 c 0xfdc0
 291 618 288 595 279 561 c 2
 155 117 l 2
 153 110 152 102 152 96 c 0
 152 66 172 46 198 46 c 2
 473 46 l 2
 505 46 520 71 528 91 c 0
 543 129 602 292 602 376 c 0
 602 418 587 426 577 426 c 0
 551 426 508 364 489 321 c 0
 480 302 465 292 452 292 c 0
 441 292 432 300 432 317 c 0
 432 325 434 334 434 360 c 0
 434 392 428 425 406 425 c 0
 353 425 328 308 318 264 c 1
 324 266 330 266 340 266 c 0
 396 266 423 222 423 177 c 0
 423 132 394 86 335 86 c 0
 275 86 234 129 234 186 c 0
 234 208 245 264 253 296 c 0
 286 414 349 490 414 490 c 0
 472 490 480 431 480 398 c 0
 480 394 479 390 479 390 c 1
 482 390 l 1xfbc0
336 129 m 0
 365 129 379 152 379 174 c 0
 379 198 364 221 335 221 c 0
 306 221 292 198 292 176 c 0xfbc0
 292 152 307 129 336 129 c 0
EndSplineSet
Validated: 1
EndChar

StartChar: uni0E53
Encoding: 3667 3667 209
Width: 615
Flags: W
HStem: -8 49<171.251 246.044> 134 49<185.399 245.63> 424 64<276.177 349.364 491.358 573.533>
VStem: 88 76<47.4703 155.048> 252 48<47.0966 128.098> 329 67<161.194 260.024> 580 84<254.663 419.837>
LayerCount: 2
Fore
SplineSet
88 121 m 0
 88 279 177 488 335 488 c 0
 397 488 416 432 420 402 c 1
 464 467 509 488 556 488 c 0
 631 488 664 439 664 362 c 0
 664 220 561 34 547 8 c 1
 496 -5 l 2
 491 -6 485 -6 480 -6 c 0
 470 -6 461 -4 461 8 c 0
 461 30 523 125 560 258 c 0
 572 303 580 341 580 369 c 0
 580 405 567 425 536 425 c 0
 472 425 426 294 412 244 c 0
 408 229 402 218 396 194 c 0
 388 166 368 153 352 153 c 0
 340 153 329 161 329 178 c 0
 329 202 361 264 361 341 c 0
 361 390 347 424 320 424 c 0
 293 424 215 391 185 178 c 1
 192 182 198 183 211 183 c 0
 264 183 300 137 300 88 c 0
 300 28 258 -8 204 -8 c 0
 145 -8 92 35 89 92 c 0
 88 101 88 111 88 121 c 0
209 41 m 0
 238 41 252 64 252 88 c 0
 252 111 238 134 209 134 c 0
 179 134 165 111 164 88 c 1
 165 64 179 41 209 41 c 0
EndSplineSet
Validated: 1
EndChar

StartChar: uni0E54
Encoding: 3668 3668 210
Width: 615
Flags: W
HStem: -2 66<453.084 577.641> 3 42<247.894 382> 167 54<386.827 461.172> 313 50<386.554 461.325> 421 66<322.253 561.112>
VStem: 101 98<95.5387 275.394> 299 81<166.518 287.764> 468 48<227.429 307.447> 696 83<650.376 690.734>
LayerCount: 2
Fore
SplineSet
779 673 m 0x7f80
 779 654 703 421 473 421 c 0
 456 421 426 424 408 424 c 0
 282 424 199 293 199 180 c 0
 199 107 234 45 317 45 c 0x7f80
 336 45 343 49 382 49 c 1
 338 82 299 140 299 203 c 0
 299 258 339 363 423 363 c 0
 483 363 516 313 516 260 c 0
 516 204 471 167 425 167 c 0
 407 167 388 173 372 185 c 1
 391 123 454 64 536 64 c 0
 545 64 577 68 582 68 c 0
 596 68 600 63 600 56 c 0
 600 41 588 32 559 -2 c 1xbf80
 440 1 381 3 361 3 c 0
 322 3 292 -3 264 -3 c 0
 174 -3 101 55 101 165 c 0
 101 321 224 490 414 490 c 0
 451 490 458 487 485 487 c 0
 572 487 651 551 696 713 c 1
 765 688 l 2
 773 686 779 682 779 673 c 0x7f80
424 221 m 0
 453 221 468 244 468 267 c 0
 468 290 454 313 424 313 c 0
 395 313 380 290 380 267 c 0
 381 244 395 221 424 221 c 0
EndSplineSet
Validated: 1
EndChar

StartChar: uni0E55
Encoding: 3669 3669 211
Width: 615
Flags: W
HStem: -2 66<453.084 577.245> 3 41<259.794 382> 167 54<386.827 461.172> 313 50<386.554 461.325> 421 49<421.627 504.163> 562 46<434.623 508.467>
VStem: 101 100<105.008 278.768> 299 81<166.518 287.764> 379 49<488.203 556.104> 468 48<227.429 307.447> 515 49<507.42 556.469> 695 85<646.133 692.25>
LayerCount: 2
Fore
SplineSet
780 675 m 0x7eb0
 780 649 693 423 480 421 c 0
 461 421 426 424 408 424 c 0
 284 424 201 297 201 192 c 0
 201 114 242 44 328 44 c 0x7eb0
 353 44 362 49 382 49 c 1
 338 82 299 140 299 203 c 0
 299 258 339 363 423 363 c 0
 483 363 516 313 516 260 c 0
 516 204 471 167 425 167 c 0
 407 167 388 173 372 185 c 1
 391 123 454 64 536 64 c 0
 554 64 573 69 582 69 c 0
 596 69 600 64 600 57 c 0
 600 45 592 37 559 -2 c 1xbf50
 444 1 387 3 368 3 c 0
 326 3 285 -3 264 -3 c 0
 174 -3 101 55 101 166 c 0
 101 294 189 465 382 490 c 1
 381 498 379 514 379 520 c 0
 384 572 420 608 474 608 c 0
 526 608 564 569 564 515 c 0
 564 508 563 509 563 507 c 1
 606 530 665 590 695 714 c 1
 765 690 l 2
 773 688 780 684 780 675 c 0x7eb0
424 221 m 0
 453 221 468 244 468 267 c 0
 468 290 454 313 424 313 c 0
 395 313 380 290 380 267 c 0x3f50
 381 244 395 221 424 221 c 0
471 470 m 0
 500 470 515 493 515 516 c 0
 515 539 501 562 471 562 c 0
 443 562 428 539 428 516 c 0x3eb0
 429 493 442 470 471 470 c 0
EndSplineSet
Validated: 1
EndChar

StartChar: uni0E56
Encoding: 3670 3670 212
Width: 615
Flags: W
HStem: -9 54<232.281 391.821> 102 52<201.385 275.544> 246 52<200.762 275.395> 429 64<319.262 486.716>
VStem: 97 98<108.386 220.993> 252 90<486.535 697.308> 282 50<159.836 240.418> 545 98<208.688 372.577>
LayerCount: 2
Fore
SplineSet
643 312 m 0xfd
 643 190 543 -9 294 -9 c 0
 152 -9 97 64 97 139 c 0
 97 218 157 298 242 298 c 0
 297 298 332 246 332 198 c 0xfb
 332 144 296 102 233 102 c 0
 222 102 208 108 192 114 c 1
 208 78 241 45 308 45 c 0
 435 45 545 178 545 296 c 0
 545 378 489 429 411 429 c 0
 309 429 282 396 259 396 c 0
 245 396 229 403 229 425 c 0
 229 441 252 495 252 566 c 0
 252 635 230 671 230 686 c 0
 230 697 237 710 255 710 c 2
 334 710 l 1
 338 696 342 670 342 636 c 0
 342 593 336 537 318 478 c 1
 349 488 394 493 429 493 c 0
 557 493 643 426 643 312 c 0xfd
239 154 m 0
 268 154 282 177 282 199 c 0
 282 223 267 246 238 246 c 0
 209 246 195 223 195 201 c 0
 195 177 210 154 239 154 c 0
EndSplineSet
Validated: 1
EndChar

StartChar: uni0E57
Encoding: 3671 3671 213
Width: 615
Flags: W
HStem: -6 47<152.812 227.099> 134 51<162.655 227.131> 424 64<243.444 309.584 432.35 500.331>
VStem: 76 69<47.2615 167.186> 233 49<46.799 128.314> 307 55<248.953 329.404> 505 72<261.886 421.84> 665 95<477.874 651.25>
LayerCount: 2
Fore
SplineSet
743 720 m 0
 756 720 760 695 760 654 c 0
 760 382 571 -7 419 -7 c 0
 401 -7 379 -3 379 14 c 0
 379 19 381 24 384 31 c 2
 442 154 l 1
 476 232 505 314 505 371 c 0
 505 408 492 424 476 424 c 0
 453 424 400 399 362 273 c 1
 355 255 340 246 327 246 c 0
 316 246 307 253 307 267 c 0
 307 275 320 318 320 352 c 0
 320 387 308 424 282 424 c 0
 258 424 187 386 162 178 c 1
 172 184 182 185 194 185 c 0
 250 185 282 130 282 91 c 0
 282 38 244 -6 190 -6 c 0
 121 -6 76 45 76 103 c 0
 76 310 171 488 304 488 c 0
 340 488 369 454 372 406 c 1
 402 454 453 488 490 488 c 0
 525 488 577 469 577 376 c 0
 577 312 550 198 459 58 c 1
 500 67 665 310 665 576 c 0
 665 600 664 625 661 648 c 1
 713 700 l 2
 724 711 734 720 743 720 c 0
190 41 m 0
 219 41 233 64 233 88 c 0
 233 111 219 134 190 134 c 0
 160 134 146 111 145 88 c 1
 146 64 160 41 190 41 c 0
EndSplineSet
Validated: 1
EndChar

StartChar: uni0E58
Encoding: 3672 3672 214
Width: 615
Flags: W
HStem: -9 73<393.453 488.35> 298 52<509.046 583.076> 418 69<314.125 560.459>
VStem: 85 95<86.6499 263.758> 301 73<82.5627 163.5> 449 54<211.973 292.151> 590 58<212.229 291.933> 680 86<644.789 686.625>
LayerCount: 2
Fore
SplineSet
85 160 m 0
 85 316 210 487 397 487 c 0
 425 487 459 482 481 482 c 0
 558 482 641 554 680 708 c 1
 753 684 l 2
 760 681 766 676 766 666 c 0
 766 662 765 657 763 651 c 0
 717 518 596 416 478 416 c 0
 451 416 428 418 405 418 c 0
 237 418 180 251 180 158 c 0
 180 127 188 102 204 83 c 1
 222 120 272 210 336 235 c 1
 385 227 l 1
 377 199 374 174 374 153 c 0
 374 93 402 64 436 64 c 0
 472 64 514 96 535 155 c 1
 486 161 449 199 449 250 c 0
 449 312 494 350 552 350 c 0
 616 350 648 291 648 256 c 0
 648 206 572 -9 432 -9 c 0
 383 -9 301 -3 301 107 c 0
 301 115 301 123 302 132 c 1
 277 101 248 35 232 -11 c 1
 167 -11 85 42 85 160 c 0
546 206 m 0
 575 206 590 229 590 252 c 0
 590 275 576 298 546 298 c 0
 517 298 503 275 503 252 c 0
 503 229 517 206 546 206 c 0
EndSplineSet
Validated: 1
EndChar

StartChar: uni0E59
Encoding: 3673 3673 215
Width: 615
Flags: W
HStem: -6 46<215.407 289.643> 132 49<215.353 289.768> 341 80<569 631.185> 418 63<243.767 331.305 465.641 512.787>
VStem: 99 96<164.909 316.978> 297 46<46.2519 125.601> 707 94<582.07 683.5>
LayerCount: 2
Fore
SplineSet
291 418 m 0xde
 229 418 195 328 195 243 c 0
 195 213 199 185 208 164 c 1
 220 174 232 181 258 181 c 0
 310 181 343 134 343 86 c 0
 343 36 304 -6 254 -6 c 0
 213 -6 151 12 130 57 c 1
 110 97 99 145 99 195 c 0
 99 333 178 481 315 481 c 0xde
 350 481 388 470 418 433 c 1
 434 461 471 482 502 482 c 0
 576 482 557 421 599 421 c 0
 642 421 682 515 707 708 c 1
 790 680 l 2
 797 678 801 674 801 667 c 0
 801 661 741 341 581 341 c 0xee
 515 341 524 418 487 418 c 0
 471 418 461 390 459 373 c 1
 460 362 471 338 473 330 c 0
 511 200 546 0 546 0 c 1
 473 0 l 2
 427 0 448 41 384 275 c 0
 360 362 333 418 291 418 c 0xde
253 40 m 0
 282 40 296 63 297 86 c 1
 296 109 282 132 253 132 c 0
 224 132 209 109 209 86 c 0
 209 63 223 40 253 40 c 0
EndSplineSet
Validated: 1
EndChar

StartChar: uni0E5A
Encoding: 3674 3674 216
Width: 697
Flags: W
HStem: 0 21G<319 423.556 503 606.556> 391 58<211.343 346.747> 553 45<211.011 292.556>
VStem: 151 51<457.405 544.317> 302 48<456.953 544.862>
DStem2: 319 0 418 0 0.263873 0.964557<26.1234 448.354> 503 0 601 0 0.263873 0.964557<25.8596 616.486>
LayerCount: 2
Fore
SplineSet
418 0 m 1
 319 0 l 1
 439 432 l 1
 388 402 333 391 286 391 c 0
 235 391 193 404 178 422 c 0
 159 443 151 469 151 494 c 0
 151 547 190 598 255 598 c 0
 313 598 350 550 350 500 c 0
 350 479 343 458 328 440 c 1
 436 450 480 525 499 594 c 1
 583 594 l 1
 418 0 l 1
252 449 m 0
 286 449 302 475 302 501 c 0
 302 527 285 553 252 553 c 0
 218 553 202 527 202 501 c 0
 202 475 219 449 252 449 c 0
601 0 m 1
 503 0 l 1
 668 594 l 1
 766 594 l 1
 601 0 l 1
EndSplineSet
Validated: 1
EndChar

StartChar: uni0E5B
Encoding: 3675 3675 217
Width: 1233
Flags: W
HStem: 37 67<229.824 392.869> 190 93<296.184 350.749> 190 59<354 419.191> 262 3<1195 1281> 389 40<297.79 360.014> 562 68<321.045 479.03>
VStem: 86 70<179.042 363.701> 236 52<289.558 383.202> 370 43<289.355 381.189> 517 69<375.252 524.452> 987 46<295 367>
DStem2: 707 441 747 270 0.0697224 0.997566<-167.795 0> 747 270 847 372 0.406977 0.913438<0 133.868> 847 372 890 273 0.0549331 0.99849<-96.4884 0> 890 273 987 367 0.458866 0.888505<0 128.03> 1033 295 1105 350 0.450213 0.892921<0 81.526>
LayerCount: 2
Fore
SplineSet
1195 265 m 0xbfe0
 1221 265 1238 317 1291 317 c 0
 1314 317 1331 306 1331 306 c 1
 1314 247 l 1
 1314 247 1300 262 1281 262 c 0xbfe0
 1245 262 1218 204 1171 204 c 0
 1125 204 1128 271 1105 350 c 1
 985 112 l 1
 987 367 l 1
 830 63 l 1
 847 372 l 1
 712 69 l 1
 681 69 l 1
 707 441 l 1
 655 349 556 37 287 37 c 0
 170 37 86 119 86 245 c 0
 86 400 214 630 420 630 c 0
 539 630 586 562 586 479 c 0
 586 352 474 190 342 190 c 0xcfe0
 273 190 236 236 236 302 c 0
 236 348 255 429 330 429 c 0
 380 429 413 391 413 338 c 0
 413 279 382 257 355 252 c 1
 354 249 l 1
 357 249 l 2
 438 249 517 365 517 456 c 0
 517 514 485 562 399 562 c 0
 265 562 156 392 156 265 c 0
 156 169 219 107 307 104 c 1
 379 104 484 149 570 303 c 2
 742 611 l 1
 773 611 l 1
 747 270 l 1
 876 554 l 1
 907 554 l 1
 890 273 l 1
 1035 548 l 1
 1033 295 l 1
 1135 492 l 1
 1159 347 1173 295 1173 295 c 2
 1176 277 1183 265 1195 265 c 0xbfe0
370 336 m 0
 370 361 353 389 329 389 c 0
 301 389 288 361 288 336 c 0
 288 306 306 283 329 283 c 0xcfe0
 353 283 370 306 370 336 c 0
EndSplineSet
Validated: 1
EndChar

StartChar: uni0E38.low
Encoding: 63256 63256 218
Width: 0
Flags: W
HStem: -392 40<-295.547 -264> -275 43<-297.809 -231.606>
VStem: -339 38<-346.578 -279.495> -227 68<-349.154 -279.294>
LayerCount: 2
Fore
SplineSet
-339 -315 m 0
 -339 -282 -317 -232 -248 -232 c 0
 -197 -232 -159 -256 -159 -301 c 0
 -159 -307 -159 -314 -161 -321 c 2
 -199 -458 l 1
 -282 -458 l 1
 -264 -392 l 1
 -311 -392 -339 -357 -339 -315 c 0
-227 -313 m 0
 -227 -293 -246 -275 -262 -275 c 0
 -286 -275 -301 -290 -301 -313 c 0
 -301 -336 -284 -352 -262 -352 c 0
 -241 -352 -227 -336 -227 -313 c 0
EndSplineSet
Validated: 1
EndChar

StartChar: uni0E39.low
Encoding: 63257 63257 219
Width: 0
Flags: W
HStem: -476 54<-306.596 -266.114> -387 35<-395.453 -352.047> -275 36<-396.121 -333.755>
VStem: -436 35<-346.438 -279.518> -369 62<-421.709 -384.58> -327 44<-349.133 -279.021>
DStem2: -286.562 -476 -202.562 -476 0.263873 0.964557<52.1831 244.672>
LayerCount: 2
Fore
SplineSet
-436 -311 m 0xf8
 -436 -274 -411 -239 -357 -239 c 0
 -310 -239 -283 -264 -283 -303 c 0xf4
 -283 -311 -284 -320 -287 -330 c 2
 -306 -402 l 2
 -307 -405 -307 -407 -307 -409 c 0
 -307 -417 -301 -422 -292 -422 c 0
 -281 -422 -270 -416 -266 -402 c 2
 -222 -240 l 1
 -138 -240 l 1
 -176 -379 l 2
 -191 -432 -233 -476 -293 -476 c 0
 -342 -476 -369 -455 -369 -418 c 0
 -369 -402 -365 -392 -363 -386 c 1
 -365 -387 -367 -387 -369 -387 c 0
 -396 -387 -436 -361 -436 -311 c 0xf8
-327 -313 m 0
 -327 -293 -344 -275 -364 -275 c 0
 -388 -275 -401 -290 -401 -313 c 0
 -401 -336 -387 -352 -364 -352 c 0
 -341 -352 -327 -336 -327 -313 c 0
EndSplineSet
Validated: 1
EndChar

StartChar: uni0E3A.low
Encoding: 63258 63258 220
Width: 0
Flags: W
HStem: -335 118<-239.42 -151.715>
VStem: -253 114<-322.586 -229.842>
LayerCount: 2
Fore
SplineSet
-194 -335 m 0
 -233 -335 -253 -306 -253 -277 c 0
 -252 -247 -233 -217 -193 -217 c 0
 -157 -217 -139 -246 -139 -275 c 0
 -140 -305 -158 -335 -194 -335 c 0
EndSplineSet
Validated: 1
EndChar

StartChar: multiply
Encoding: 215 215 221
Width: 590
Flags: W
DStem2: 102 118 146 51 0.774304 0.632814<0 261.22 373.401 634.829> 276 521 199 458 0.556574 -0.830798<9.4841 205.524 294.596 488.7>
LayerCount: 2
Fore
SplineSet
551 117 m 1
 473 49 l 1
 356 220 l 1
 146 51 l 1
 102 118 l 1
 311 286 l 1
 199 458 l 1
 276 521 l 1
 393 352 l 1
 600 521 l 1
 644 458 l 1
 437 286 l 1
 551 117 l 1
EndSplineSet
Validated: 1
EndChar

StartChar: divide
Encoding: 247 247 222
Width: 520
Flags: W
HStem: 2 129<246.028 314.488> 212 81<100 562> 375 130<349.457 416.978>
VStem: 215 128<30.6875 100.27> 319 128<405.164 475.601>
LayerCount: 2
Fore
SplineSet
447 460 m 0xe8
 447 415 407 375 364 375 c 0
 337 375 319 397 319 423 c 0
 319 458 354 505 400 505 c 0
 428 505 447 488 447 460 c 0xe8
562 212 m 1
 78 212 l 1
 100 293 l 1
 584 293 l 1
 562 212 l 1
343 84 m 0xf0
 343 47 310 2 261 2 c 0
 233 2 215 22 215 50 c 0
 215 88 255 131 296 131 c 0
 325 131 343 111 343 84 c 0xf0
EndSplineSet
Validated: 1
EndChar

StartChar: registered
Encoding: 174 174 223
Width: 738
Flags: W
HStem: -25 70<286.592 479.454> 147 39<266 310.999 399 413 563.307 583> 309 41<432 459.927> 485 39<361 385.997 463.469 538.549> 613 69<441.068 638.186>
VStem: 109 70<153.224 352.059> 543 84<391.616 481.356> 744 67<309.568 504.73>
DStem2: 248.353 -25 328.353 -25 0.263873 0.964557<250.372 371.614 412.098 522.323>
LayerCount: 2
Fore
SplineSet
627 461 m 0
 627 399 570 331 519 326 c 1
 548 318 548 283 554 253 c 0
 561 221 555 187 594 186 c 1
 583 147 l 1
 513 147 l 2
 484 147 476 190 469 232 c 0
 457 296 469 309 420 309 c 1
 391 204 l 2
 390 201 389 198 389 196 c 0
 389 190 393 188 399 187 c 2
 423 184 l 1
 413 147 l 1
 255 147 l 1
 266 186 l 1
 287 187 l 1
 300 189 308 194 311 204 c 2
 384 468 l 2
 385 473 386 476 386 479 c 0
 386 485 382 485 371 485 c 2
 351 485 l 1
 361 524 l 1
 523 524 l 2
 592 524 627 504 627 461 c 0
439 350 m 1
 535 350 543 427 543 446 c 0
 543 472 528 485 501 485 c 2
 475 485 l 2
 468 485 464 467 461 458 c 2
 432 352 l 1
 439 350 l 1
541 613 m 0
 358 613 179 428 179 250 c 0
 179 132 259 45 383 45 c 0
 564 45 744 228 744 408 c 0
 744 526 664 613 541 613 c 0
109 230 m 0
 109 453 331 682 558 682 c 0
 711 682 811 575 811 428 c 0
 811 199 583 -25 362 -25 c 0
 209 -25 109 83 109 230 c 0
EndSplineSet
Validated: 1
EndChar

StartChar: fi
Encoding: 64257 64257 224
Width: 555
Flags: W
HStem: -205 34<-106.536 -49.845> -9 71<325 416.536> 407 43<26 92 221 360> 438 20G<483.5 488.752> 672 31<324.776 414.04>
VStem: -187 80<-170.223 -102.016> 103 118<450 507.727> 275 123<31.6012 159.505> 415 92<585.306 661.318>
DStem2: 197.166 -205 317.138 -205 0.263873 0.964557<326.436 633.277>
LayerCount: 2
Fore
SplineSet
-88 -122 m 0xef80
 -88 -145 -107 -150 -107 -163 c 0
 -107 -168 -101 -171 -89 -171 c 0
 -45 -171 -31 -145 0 -4 c 2
 92 407 l 1
 18 407 l 1
 26 450 l 1
 103 450 l 1
 143 563 190 703 365 703 c 0
 450 703 507 664 507 608 c 0
 507 576 483 551 450 551 c 0
 417 551 393 576 393 606 c 0
 393 641 415 642 415 658 c 0
 415 668 404 672 388 672 c 0
 352 672 316 659 297 636 c 0
 267 598 253 568 221 450 c 1
 338 450 l 2xef80
 354 450 391 451 447 456 c 0
 453 456 473 458 494 458 c 1xdf80
 420 176 l 1
 420 171 l 1
 407 123 398 88 398 78 c 0
 398 69 407 62 415 62 c 0
 431 62 453 83 492 141 c 1
 514 127 l 1
 445 22 407 -9 347 -9 c 0
 303 -9 275 15 275 57 c 0
 275 73 278 83 291 138 c 1
 360 407 l 1
 211 407 l 1
 117 22 l 2
 104 -29 70 -100 40 -138 c 0
 7 -180 -42 -205 -91 -205 c 0
 -146 -205 -187 -171 -187 -127 c 0
 -187 -95 -168 -73 -139 -73 c 0
 -110 -73 -88 -94 -88 -122 c 0xef80
EndSplineSet
Validated: 1
LCarets2: 1 0
Ligature2: "'liga' Standard Ligatures in Latin lookup 0 subtable" f i
EndChar

StartChar: fl
Encoding: 64258 64258 225
Width: 555
Flags: W
HStem: -205 35<-102.515 -50.1511> -9 71<327.5 416.8> 407 43<29 94 221 360> 675 30<320.674 399.457>
VStem: -186 83<-169.46 -98.2069> 275 123<27.5625 146.609>
DStem2: 1 4 133 81 0.22486 0.974391<-75.6444 413.592 484.048 606.317> 201.391 -205 317.561 -205 0.263873 0.964557<325.95 632.162 676.804 804.035>
LayerCount: 2
Fore
SplineSet
-86 -117 m 0
 -86 -138 -103 -148 -103 -158 c 0
 -103 -166 -94 -170 -81 -170 c 0
 -45 -170 -31 -138 1 4 c 2
 94 407 l 1
 21 407 l 1
 29 450 l 1
 104 450 l 1
 138 558 157 598 196 642 c 0
 231 680 291 705 353 705 c 0
 375 705 382 703 441 691 c 1
 454 688 l 1
 554 702 l 1
 401 100 l 2
 398 86 398 82 398 79 c 0
 398 70 406 62 415 62 c 0
 434 62 456 83 491 138 c 1
 511 126 l 1
 444 21 407 -9 349 -9 c 0
 306 -9 275 15 275 48 c 0
 275 60 278 73 281 86 c 2
 360 407 l 1
 212 407 l 1
 133 81 l 1
 88 -110 15 -205 -89 -205 c 0
 -146 -205 -186 -171 -186 -125 c 0
 -186 -91 -166 -70 -133 -70 c 0
 -105 -70 -86 -89 -86 -117 c 0
381 606 m 0
 381 631 401 648 401 656 c 0
 401 666 384 675 366 675 c 0
 333 675 302 653 278 617 c 1
 256 582 242 539 221 450 c 1
 372 450 l 1
 401 568 l 1
 388 579 381 590 381 606 c 0
EndSplineSet
Validated: 1
LCarets2: 1 0
Ligature2: "'liga' Standard Ligatures in Latin lookup 0 subtable" f l
EndChar

StartChar: ff
Encoding: 64256 64256 226
Width: 581
Flags: W
HStem: -205 31<-106.416 -57.6539 166.514 210.407> 407 43<26 92 221 360 485 568> 669 30<325.967 414.696 564.037 610.21>
VStem: -187 80<-170.718 -101.744> 81 85<-173.654 -102.351> 611 83<594.719 668.618>
DStem2: -75.4243 -205 43.5757 -205 0.263873 0.964557<372.756 634.488 710.004 829.023>
LayerCount: 2
Fore
SplineSet
694 618 m 0
 694 587 674 565 643 565 c 0
 615 565 595 587 595 615 c 0
 595 633 611 649 611 655 c 0
 611 665 603 669 595 669 c 0
 529 669 497 495 485 450 c 1
 577 450 l 1
 568 407 l 1
 478 407 l 1
 461 327 444 245 425 166 c 0
 395 37 349 -205 177 -205 c 0
 123 -205 81 -179 81 -122 c 0
 81 -97 107 -72 130 -72 c 0
 157 -72 182 -95 182 -122 c 0
 182 -141 166 -157 166 -163 c 0
 166 -171 174 -174 182 -174 c 0
 245 -174 264 -29 272 15 c 1
 360 407 l 1
 211 407 l 1
 117 22 l 1
 92 -76 25 -205 -89 -205 c 0
 -133 -205 -187 -182 -187 -130 c 0
 -187 -101 -173 -73 -141 -73 c 0
 -111 -73 -88 -92 -88 -122 c 0
 -88 -146 -107 -149 -107 -163 c 0
 -107 -170 -92 -171 -89 -171 c 0
 -23 -171 -10 -50 0 -4 c 2
 92 407 l 1
 18 407 l 1
 26 450 l 1
 103 450 l 1
 151 589 202 703 372 703 c 0
 412 703 458 691 486 661 c 1
 519 686 557 699 598 699 c 0
 647 699 694 674 694 618 c 0
415 656 m 0
 415 669 401 672 390 672 c 0
 272 672 245 539 221 450 c 1
 371 450 l 1
 381 488 393 529 412 565 c 1
 398 576 393 590 393 605 c 0
 393 634 415 645 415 656 c 0
EndSplineSet
Validated: 1
LCarets2: 1 0
Ligature2: "'liga' Standard Ligatures in Latin lookup 0 subtable" f f
EndChar

StartChar: ffi
Encoding: 64259 64259 227
Width: 823
Flags: W
HStem: -205 31<-106.416 -57.6539 166.514 210.407> -9 71<592.5 683.763> 407 43<26 92 221 360 485 625.787> 438 20G<736 756.752> 672 31<331.45 414.328 595.455 680.646>
VStem: -187 80<-170.718 -101.744> 81 85<-173.654 -102.351> 371 114<450 512.87> 543 123<32.7042 156.179> 681 92<584.259 662.688>
DStem2: -75.4243 -205 43.5757 -205 0.263873 0.964557<372.756 634.488 710.004 829.023> 272 15 425 166 0.219038 0.975716<-76.4856 401.756> 466.166 -205 583.77 -205 0.263873 0.964557<327.944 633.013>
LayerCount: 2
Fore
SplineSet
782 127 m 1xdfc0
 743 66 694 -9 614 -9 c 0
 571 -9 543 15 543 59 c 0
 543 83 554 113 560 138 c 2
 628 407 l 1
 478 407 l 1
 461 327 444 245 425 166 c 0
 395 37 349 -205 177 -205 c 0
 123 -205 81 -179 81 -122 c 0
 81 -97 107 -72 130 -72 c 0
 157 -72 182 -95 182 -122 c 0
 182 -141 166 -157 166 -163 c 0
 166 -171 174 -174 182 -174 c 0
 245 -174 264 -29 272 15 c 1
 360 407 l 1
 211 407 l 1
 117 22 l 1
 92 -76 25 -205 -89 -205 c 0
 -133 -205 -187 -182 -187 -130 c 0
 -187 -101 -173 -73 -141 -73 c 0
 -111 -73 -88 -92 -88 -122 c 0
 -88 -146 -107 -149 -107 -163 c 0
 -107 -170 -92 -171 -89 -171 c 0
 -23 -171 -10 -50 0 -4 c 2
 92 407 l 1
 18 407 l 1
 26 450 l 1
 103 450 l 1
 151 589 202 703 372 703 c 0
 413 703 461 691 489 658 c 1
 532 690 584 703 639 703 c 0
 694 703 773 677 773 608 c 0
 773 576 750 551 716 551 c 0
 686 551 659 573 659 605 c 0
 659 634 681 645 681 656 c 0
 681 669 669 672 656 672 c 0
 539 672 511 539 485 450 c 1
 606 450 l 2xefc0
 659 450 710 456 762 458 c 1
 688 176 l 1
 683 148 666 107 666 79 c 0
 666 70 675 62 683 62 c 0
 705 62 749 122 760 141 c 1
 782 127 l 1xdfc0
415 562 m 1
 400 573 393 587 393 605 c 0
 393 634 415 645 415 656 c 0
 415 669 401 672 390 672 c 0
 272 672 245 539 221 450 c 1
 371 450 l 1
 382 486 395 526 415 562 c 1
EndSplineSet
Validated: 1
LCarets2: 2 0 0
Ligature2: "'liga' Standard Ligatures in Latin lookup 0 subtable" ff i
Ligature2: "'liga' Standard Ligatures in Latin lookup 0 subtable" f f i
EndChar

StartChar: ffl
Encoding: 64260 64260 228
Width: 823
Flags: W
HStem: -205 34<-106.416 -53.0232 164.529 213.866> -9 71<597 695> 407 43<26 92 221 360 488 627> 672 31<331.45 414.696 583.217 668.7>
VStem: -187 80<-170.718 -101.744> 81 83<-169.688 -98.217> 543 122<30 169.091>
DStem2: -75.4243 -205 43.5757 -205 0.263873 0.964557<372.756 634.488 710.004 829.023> 270 4 401 81 0.217956 0.975959<-72.7112 412.927 482.792 573.965>
LayerCount: 2
Fore
SplineSet
820 702 m 1
 803 633 665 110 665 78 c 0
 665 69 674 62 683 62 c 0
 707 62 746 117 757 138 c 1
 778 126 l 1
 740 67 694 -9 615 -9 c 0
 579 -9 543 10 543 50 c 0
 543 105 609 338 627 407 c 1
 480 407 l 1
 401 81 l 2
 374 -32 318 -205 174 -205 c 0
 126 -205 81 -177 81 -123 c 0
 81 -89 103 -70 133 -70 c 0
 161 -70 180 -89 180 -117 c 0
 180 -138 164 -146 164 -158 c 0
 164 -168 180 -170 187 -170 c 0
 240 -170 261 -32 270 4 c 2
 360 407 l 1
 211 407 l 1
 117 22 l 1
 92 -76 25 -205 -89 -205 c 0
 -133 -205 -187 -182 -187 -130 c 0
 -187 -101 -173 -73 -141 -73 c 0
 -111 -73 -88 -92 -88 -122 c 0
 -88 -146 -107 -149 -107 -163 c 0
 -107 -170 -92 -171 -89 -171 c 0
 -23 -171 -10 -50 0 -4 c 2
 92 407 l 1
 18 407 l 1
 26 450 l 1
 103 450 l 1
 151 589 202 703 372 703 c 0
 412 703 458 691 486 661 c 1
 526 691 577 705 627 705 c 0
 658 705 691 696 721 688 c 1
 820 702 l 1
669 568 m 1
 655 579 647 592 647 609 c 0
 647 631 669 649 669 656 c 0
 669 669 645 675 636 675 c 0
 538 675 505 523 488 450 c 1
 639 450 l 1
 669 568 l 1
415 656 m 0
 415 669 401 672 390 672 c 0
 272 672 245 539 221 450 c 1
 371 450 l 1
 382 488 395 527 413 562 c 1
 400 573 393 589 393 605 c 0
 393 634 415 645 415 656 c 0
EndSplineSet
Validated: 1
LCarets2: 2 0 0
Ligature2: "'liga' Standard Ligatures in Latin lookup 0 subtable" ff l
Ligature2: "'liga' Standard Ligatures in Latin lookup 0 subtable" f f l
EndChar

StartChar: zerowidthspace
Encoding: 8203 8203 229
Width: 0
Flags: W
LayerCount: 2
Back
SplineSet
661 -187 m 5
 597 -187 l 5
 634 -54 l 6
 635.992 -46.6294 636.992 -40.0524 636.992 -34.2454 c 4
 636.992 -10.9016 620.833 -1.27157e-06 588 0 c 6
 210 0 l 6
 175 0 155 -15 145 -49 c 6
 107 -187 l 5
 43 -187 l 5
 112 61 l 5
 730 61 l 5
 661 -187 l 5
EndSplineSet
EndChar

StartChar: uni0E47.high
Encoding: 63263 63263 232
Width: 0
Flags: W
HStem: 999 44<79.2463 134.754> 1060 49<-47.8053 12.0355> 1106 42<78.7219 134.293> 1176 44<9.54975 149.577> 1181 47<-37.5738 104.189>
VStem: -127 63<1082 1153.66> 41 36<1079 1103.19> 136 41<1044.69 1104.04> 167 75<1236.46 1286>
AnchorPoint: "AboveMark" 73 1246 basemark 0
AnchorPoint: "AboveMark" -3 983 mark 0
LayerCount: 2
Back
SplineSet
-15.0576 1105.85 m 0xee80
 22.2402 1105.85 39.7471 1073.12 41.2695 1073.12 c 0
 42.792 1073.12 43.5527 1074.64 43.5527 1079.21 c 0
 43.5527 1124.88 74 1144.67 107.492 1144.67 c 0
 140.983 1143.91 173.714 1121.83 173.714 1076.17 c 0
 173.714 1025.17 140.983 1002.33 104.447 1002.33 c 0
 26.0459 1002.33 11.584 1063.22 -21.9082 1063.22 c 0
 -42.46 1063.22 -55.3994 1038.87 -55.3994 1019.08 c 0
 -55.3994 1012.23 -54.6387 1006.9 -51.5938 1002.33 c 1
 -95.7422 1003.09 l 1
 -114.771 1027.45 -123.905 1055.61 -123.905 1083.78 c 0
 -123.905 1157.61 -63.0117 1225.36 9.2998 1225.36 c 0xef
 21.4785 1225.36 79.3281 1216.98 105.208 1216.98 c 0
 121.954 1216.98 158.49 1222.31 169.146 1283.2 c 1
 238.414 1283.2 l 17
 213.295 1195.67 152.401 1178.92 105.97 1178.92 c 0xf680
 77.0449 1178.92 18.4346 1184.25 8.53906 1184.25 c 0
 -31.042 1184.25 -66.8174 1144.67 -66.8174 1095.96 c 0
 -66.8174 1089.1 -66.0566 1081.49 -64.5342 1073.88 c 1
 -51.5938 1096.72 -32.5645 1105.85 -15.0576 1105.85 c 0xee80
106.73 1039.63 m 0
 128.805 1039.63 138.7 1056.37 138.7 1073.88 c 0
 138.7 1091.39 128.043 1108.9 105.97 1108.9 c 0
 85.418 1108.9 74.7607 1092.15 74 1074.64 c 1
 74.7607 1057.14 85.418 1039.63 106.73 1039.63 c 0
EndSplineSet
Fore
SplineSet
242 1286 m 1x9680
 216 1196 156 1176 106 1176 c 0x9680
 77 1176 18 1181 9 1181 c 0
 -29 1181 -64 1143 -64 1096 c 0
 -64 1092 -63 1086 -63 1082 c 1
 -49 1101 -32 1109 -15 1109 c 0xce80
 16 1109 35 1087 41 1079 c 1
 41 1127 72 1148 107 1148 c 0xa680
 142 1148 177 1123 177 1076 c 0
 177 1023 142 999 104 999 c 0
 24 999 8 1060 -22 1060 c 0
 -40 1060 -52 1038 -52 1019 c 0
 -52 1009 -50 1005 -46 999 c 1
 -97 1000 l 1
 -117 1025 -127 1055 -127 1084 c 0
 -127 1159 -65 1228 9 1228 c 0xcf
 22 1228 79 1220 105 1220 c 0
 122 1220 157 1226 167 1286 c 1
 242 1286 l 1x9680
107 1043 m 0
 127 1043 136 1058 136 1074 c 0
 136 1090 126 1106 106 1106 c 0xa7
 87 1106 77 1091 77 1075 c 0
 77 1059 88 1043 107 1043 c 0
EndSplineSet
Validated: 1
EndChar

StartChar: dotlessi
Encoding: 305 305 237
Width: 276
Flags: W
HStem: -9 71<49.5 139.37> 407 27<21 74.7084> 441 20G<195.5 217.551>
VStem: 1 122<30.472 148.875>
DStem2: -21.1111 -9 94.7946 -9 0.263873 0.964557<120.306 399.904>
LayerCount: 2
Fore
SplineSet
215 141 m 1
 237 127 l 1
 168 22 130 -9 70 -9 c 0
 29 -9 1 18 1 54 c 0
 1 67 7 95 15 123 c 2
 73 338 l 2
 78 354 81 371 81 378 c 0
 81 398 64 407 21 407 c 1
 21 434 l 1
 100 439 168 450 223 461 c 1
 132 127 l 2
 129 116 123 82 123 76 c 0
 123 67 130 62 138 62 c 0
 152 62 176 82 202 122 c 1
 215 141 l 1
EndSplineSet
Validated: 1
EndChar

StartChar: dotlessj
Encoding: 567 567 238
Width: 276
Flags: W
HStem: -207 31<-103.957 -55.0426> 407 27<31 87.1006> 441 20G<209.5 233.795>
VStem: -189 84<-175.263 -107.003>
DStem2: -56.3182 -207 62.0791 -207 0.263873 0.964557<109.746 600.965>
LayerCount: 2
Fore
SplineSet
-91 -126 m 0
 -91 -152 -105 -150 -105 -164 c 0
 -105 -168 -92 -176 -82 -176 c 0
 -54 -176 -37 -145 -12 -45 c 1
 81 311 l 2
 88 338 92 365 92 376 c 0
 92 401 81 407 31 407 c 1
 31 434 l 1
 144 444 180 450 239 461 c 1
 125 23 l 2
 85 -130 16 -207 -83 -207 c 0
 -146 -207 -189 -176 -189 -130 c 0
 -189 -101 -166 -78 -141 -78 c 0
 -113 -78 -91 -100 -91 -126 c 0
EndSplineSet
Validated: 1
EndChar

